<?xml version="1.0" encoding="UTF-8"?>
<svg id="Layer_1" data-name="Layer 1" xmlns="http://www.w3.org/2000/svg" viewBox="0 0 899 1599">
  <defs>
    <style>
      .cls-1 {
        stroke-width: 15px;
      }

      .cls-1, .cls-2, .cls-3, .cls-4, .cls-5, .cls-6, .cls-7, .cls-8, .cls-9, .cls-10, .cls-11 {
        stroke-miterlimit: 10;
      }

      .cls-1, .cls-2, .cls-3, .cls-5, .cls-6, .cls-7, .cls-8, .cls-9, .cls-10, .cls-11 {
        stroke: #231f20;
      }

      .cls-1, .cls-4 {
        fill: none;
      }

      .cls-2 {
        stroke-width: 5px;
      }

      .cls-2, .cls-3, .cls-12, .cls-7, .cls-9, .cls-10, .cls-11 {
        fill: #ed1c24;
      }

      .cls-3 {
        stroke-width: 7px;
      }

      .cls-4 {
        stroke: #ed1c24;
        stroke-width: 85px;
      }

      .cls-5 {
        fill: #00aeef;
      }

      .cls-5, .cls-11 {
        stroke-width: 3px;
      }

      .cls-6 {
        fill: #fff;
      }

      .cls-7 {
        stroke-width: .25px;
      }

      .cls-8 {
        fill: #27aae1;
      }

      .cls-10 {
        stroke-width: 6px;
      }
    </style>
  </defs>
  <ellipse class="cls-5" cx="415.77" cy="824.45" rx="321.9" ry="324.17"/>
  <circle class="cls-6" cx="234.74" cy="1150.34" r="2.62"/>
  <path class="cls-8" d="M462.8,811.14h-54.52,54.52Z"/>
  <ellipse class="cls-8" cx="463.84" cy="840.5" rx="27.26" ry="0"/>
  <ellipse class="cls-8" cx="459.65" cy="799.5" rx="27.26" ry="0"/>
  <ellipse class="cls-2" cx="368.94" cy="750.67" rx="80.56" ry="84.41"/>
  <ellipse class="cls-2" cx="522.92" cy="736.34" rx="78.11" ry="82.14"/>
  <path class="cls-9" d="M367.04,748.75v-1.92,3.84-1.92Z"/>
  <circle class="cls-9" cx="502.48" cy="735.12" r="1.22"/>
  <circle class="cls-9" cx="527.64" cy="709.95" r="1.22"/>
  <rect class="cls-12" x="384.45" y="756.26" width="161.54" height="68.19"/>
  <rect class="cls-12" x="326.12" y="770.21" width="85.64" height="58.57" rx="15.73" ry="15.73"/>
  <rect class="cls-12" x="555.78" y="784.22" width="2.1" height="2.1"/>
  <rect class="cls-7" x="548.79" y="773.74" width="2.1" height="2.1"/>
  <rect class="cls-7" x="502.48" y="884.65" width="9.96" height="1.63"/>
  <rect class="cls-12" x="426.46" y="750.67" width="9.08" height="0"/>
  <polygon class="cls-12" points="476.79 727.6 424.75 796.09 391.45 716.78 476.79 727.6"/>
  <rect class="cls-11" x="298.53" y="1265.16" width="2.8" height="2.8"/>
  <ellipse class="cls-1" cx="429.95" cy="824.07" rx="301.28" ry="313.51"/>
  <polygon class="cls-10" points="537.25 943.6 377.87 909 291.73 774.79 601.03 748.75 537.25 943.6"/>
  <polygon class="cls-10" points="394.11 968.5 346.37 973 366.35 929.41 394.11 968.5"/>
  <polygon class="cls-10" points="426.46 970.34 411.02 943.6 441.89 943.6 426.46 970.34"/>
  <rect class="cls-10" x="441.51" y="1004.8" width="42.56" height="42.56" transform="translate(-658.28 1127.11) rotate(-70.87)"/>
  <rect class="cls-10" x="388.04" y="986.31" width="25.38" height="25.38" transform="translate(-532.82 463.21) rotate(-38.29)"/>
  <polygon class="cls-10" points="514.17 960.7 507.64 983.56 484.57 989.32 468.04 972.23 474.58 949.37 497.65 943.6 514.17 960.7"/>
  <polygon class="cls-10" points="417.02 1040.21 404.4 1074.76 380.79 1046.56 417.02 1040.21"/>
  <polygon class="cls-12" points="601.03 736.34 298.53 773.74 347.65 852.14 579.19 799.5 601.03 736.34"/>
  <rect class="cls-12" x="298.53" y="719.21" width="297.54" height="31.46"/>
  <ellipse class="cls-12" cx="330.33" cy="755.34" rx="38.61" ry="44.16"/>
  <rect class="cls-3" x="46.06" y="771.97" width="760.78" height="79.47" transform="translate(-469.53 616.92) rotate(-50.02)"/>
  <ellipse class="cls-4" cx="431" cy="824.45" rx="348.2" ry="362.88"/>
  <polygon class="cls-10" points="431.19 1112.67 436.77 1069.52 468.38 1090.09 431.19 1112.67"/>
</svg>