<?xml version="1.0" encoding="UTF-8"?>
<svg id="Layer_1" data-name="Layer 1" xmlns="http://www.w3.org/2000/svg" viewBox="0 0 3072 4096">
  <defs>
    <style>
      .cls-1 {
        fill: #279546;
      }

      .cls-2 {
        fill: #2d2d85;
      }

      .cls-2, .cls-3, .cls-4, .cls-5, .cls-6, .cls-7 {
        stroke: #231f20;
        stroke-width: 2.83px;
      }

      .cls-2, .cls-3, .cls-4, .cls-5, .cls-6, .cls-7, .cls-8 {
        stroke-miterlimit: 10;
      }

      .cls-9 {
        fill: #69461b;
      }

      .cls-3 {
        fill: #fcc195;
      }

      .cls-10 {
        fill: #63bc46;
      }

      .cls-4 {
        fill: #fed5aa;
      }

      .cls-5 {
        fill: #293690;
      }

      .cls-6 {
        fill: #4088c8;
      }

      .cls-7 {
        fill: #b285bc;
      }

      .cls-8 {
        fill: none;
        stroke: #2b3990;
        stroke-width: 141.73px;
      }

      .cls-11 {
        fill: #b8e5f5;
      }
    </style>
  </defs>
  <path class="cls-11" d="M1537.63,1992.84v631.74c351.81,0,641.31-285.18,641.31-631.74,0-346.33-289.11-631.41-640.69-631.74l-.62,631.74Z"/>
  <path class="cls-1" d="M1534.75,2016.03v-567.01c-282.07,0-514.18,255.96-514.18,567.01s232.11,567.01,514.18,567.01v-567.01Z"/>
  <circle class="cls-8" cx="1605.26" cy="2013.64" r="637.8"/>
  <ellipse class="cls-4" cx="1338.56" cy="1696.89" rx="20.77" ry="46.68" transform="translate(-584.09 709.67) rotate(-24.55)"/>
  <path class="cls-7" d="M1201.31,1650.06c-27.99,74.21,227.51,5.62,220.53-40.03-11.08-72.53-192.57-34.12-220.53,40.03Z"/>
  <path class="cls-4" d="M1332.24,1678.8c-23.49,2.73,51.19-43.65,70.65-65.85,9.51-10.85-27.45-24.59-58.32-6.83-48.96,28.16-81.94,83.98-69.05,90.76"/>
  <path class="cls-4" d="M1323.68,1772.94c-27.57,10.92-62.43-116.09-26.77-118.07,35.31-5.73,60.09,104.87,26.77,118.07Z"/>
  <path class="cls-3" d="M1419.61,1614.42c7.08,28.79,36.02,46.62,64.64,39.82,28.62-6.8,46.07-35.66,38.99-64.45-7.08-28.79-36.02-46.62-64.64-39.82s-46.07,35.66-38.99,64.45Z"/>
  <ellipse class="cls-2" cx="1465.52" cy="1603.5" rx="25.32" ry="24.59" transform="translate(-153.06 154.65) rotate(-5.74)"/>
  <path class="cls-6" d="M1490.79,1602.02c-17.71-29.15,51.78-16.84,42.85-10.19-7.32,5.44-40.9,13.39-42.85,10.19Z"/>
  <ellipse class="cls-5" cx="1236.21" cy="1714.13" rx="23.97" ry="73.41" transform="translate(-614.28 693.28) rotate(-25.32)"/>
  <ellipse class="cls-5" cx="1199.78" cy="1773.44" rx="72.93" ry="28.38"/>
  <ellipse class="cls-5" cx="1220.48" cy="1703.42" rx="28.29" ry="70.01"/>
  <ellipse class="cls-5" cx="1192.19" cy="1773.44" rx="57.55" ry="27.7" transform="translate(-823.42 1063.71) rotate(-36.69)"/>
  <ellipse class="cls-10" cx="1960.53" cy="2024.89" rx="68.52" ry="105.68" transform="translate(-821.43 1572.61) rotate(-36.69)"/>
  <path class="cls-9" d="M1433.82,2267.71h308.9c37.2,0,67.35-30.16,67.35-67.35,5.45-46.18-15.93-91.34-67.36-92.2,0,0-308.9,0-308.9,0-37.2,0-67.35,30.16-67.35,67.35-5.45,46.18,15.93,91.34,67.35,92.2Z"/>
  <ellipse class="cls-10" cx="1809.65" cy="2084.58" rx="102.19" ry="131.23"/>
  <ellipse class="cls-10" cx="1798.03" cy="2297.1" rx="99.87" ry="109.16"/>
  <ellipse class="cls-10" cx="1879.32" cy="1984.16" rx="97.55" ry="89.96"/>
  <ellipse class="cls-10" cx="1881.65" cy="2362.13" rx="146.32" ry="95.23" transform="translate(-1036.15 3141.07) rotate(-66.41)"/>
  <ellipse class="cls-10" cx="1911.84" cy="2197.84" rx="146.32" ry="213.68"/>
</svg>