<?xml version="1.0" encoding="UTF-8"?>
<svg xmlns="http://www.w3.org/2000/svg" viewBox="0 0 1276.59 1276.59">
  <defs>
    <style>
      .cls-1, .cls-2 {
        fill: #231f20;
      }

      .cls-3 {
        font-size: 264.18px;
      }

      .cls-3, .cls-4 {
        fill: #ed1c24;
      }

      .cls-3, .cls-2 {
        font-family: MyriadPro-Regular, 'Myriad Pro';
      }

      .cls-5 {
        stroke: #fff;
      }

      .cls-5, .cls-6 {
        fill: #fff;
      }

      .cls-5, .cls-6, .cls-4 {
        stroke-miterlimit: 10;
      }

      .cls-6 {
        stroke: #231f20;
      }

      .cls-7 {
        letter-spacing: 0em;
      }

      .cls-8 {
        letter-spacing: -.01em;
      }

      .cls-9 {
        letter-spacing: 0em;
      }

      .cls-10 {
        letter-spacing: 0em;
      }

      .cls-4 {
        stroke: #ed1c24;
      }

      .cls-2 {
        font-size: 6px;
      }
    </style>
  </defs>
  <g id="Layer_2" data-name="Layer 2">
    <circle class="cls-4" cx="638.3" cy="638.3" r="637.8"/>
    <circle class="cls-5" cx="638.3" cy="640.3" r="581.1"/>
    <rect class="cls-6" x="240.2" y="354.83" width="425.2" height="566.93"/>
    <rect class="cls-6" x="687.2" y="354.83" width="425.2" height="566.93"/>
  </g>
  <g id="Layer_3" data-name="Layer 3">
    <text class="cls-3" transform="translate(978.68 865.67) rotate(-89.98) scale(.83 1)"><tspan class="cls-7" x="0" y="0">c</tspan><tspan x="116.77" y="0">o</tspan><tspan class="cls-9" x="261.81" y="0">p</tspan><tspan x="410.28" y="0">y</tspan></text>
    <text class="cls-2" transform="translate(1079.26 766.5)"><tspan class="cls-8" x="0" y="0">L</tspan><tspan x="2.75" y="0">o</tspan><tspan class="cls-10" x="6.04" y="0">r</tspan><tspan x="7.94" y="0">em ipsum</tspan></text>
    <rect class="cls-1" x="534.8" y="593.8" width="70" height="1"/>
    <rect class="cls-1" x="534.8" y="611.8" width="70" height="0"/>
    <rect class="cls-1" x="575.8" y="626.8" width="29" height="0"/>
    <rect class="cls-1" x="534.8" y="626.8" width="28" height="0"/>
    <rect class="cls-1" x="534.8" y="645.8" width="70" height="0"/>
    <rect class="cls-1" x="562.8" y="661.8" width="42" height="1"/>
    <rect class="cls-1" x="534.8" y="662.8" width="19" height="0"/>
    <rect class="cls-1" x="281.8" y="678.8" width="323" height="1"/>
    <rect class="cls-1" x="281.8" y="725.3" width="323" height="1"/>
    <rect class="cls-1" x="281.8" y="629.8" width="271" height="0"/>
    <rect class="cls-1" x="281.8" y="598.8" width="208" height="1"/>
    <rect class="cls-1" x="281.8" y="567.8" width="62" height="0"/>
    <rect class="cls-1" x="281.8" y="511.8" width="135.5" height="1"/>
    <polygon class="cls-1" points="649.8 504.8 604.8 504.8 604.8 503.8 649.8 504.8 649.8 504.8"/>
    <rect class="cls-1" x="281.8" y="464.8" width="368" height="1"/>
    <rect class="cls-1" x="281.8" y="425.8" width="369" height="1"/>
    <rect class="cls-1" x="267.8" y="385.8" width="383" height="1"/>
    <rect class="cls-1" x="281.8" y="767.69" width="356.5" height="0"/>
    <rect class="cls-1" x="281.8" y="804.8" width="374" height="2"/>
    <rect class="cls-1" x="483.8" y="835.8" width="172" height="1"/>
    <rect class="cls-1" x="287.8" y="836.8" width="165" height="0"/>
    <rect class="cls-1" x="287.8" y="870.8" width="368" height="2"/>
  </g>
  <g id="Layer_4" data-name="Layer 4">
    <polygon class="cls-4" points="1123.2 1027.39 976.12 1116.34 133.01 256.65 280.09 167.7 1123.2 1027.39"/>
  </g>
</svg>