<?xml version="1.0" encoding="UTF-8"?>
<svg id="Layer_1" data-name="Layer 1" xmlns="http://www.w3.org/2000/svg" viewBox="0 0 1277.59 1277.59">
  <defs>
    <style>
      .cls-1 {
        stroke-width: 5px;
      }

      .cls-1, .cls-2, .cls-3 {
        fill: #fff;
      }

      .cls-1, .cls-2, .cls-4 {
        stroke: #231f20;
        stroke-miterlimit: 10;
      }

      .cls-5 {
        fill: #fff200;
      }

      .cls-2, .cls-4 {
        stroke-width: 2px;
      }

      .cls-6 {
        fill: #231f20;
      }

      .cls-7 {
        fill: #662d91;
      }

      .cls-8 {
        fill: #27aae1;
      }

      .cls-4, .cls-9 {
        fill: #ed1c24;
      }

      .cls-10 {
        fill: #fbb040;
      }
    </style>
  </defs>
  <circle class="cls-4" cx="638.8" cy="638.8" r="637.8"/>
  <ellipse class="cls-2" cx="638.8" cy="638.8" rx="494.48" ry="518.84"/>
  <polygon class="cls-9" points="116.07 936.96 997.57 189.85 1113.76 340.78 232.27 1087.9 116.07 936.96"/>
  <rect class="cls-1" x="389.04" y="455.3" width="491.24" height="288.03"/>
  <rect class="cls-2" x="638.8" y="743.34" height="26"/>
  <rect class="cls-1" x="587.2" y="743.34" width="94.95" height="60.65"/>
  <rect class="cls-1" x="535.6" y="803.98" width="198.15" height="28.14"/>
  <ellipse class="cls-3" cx="456.7" cy="568.78" rx="52.63" ry="55.23"/>
  <ellipse class="cls-3" cx="426.78" cy="607.19" rx="22.71" ry="61.16"/>
  <ellipse class="cls-10" cx="715.68" cy="605.52" rx="81.02" ry="85.01"/>
  <polygon class="cls-3" points="844.67 677.17 696.38 608.4 811.74 510.61 844.67 677.17"/>
  <ellipse class="cls-7" cx="449.49" cy="601.77" rx="49.48" ry="56.56"/>
  <ellipse class="cls-7" cx="414.44" cy="631.33" rx="13.63" ry="37.43"/>
  <ellipse class="cls-7" cx="435.87" cy="639.2" rx="13.63" ry="37.43"/>
  <ellipse class="cls-7" cx="463.12" cy="639.2" rx="13.63" ry="37.43"/>
  <ellipse class="cls-7" cx="484.19" cy="631.33" rx="13.63" ry="37.43"/>
  <ellipse class="cls-3" cx="435.87" cy="593.88" rx="15.5" ry="16.26"/>
  <ellipse class="cls-3" cx="476.74" cy="593.88" rx="15.5" ry="16.26"/>
  <ellipse class="cls-6" cx="444.66" cy="593.88" rx="11.07" ry="11.62"/>
  <ellipse class="cls-6" cx="484.19" cy="593.88" rx="11.07" ry="11.62"/>
  <ellipse class="cls-8" cx="563.45" cy="596.29" rx="51.48" ry="54.02"/>
  <ellipse class="cls-8" cx="525.24" cy="638.8" rx="12.5" ry="33.26"/>
  <ellipse class="cls-8" cx="550.24" cy="644.79" rx="12.5" ry="33.26"/>
  <ellipse class="cls-8" cx="573.18" cy="644.79" rx="12.5" ry="33.26"/>
  <ellipse class="cls-8" cx="601.25" cy="638.8" rx="12.5" ry="33.26"/>
  <ellipse class="cls-3" cx="549.36" cy="591.69" rx="11.62" ry="17.82"/>
  <ellipse class="cls-3" cx="585.69" cy="591.69" rx="11.62" ry="17.82"/>
  <ellipse class="cls-6" cx="560.98" cy="591.69" rx="8.87" ry="9.31"/>
  <ellipse class="cls-6" cx="596.59" cy="591.69" rx="8.87" ry="9.31"/>
  <ellipse class="cls-5" cx="819.7" cy="658.33" rx="16.78" ry="17.61"/>
</svg>