<?xml version="1.0" encoding="UTF-8"?>
<svg id="Layer_1" data-name="Layer 1" xmlns="http://www.w3.org/2000/svg" viewBox="0 0 1317.59 1600">
  <defs>
    <style>
      .cls-1 {
        fill: #fabdb5;
      }

      .cls-2, .cls-3, .cls-4, .cls-5, .cls-6, .cls-7 {
        stroke-miterlimit: 10;
      }

      .cls-2, .cls-8 {
        fill: #51121c;
      }

      .cls-2, .cls-4 {
        stroke: #231f20;
      }

      .cls-3 {
        fill: #ac5547;
        stroke-width: 4px;
      }

      .cls-3, .cls-5, .cls-6, .cls-7 {
        stroke: #51121c;
      }

      .cls-9 {
        fill: #c29baf;
      }

      .cls-4 {
        fill: #b1101e;
      }

      .cls-5 {
        stroke-width: 5px;
      }

      .cls-5, .cls-10 {
        fill: #f1e3e7;
      }

      .cls-6 {
        stroke-width: 3px;
      }

      .cls-6, .cls-7 {
        fill: none;
      }

      .cls-7 {
        stroke-width: 42px;
      }
    </style>
  </defs>
  <path class="cls-4" d="M1284.76,844.35c-.01,344.93-280.68,624.47-625.97,624.55-345.71.08-625.97-279.62-625.97-624.55S313.08,219.8,658.8,219.8s625.98,279.62,625.97,624.55Z"/>
  <polygon class="cls-8" points="51.69 1083.42 224.95 1293.28 1240.56 545.81 1067.31 335.94 51.69 1083.42"/>
  <polygon class="cls-10" points="334.45 1410.54 1008.97 1395.23 930.78 986.44 420.04 993.64 334.45 1410.54"/>
  <polygon class="cls-10" points="765.05 1015.84 578.57 1009.69 601.26 855.56 741.73 852.94 765.05 1015.84"/>
  <polygon class="cls-10" points="914.39 1026.01 753.55 1026.01 753.55 944.78 930.78 986.44 914.39 1026.01"/>
  <polygon class="cls-10" points="471.72 1163.32 592.66 1163.32 611.93 946.13 420.04 993.64 471.72 1163.32"/>
  <path class="cls-10" d="M999.98,1360.2c0,55.8-213.41,128.83-336.55,128.83s-319.45-50.14-319.45-105.95,218.08-155.86,341.21-155.86,314.79,77.17,314.79,132.98Z"/>
  <path class="cls-7" d="M1296.59,844.35c-.01,348.44-285.99,630.82-637.8,630.9-352.24.09-637.8-282.46-637.8-630.9S306.55,213.45,658.8,213.45s637.81,282.46,637.8,630.9Z"/>
  <polygon class="cls-9" points="751.65 921.41 591.78 921.51 596.2 836.07 742.32 844.85 751.65 921.41"/>
  <path class="cls-9" d="M751.65,923.16c0,9.37-34.31,15.3-78.98,15.3s-80.89-7.59-80.89-16.96,36.68-69.5,81.36-69.5,78.51,61.79,78.51,71.16Z"/>
  <path class="cls-5" d="M902.83,596.35c0,142.95-115.75,273.25-250.52,273.25s-237.54-130.3-237.54-273.25,109.26-258.84,244.03-258.84,244.03,115.89,244.03,258.84Z"/>
  <ellipse class="cls-2" cx="658.8" cy="746.21" rx="143.38" ry="102.86"/>
  <polygon class="cls-10" points="748.94 743.18 731.25 650.73 822.13 681.77 748.94 743.18"/>
  <polygon class="cls-10" points="564.93 743.18 494.1 683.74 587.76 650.73 564.93 743.18"/>
  <ellipse class="cls-8" cx="763.98" cy="563.14" rx="36.93" ry="60.51"/>
  <polygon class="cls-10" points="691.18 726.05 631.31 619.79 754.39 665.21 691.18 726.05"/>
  <polygon class="cls-10" points="621.41 726.05 559 665.21 679.22 629.41 621.41 726.05"/>
  <ellipse class="cls-6" cx="658.8" cy="746.21" rx="143.38" ry="102.86"/>
  <path class="cls-3" d="M615.39,747.38l-348.32,259.38,28.25,19.38,334.03-258.76c6.47-3.98,8.8-7.99,3.57-15.56l-.11-.62c-4.11-5.96-12.34-6.96-17.42-3.83Z"/>
  <path class="cls-8" d="M507.69,812.13c1.15,28.58-20.81,51.82-46,52.72-25.19.91-71.99-41.51-73.14-70.09-1.15-28.58,27.64-34.71,52.83-35.62s65.16,24.41,66.31,52.99Z"/>
  <path class="cls-8" d="M333.69,991.56c10.27,22.5-.12,47.03-23.94,56.73-23.83,9.7-51.47-.68-61.75-23.18-10.27-22.5.72-48.6,24.55-58.3,23.83-9.7,50.87,2.25,61.14,24.75Z"/>
  <path class="cls-10" d="M499.82,816.8c0,24.54-17.72,41.6-45.26,41.6s-52.76-22.78-52.76-47.32,25.93-37.73,53.47-37.73,44.55,18.91,44.55,43.45Z"/>
  <path class="cls-10" d="M498.88,808.88c-2.04-17.17-15.22-38.8-66.18-42.76-62.1-4.83-118.07,62.93-111.51,86.78,5.1,18.56,29.35-15.77,81.86-15.77s98.1-9.19,95.83-28.25Z"/>
  <path class="cls-8" d="M482.23,842.93c1.15,28.58-21.79,48.2-46.98,49.11-25.19.91-46.55-21.52-47.7-50.1s25.28-48.85,50.48-49.76c25.19-.91,43.05,22.17,44.21,50.75Z"/>
  <path class="cls-10" d="M468.68,815.87c15.49,25.34,2.42,55.95-20.24,68.3-22.66,12.35-53.59,1.83-69.08-23.51-15.49-25.34-9.68-55.89,12.98-68.24,22.66-12.35,60.86-1.89,76.35,23.45Z"/>
  <path class="cls-8" d="M434.89,866.68c1.32,32.81-22.46,55.48-53.93,56.61-31.47,1.13-58.06-24.55-59.38-57.35-1.32-32.81,23.79-48.93,55.26-50.07,31.47-1.13,56.73,18,58.06,50.81Z"/>
  <path class="cls-10" d="M426.5,869.61c1.32,32.81-24.35,47.23-55.83,48.36-31.47,1.13-50.62-20.32-51.95-53.12-1.32-32.81,20.48-50.12,51.95-51.25,31.47-1.13,54.5,23.21,55.83,56.02Z"/>
  <ellipse class="cls-8" cx="557.05" cy="563.14" rx="36.93" ry="60.51"/>
  <path class="cls-1" d="M266.77,976.94c-31.26,6.45-53.36,29.36-49.36,51.17,4,21.81,32.59,34.25,63.85,27.8,31.26-6.45,44.97-26.02,40.97-47.83-4-21.81-24.2-37.59-55.46-31.14Z"/>
  <ellipse class="cls-8" cx="260.17" cy="982.77" rx="32.33" ry="11.95" transform="translate(-196.5 74.48) rotate(-11.86)"/>
  <ellipse class="cls-1" cx="282.65" cy="1015.88" rx="40.72" ry="31.11" transform="translate(-771.54 992.11) rotate(-73.16)"/>
  <path class="cls-8" d="M259.22,985.28c3.01,7.39-11.26,29.46-24.22,35.07-12.96,5.61-23.18,9-26.19,1.6-3.01-7.39,7.75-30.18,20.71-35.78,12.96-5.61,26.69-8.28,29.7-.89Z"/>
  <polygon class="cls-8" points="373.03 1009.47 367.59 1013.47 302.26 934.33 307.69 930.34 373.03 1009.47"/>
  <polygon class="cls-8" points="379.75 996.96 375.17 1000.33 309.84 921.19 314.42 917.83 379.75 996.96"/>
  <polygon class="cls-8" points="298.09 1039.98 313.87 985.84 325.84 997.18 298.09 1039.98"/>
</svg>