<?xml version="1.0" encoding="UTF-8"?>
<svg id="Layer_1" data-name="Layer 1" xmlns="http://www.w3.org/2000/svg" viewBox="0 0 2006.37 1379.38">
  <defs>
    <style>
      .cls-1, .cls-2 {
        fill: #231f20;
      }

      .cls-2 {
        stroke: #231f20;
      }

      .cls-2, .cls-3 {
        stroke-miterlimit: 10;
      }

      .cls-3 {
        fill: none;
        stroke: #ee2424;
        stroke-width: 101px;
      }
    </style>
  </defs>
  <polygon class="cls-2" points="1514.11 1067.44 1394.36 1114.96 1356.46 939.23 1483.79 895.17 1514.11 1067.44"/>
  <path class="cls-1" d="M637.13,1006.86c-48.01,127.24,115.03-96.69,216.92-94.82,61.11,1.12,110.67-104.93,110.67-234.37s59.35-246.89-1.77-246.89-280.19,455.14-325.82,576.09Z"/>
  <path class="cls-1" d="M1334.17,1090.81c0,31.94-196.9,10.43-394.5,10.43s-357.78-25.89-357.78-57.84,167.29-81.54,364.89-81.54,387.39,97,387.39,128.95Z"/>
  <ellipse class="cls-1" cx="769.37" cy="944.64" rx="74.18" ry="122.79"/>
  <ellipse class="cls-1" cx="859.56" cy="939.34" rx="66.69" ry="128.1"/>
  <path class="cls-1" d="M766.59,901.68c0,44.09,35.74,79.83,79.83,79.83s71.4-33.72,71.4-77.81,36.48-99.5-7.61-99.5-143.63,53.39-143.63,97.48Z"/>
  <path class="cls-1" d="M755.72,893.25c0,43.87,76.35,79.44,170.53,79.44s170.53-35.57,170.53-79.44-199.94-122.89-185.41-51.6c17.89,87.81-155.64,7.73-155.64,51.6Z"/>
  <ellipse class="cls-1" cx="934.04" cy="977.79" rx="29.26" ry="55.69"/>
  <path class="cls-1" d="M1046.66,1061.34c3.1,33.46-56.46-21.15-98.53,13.64-17.23,14.25-43.36-5.79-43.36-44.72s18.12-70.48,40.48-70.48,97.82,62.8,101.41,101.56Z"/>
  <path class="cls-1" d="M976.77,799.25c82.07,115.21,20.64,159.49-62.71,45.2-82.07-115.21-20.64-159.48,62.71-45.2Z"/>
  <path class="cls-1" d="M1000.11,667.85c19.39-29.83,39.67-51.05,15.69-66.63-23.98-15.58-59.13-4.03-78.52,25.8s-15.67,66.65,8.31,82.23c23.98,15.58,35.13-11.56,54.52-41.4Z"/>
  <path class="cls-1" d="M834.02,814.98c14.74,31.46,110.29-65.25,111.32-23.85,5.1,204.08,136.19-62.17,121.45-93.63-14.74-31.46-154.05,11.12-191.55,28.69-37.51,17.58-55.96,57.33-41.22,88.78Z"/>
  <path class="cls-1" d="M1104.84,980.05c48.51,21.22-8.96,67.96-47.74,67.96s-70.22-31.44-70.22-70.22,59.47-94.75,98.26-94.75-15.82,81.47,19.71,97.01Z"/>
  <path class="cls-1" d="M1029.06,822.44c-.17,28.65,68.6,60.6,53.05,60.6s-109.36-25.02-109.36-60.6-8.45-51.37,0-64.42c84.91-131.06,56.62,10.96,56.3,64.42Z"/>
  <path class="cls-1" d="M1066.79,697.5c0,16.5-48.48,24.1-59.76,24.1s-20.42-13.38-20.42-29.88,33.74-66.28,33.74-55c0,63.11,46.43,44.28,46.43,60.78Z"/>
  <path class="cls-1" d="M1008.51,597.44c32.05,34.86-28.78,92.25-39.5,92.25s-19.42-38.99-19.42-87.09,8.69-87.09,19.42-87.09,6.95,46.51,39.5,81.92Z"/>
  <polygon class="cls-3" points="1146.47 205.36 517.42 1102.71 1775.53 1102.71 1146.47 205.36"/>
  <polygon class="cls-1" points="1255.66 987.63 1113 861.19 1202.09 817.17 1302.52 909.55 1255.66 987.63"/>
  <polygon class="cls-1" points="1300.76 911.1 1200.34 818.72 1249.6 725.4 1372.38 857.27 1300.76 911.1"/>
  <polygon class="cls-1" points="1275 924.09 1174.57 831.71 1223.83 738.39 1346.61 870.26 1275 924.09"/>
  <polygon class="cls-1" points="1307.68 887.01 1213.12 788.63 1120.9 839.93 1255.43 959.79 1307.68 887.01"/>
  <rect class="cls-2" x="1116.97" y="602.61" width="93.98" height="129.99"/>
  <rect class="cls-2" x="1116.97" y="589.04" width="83.37" height="129.99"/>
  <polygon class="cls-2" points="1011.98 569.69 1085.58 565.14 1156.83 434.78 1087.1 422.66 1011.98 569.69"/>
  <polygon class="cls-2" points="1011.98 569.69 1078.26 565.6 1144.54 416.6 1087.1 422.66 1011.98 569.69"/>
</svg>