<?xml version="1.0" encoding="UTF-8"?>
<svg id="Layer_1" data-name="Layer 1" xmlns="http://www.w3.org/2000/svg" viewBox="0 0 1687.26 1234.15">
  <defs>
    <style>
      .cls-1 {
        fill: #fff;
        stroke: #000;
      }

      .cls-1, .cls-2, .cls-3 {
        stroke-miterlimit: 10;
      }

      .cls-4, .cls-2 {
        fill: #231f20;
      }

      .cls-2 {
        stroke: #231f20;
      }

      .cls-3 {
        fill: none;
        stroke: #ee2424;
        stroke-width: 101px;
      }
    </style>
  </defs>
  <polygon class="cls-1" points="841.77 68.42 1553.35 1176.71 125.34 1169.24 841.77 68.42"/>
  <polygon class="cls-2" points="1280.75 1140.64 1138.37 1198.59 1093.3 984.31 1244.7 930.59 1280.75 1140.64"/>
  <path class="cls-4" d="M238.03,1066.78c-57.08,155.15,136.77-117.9,257.92-115.62,72.66,1.37,131.59-127.94,131.59-285.77s70.57-301.04-2.1-301.04-333.14,554.96-387.4,702.44h0Z"/>
  <path class="cls-4" d="M1066.8,1169.14c0,38.95-234.11,12.72-469.06,12.72s-425.4-31.57-425.4-70.53,198.91-99.42,433.85-99.42,460.6,118.27,460.6,157.23h0Z"/>
  <ellipse class="cls-4" cx="395.26" cy="990.91" rx="88.2" ry="149.72"/>
  <ellipse class="cls-4" cx="502.49" cy="984.45" rx="79.29" ry="156.2"/>
  <path class="cls-4" d="M391.95,938.53c0,53.76,42.49,97.34,94.92,97.34s84.89-41.12,84.89-94.88,43.37-121.32-9.05-121.32-170.77,65.1-170.77,118.86h.01Z"/>
  <path class="cls-4" d="M379.03,928.25c0,53.49,90.78,96.86,202.76,96.86s202.76-43.37,202.76-96.86-237.73-149.84-220.45-62.92c21.27,107.07-185.05,9.43-185.05,62.92h-.01Z"/>
  <ellipse class="cls-4" cx="591.05" cy="1031.33" rx="34.79" ry="67.9"/>
  <path class="cls-4" d="M724.95,1133.21c3.69,40.8-67.13-25.79-117.15,16.63-20.49,17.38-51.55-7.06-51.55-54.53s21.54-85.94,48.13-85.94,116.31,76.57,120.58,123.83h0Z"/>
  <path class="cls-4" d="M641.85,813.63c97.58,140.48,24.54,194.47-74.56,55.11-97.58-140.48-24.54-194.46,74.56-55.11Z"/>
  <path class="cls-4" d="M669.61,653.41c23.05-36.37,47.17-62.25,18.66-81.24-28.51-19-70.31-4.91-93.36,31.46s-18.63,81.27,9.88,100.27c28.51,19,41.77-14.1,64.82-50.48h0Z"/>
  <path class="cls-4" d="M472.13,832.81c17.53,38.36,131.13-79.56,132.36-29.08,6.06,248.84,161.93-75.81,144.4-114.17s-183.16,13.56-227.75,34.98c-44.6,21.44-66.54,69.9-49.01,108.25h0Z"/>
  <path class="cls-4" d="M794.13,1034.09c57.68,25.87-10.65,82.87-56.76,82.87s-83.49-38.34-83.49-85.62,70.71-115.53,116.83-115.53-18.81,99.34,23.43,118.29h-.01Z"/>
  <path class="cls-4" d="M704.03,841.91c-.2,34.93,81.56,73.89,63.08,73.89s-130.03-30.51-130.03-73.89-10.05-62.64,0-78.55c100.96-159.8,67.32,13.36,66.94,78.55h.01Z"/>
  <path class="cls-4" d="M748.89,689.57c0,20.12-57.64,29.39-71.05,29.39s-24.28-16.31-24.28-36.43,40.12-80.82,40.12-67.06c0,76.95,55.2,53.99,55.2,74.11h.01Z"/>
  <path class="cls-4" d="M679.59,567.56c38.11,42.51-34.22,112.48-46.97,112.48s-23.09-47.54-23.09-106.19,10.33-106.19,23.09-106.19,8.26,56.71,46.97,99.89h0Z"/>
  <polygon class="cls-3" points="843.63 89.49 95.69 1183.65 1591.57 1183.65 843.63 89.49"/>
  <polygon class="cls-4" points="973.45 1043.33 803.83 889.16 909.76 835.48 1029.17 948.12 973.45 1043.33"/>
  <polygon class="cls-4" points="1027.08 950.01 907.68 837.37 966.25 723.59 1112.23 884.38 1027.08 950.01"/>
  <polygon class="cls-4" points="996.45 965.85 877.04 853.21 935.61 739.42 1081.59 900.22 996.45 965.85"/>
  <polygon class="cls-4" points="1035.3 920.64 922.87 800.68 813.22 863.24 973.18 1009.38 1035.3 920.64"/>
  <rect class="cls-2" x="808.55" y="573.86" width="111.74" height="158.5"/>
  <rect class="cls-2" x="808.55" y="557.32" width="99.13" height="158.5"/>
  <polygon class="cls-2" points="683.72 533.72 771.23 528.18 855.94 369.23 773.04 354.45 683.72 533.72"/>
  <polygon class="cls-2" points="683.72 533.72 762.53 528.74 841.33 347.06 773.04 354.45 683.72 533.72"/>
</svg>