<?xml version="1.0" encoding="UTF-8"?>
<svg id="Layer_1" data-name="Layer 1" xmlns="http://www.w3.org/2000/svg" viewBox="0 0 1604.91 1293.94">
  <defs>
    <style>
      .cls-1 {
        stroke-width: 36px;
      }

      .cls-1, .cls-2, .cls-3, .cls-4, .cls-5, .cls-6, .cls-7, .cls-8 {
        stroke-miterlimit: 10;
      }

      .cls-1, .cls-6 {
        stroke: #aed475;
      }

      .cls-1, .cls-6, .cls-9 {
        fill: #aed475;
      }

      .cls-2 {
        stroke: #6fbe44;
      }

      .cls-2, .cls-4, .cls-10, .cls-5 {
        fill: #6fbe44;
      }

      .cls-2, .cls-4, .cls-7 {
        stroke-width: 7px;
      }

      .cls-11 {
        fill: #231f20;
      }

      .cls-12, .cls-3 {
        fill: #fff;
      }

      .cls-3, .cls-4, .cls-5, .cls-7 {
        stroke: #231f20;
      }

      .cls-5 {
        stroke-width: 3px;
      }

      .cls-7, .cls-8 {
        fill: none;
      }

      .cls-8 {
        stroke: #ed1c24;
        stroke-width: 70px;
      }
    </style>
  </defs>
  <polygon class="cls-3" points="1481.13 1279.91 205.54 1283.48 844.2 14.93 1481.13 1279.91"/>
  <rect class="cls-12" x="549.33" y="1119.2" width="535.1" height="120.44"/>
  <polygon class="cls-12" points="1404.92 1225.87 1041.55 1227.69 622.01 462.16 936.42 284.28 1404.92 1225.87"/>
  <polygon class="cls-12" points="309.34 1226.13 656.86 1231.38 1025.44 462.8 842.56 131.68 309.34 1226.13"/>
  <rect class="cls-1" x="626.06" y="718" width="408.49" height="227.89"/>
  <ellipse class="cls-4" cx="641.58" cy="733.56" rx="33.44" ry="34.73"/>
  <ellipse class="cls-4" cx="641.58" cy="928.06" rx="33.44" ry="34.73"/>
  <ellipse class="cls-4" cx="1018.66" cy="928.06" rx="33.44" ry="34.73"/>
  <ellipse class="cls-4" cx="1018.66" cy="733.56" rx="33.44" ry="34.73"/>
  <rect class="cls-4" x="608.52" y="698.84" width="46.86" height="263.95"/>
  <rect class="cls-4" x="1005.23" y="698.84" width="46.86" height="263.95"/>
  <rect class="cls-4" x="805.98" y="501.39" width="48.67" height="443.57" transform="translate(1553.48 -107.14) rotate(90)"/>
  <rect class="cls-4" x="805.98" y="716.66" width="48.67" height="443.57" transform="translate(1768.76 108.14) rotate(90)"/>
  <ellipse class="cls-2" cx="645.92" cy="741.52" rx="20.9" ry="17.73" transform="translate(-181.8 210.54) rotate(-16.26)"/>
  <path class="cls-2" d="M1023.59,728.96c8.14,8.46,9.32,20.94,2.64,27.88-6.68,6.94-18.7,5.71-26.84-2.74-8.14-8.46-9.32-20.94-2.64-27.88,6.68-6.94,18.7-5.71,26.84,2.74Z"/>
  <path class="cls-2" d="M665.44,913.99c5.76,10.36,3.79,22.73-4.39,27.64-8.18,4.91-19.49.49-25.24-9.87-5.76-10.36-3.79-22.73,4.39-27.64s19.49-.49,25.24,9.87Z"/>
  <path class="cls-2" d="M1005.38,902.97c10.81-5.32,23.05-2.03,27.34,7.36,4.29,9.39-1,21.32-11.82,26.65-10.81,5.32-23.05,2.03-27.34-7.36-4.29-9.39,1-21.32,11.82-26.65Z"/>
  <rect class="cls-2" x="615.66" y="733.56" width="19.81" height="32.74"/>
  <rect class="cls-2" x="615.66" y="903.61" width="19.81" height="32.74"/>
  <rect class="cls-2" x="1025.44" y="893.33" width="19.81" height="32.74"/>
  <rect class="cls-2" x="1025.44" y="733.56" width="19.81" height="32.74"/>
  <polygon class="cls-8" points="1416.55 1249.27 272.89 1247.18 843.32 96.58 1416.55 1249.27"/>
  <rect class="cls-1" x="640.99" y="785.38" width="449.98" height="248.64"/>
  <rect class="cls-1" x="637.14" y="787.17" width="449.98" height="248.64"/>
  <rect class="cls-1" x="676.84" y="785.6" width="418.78" height="248.42"/>
  <rect class="cls-1" x="675.27" y="785.6" width="418.78" height="248.42"/>
  <ellipse class="cls-4" cx="673.13" cy="805.84" rx="36.16" ry="36.74"/>
  <ellipse class="cls-4" cx="673.13" cy="1011.61" rx="36.16" ry="36.74"/>
  <ellipse class="cls-4" cx="1080.92" cy="1011.61" rx="36.16" ry="36.74"/>
  <ellipse class="cls-4" cx="1080.92" cy="805.84" rx="36.16" ry="36.74"/>
  <rect class="cls-4" x="637.38" y="769.1" width="50.68" height="279.25"/>
  <rect class="cls-4" x="1066.4" y="769.1" width="50.68" height="279.25"/>
  <rect class="cls-4" x="851.48" y="554.99" width="51.49" height="479.7" transform="translate(1672.07 -82.38) rotate(90)"/>
  <rect class="cls-4" x="851.48" y="782.76" width="51.49" height="479.7" transform="translate(1899.83 145.38) rotate(90)"/>
  <ellipse class="cls-2" cx="676.84" cy="816.13" rx="22.57" ry="18.79" transform="translate(-181.72 193.99) rotate(-14.4)"/>
  <ellipse class="cls-2" cx="1073.17" cy="814.26" rx="18.65" ry="22.73" transform="translate(-267.79 942.84) rotate(-42.67)"/>
  <ellipse class="cls-2" cx="682.9" cy="1006.13" rx="18.57" ry="22.82" transform="translate(-392.96 439.41) rotate(-28.06)"/>
  <ellipse class="cls-2" cx="1074.96" cy="1003.06" rx="23.51" ry="19.85" transform="translate(-341.56 609.16) rotate(-27.48)"/>
  <rect class="cls-2" x="645.09" y="805.84" width="21.43" height="34.64"/>
  <rect class="cls-2" x="645.09" y="985.75" width="21.43" height="34.64"/>
  <rect class="cls-2" x="1088.25" y="974.87" width="21.43" height="34.64"/>
  <rect class="cls-2" x="1088.25" y="805.84" width="21.43" height="34.64"/>
  <polygon class="cls-7" points="1474.51 1285.51 212.98 1279.5 843.59 7.89 1474.51 1285.51"/>
  <polygon class="cls-7" points="1359.59 1215.77 328.16 1214.79 840.01 174.97 1359.59 1215.77"/>
  <path class="cls-4" d="M858.58,876.02c4.42,34.16,76.31,45.95,41.87,40.11-34.8-5.9-59.73-16.41-57.05-40.59,2.95-26.6,28.4-29.16,60.44-26.43,30.61,2.61-49.25-3.89-45.26,26.91Z"/>
  <path class="cls-4" d="M905.22,938.92c-4.21-32.99-72.72-44.37-39.9-38.73,33.16,5.7,56.91,15.85,54.36,39.2-2.81,25.68-35.06,31.55-66.35,25.56-28.9-5.53,55.69,3.72,51.89-26.03Z"/>
  <path class="cls-11" d="M900.4,934.97c-1.56,2.74-7.55-9.02-17.18-14.67-9.62-5.65-20.07-7-18.52-9.74s13.08-2.88,22.71,2.77c9.62,5.65,14.55,18.9,12.99,21.64Z"/>
  <path class="cls-6" d="M900.68,932.04c8.59,21.82-19.32,14.34-28.34,14.34s-16.33-7.43-16.33-16.59-.48-18.3,8.53-18.3,32.79,12.04,36.13,20.55Z"/>
  <path class="cls-6" d="M884.47,922.77c-1.63,3.82-17.91,4.68-27.77.33-9.86-4.35-16.54-10.97-14.91-14.79,1.63-3.82,12.96-1.87,22.92,2.26,12.59,5.22,21.4,8.39,19.76,12.2Z"/>
  <path class="cls-11" d="M904.64,912.4c0,9.43-11.71-4.67-20.18-4.67s-18.47-4.98-18.47-14.41-.48-3.96,6.31,1.2c8.4,6.38,32.35,8.44,32.35,17.87Z"/>
  <polygon class="cls-11" points="875.67 859.92 882.61 844.8 921.36 844.8 921.36 859.92 875.67 859.92"/>
  <path class="cls-11" d="M896.53,852.71c3.46,6.8-9.27,4.64-28.23,8.89-10.73,2.41-17.68,21.39-21.14,14.59-3.46-6.8,2.71-17.03,13.78-22.86,11.07-5.82,32.13-7.42,35.59-.62Z"/>
  <polygon class="cls-11" points="885.7 955.22 878.76 970.34 840.01 970.34 840.01 955.22 885.7 955.22"/>
  <path class="cls-11" d="M855.63,961.32c-2.61-7.18,11.57-.06,30.06-6.1,12.82-4.19,22.53-18.77,25.15-11.59s-8.11,17.15-19.81,21.54c-11.7,4.39-32.79,3.33-35.4-3.85Z"/>
  <path class="cls-10" d="M908.18,923.62c-4,8.07-7.5-5.42-29.02-13.92-18.61-7.35-34.46-17.27-30.46-25.33s8.63,7.72,25.14,17.76c17.14,10.41,38.34,13.43,34.34,21.5Z"/>
  <path class="cls-10" d="M912.77,923.93c6.9,10.52,2.63,24.6-4.28,29.28-6.9,4.68,3.04-14.64-3.86-25.16-6.9-10.52-34.56-20.44-26.27-20.72,12.5-.42,27.5,6.07,34.41,16.59Z"/>
  <path class="cls-10" d="M879.94,904.6c10.37,3.57,20.22,3.99,17.94,10.84-2.28,6.85-10.68-2.17-21.05-5.74-10.37-3.57-20.34-5.14-18.06-11.98,2.28-6.85,10.8,3.32,21.17,6.88Z"/>
  <path class="cls-10" d="M899.99,962.5c-8.98,2.97-32.72,3.88-27-.64,6.78-5.36,19.24.16,28.23-2.8,8.98-2.97,13.44-24.94,15.68-17.93,2.24,7-7.92,18.41-16.91,21.38Z"/>
  <path class="cls-10" d="M918.29,936.24c0,11.69-8.29,22.18-15.99,22.18s6.37-8.28,6.37-19.97-14.07-22.36-6.37-22.36,15.99,8.46,15.99,20.15Z"/>
  <path class="cls-9" d="M873.34,955.9c-12.12.49-46.9,1.27-47.01-1.75s33.46-9.29,45.58-9.78,23.45,3.43,23.57,6.45-10.02,4.59-22.13,5.08Z"/>
  <path class="cls-10" d="M876.83,904.12c11.57,5.92,23.95,6.97,21.69,11.53-2.26,4.56-10.12-.03-21.69-5.95-11.57-5.92-21.2-11.81-18.94-16.37,2.26-4.56,7.38,4.87,18.94,10.79Z"/>
  <path class="cls-10" d="M906.64,958.42c-12.88,7.34-26.58,6.19-29.81,2.9s14.5,2.11,23.85-7.39c9.35-9.5,11.18-20.97,14.41-17.69s3.08,15.6-8.45,22.18Z"/>
  <path class="cls-10" d="M856.82,877.69c0,17.06,17,27.17,9.97,27.17s-22.59-9.93-22.59-26.99,16.73-25.46,23.75-25.46-11.13,8.22-11.13,25.29Z"/>
  <path class="cls-10" d="M893.33,961.4c-13.05,2.12-20.57,3.59-27.35,1.39-6.03-1.95,11.56-2.24,24.61-4.37s15.1-13.77,16.1-7.42c1,6.35-.3,8.28-13.35,10.4Z"/>
  <path class="cls-10" d="M887.82,965.69c-9.17,1.03-14.67-1.86-23.28-3.42-7.84-1.42,18.48-3.03,27.65-4.06,9.17-1.03,21.65-16.21,19.85-8.33-1.92,8.41-15.06,14.78-24.22,15.81Z"/>
  <path class="cls-10" d="M907.07,916.53c8.27,8.4,10.51,19.75,5,25.35s-1.5-8.93-9.77-17.33c-8.27-8.4-13.14-12.15-23.15-14.85-7.53-2.03,19.64-1.57,27.91,6.83Z"/>
  <path class="cls-10" d="M907.2,939.53c0-17.06-27.52-29.83-20.49-29.83s28.38,3.86,28.38,20.92-13.99,32.16-21.02,32.16,13.13-6.19,13.13-23.25Z"/>
  <path class="cls-10" d="M907.07,916.53c7.8,8.86,9.65,19.84,3.84,25.11-5.81,5.27-1.01-9-8.8-17.86-7.8-8.86-9.65-13.85-19.49-17.12-7.4-2.46,16.66,1,24.45,9.86Z"/>
  <rect class="cls-10" x="859.01" y="945" width="6.23" height="35.75" transform="translate(1825 100.74) rotate(90)"/>
  <path class="cls-10" d="M860.53,864.67c-5.86,6.5-11.81,17.97-15.49,14.54s.74-17.39,7.9-22.37c9.19-6.39,24.8-9.83,28.48-6.39s-15.03,7.73-20.89,14.23Z"/>
  <path class="cls-10" d="M913.98,919.98c8.51,8.29,6.52,25.84.33,32.39-6.19,6.55,2.87-23.19-5.64-31.48-8.51-8.29-26.4-5.69-27.17-9.81-1.66-8.92,23.97.61,32.48,8.9Z"/>
  <path class="cls-9" d="M893.81,952.86c-6.28,3.09-23.23,3.99-25.14-.04s11.92-11.45,18.2-14.54,13.99-3.89,15.91.13c1.92,4.03-2.69,11.36-8.97,14.45Z"/>
  <path class="cls-10" d="M911.71,955.87c-7.06,7.43-24.98,10.57-33.2,10.6s20.6-8.17,27.66-15.6c7.06-7.43,4.49-28.58,10.37-22.82,5.88,5.76,2.24,20.38-4.82,27.82Z"/>
  <path class="cls-10" d="M880.92,856.92c-7.37.48-13.93,3.79-14.24-1.1-.31-4.89,5-3.71,12.37-4.2s20.88-3.18,21.2,1.71-11.95,3.1-19.32,3.59Z"/>
  <path class="cls-10" d="M865.85,967.29c-6.44.46-12.19-2.56-16.7-4.05-3.99-1.32,8.84-.05,15.28-.51,6.44-.46,27.92-5.16,28.26-.35s-20.4,4.45-26.84,4.92Z"/>
  <path class="cls-9" d="M903.46,938.89c0,6.11-3.56,10.62-7.99,10.62s-8.03-4.95-8.03-11.06,1.62-13.19,6.05-13.19,9.97,7.52,9.97,13.63Z"/>
  <path class="cls-10" d="M879.75,966.45c-6.28,0-13.47,1.84-13.77-2.58-.3-4.42,6.56-1.7,12.79-2.13s27.58-7.74,27.88-3.32-20.65,8.03-26.9,8.03Z"/>
  <polygon class="cls-10" points="844.39 966.96 844.39 959.76 867.64 959.76 867.64 967.18 844.39 966.96"/>
  <polygon class="cls-11" points="867.67 967.36 867.67 970.08 860.77 970.06 860.66 967.12 867.67 967.36"/>
  <rect class="cls-10" x="843.53" y="959.76" width="2.6" height="7.2"/>
  <path class="cls-10" d="M854.7,886.99c1.27,4.37,6.96,14.11,4.2,14.94s-11.39-7.16-13.31-11.46-3.31-10.43-.55-11.25c2.76-.83,8.39,3.41,9.66,7.78Z"/>
  <path class="cls-9" d="M879.15,981.31c-6.24,0-27.49-5.08-27.49-8.17s21.26-3.04,27.49-3.04,23.14-2.65,21.53-.02c-1.47,2.39-15.29,11.24-21.53,11.24Z"/>
  <path class="cls-10" d="M853.58,871.78c-2.34,4.12-4.8,17.91-7.84,16.13-3.05-1.79-3.04-15.62-.7-19.73s9.69-11.58,13.05-12.64-2.17,12.13-4.51,16.25Z"/>
  <ellipse class="cls-10" cx="858.9" cy="863.72" rx="4.63" ry="4.24" transform="translate(-358.12 914.45) rotate(-47.55)"/>
  <path class="cls-10" d="M915.81,950.45c-2.99,5.35-9.35,11.45-13.21,9.23-3.86-2.23,4.97-7.38,7.96-12.73s2.31-11.76,6.17-9.53,2.07,7.69-.92,13.04Z"/>
  <path class="cls-10" d="M905.92,960.45c-1.55.91-9.07,3.78-9.8,2.48s5.64-6.19,7.19-7.1,8.23-2.88,8.96-1.59-4.8,5.3-6.35,6.21Z"/>
  <path class="cls-10" d="M860.36,868.24c-3.35,4.51-.93,9.47-3.82,7.26s-6.96-11.48-3.61-15.99c3.35-4.51,15.29-6.95,18.18-4.74,2.89,2.21-7.41,8.96-10.76,13.48Z"/>
  <path class="cls-11" d="M865.46,863.53c-2.48,1.72-5.93,12.1-6.91,10.63s2.59-8.87,4.94-11.07c2.21-2.07,6.22-4.64,7.21-3.17s-2.75,1.89-5.24,3.61Z"/>
  <path class="cls-10" d="M858.12,876.66c0,4.82,3.49,11.19-.19,10.52-4.17-.76-10.88-4.72-10.88-9.53s11.31-10.59,13.12-14.48-2.05,8.67-2.05,13.49Z"/>
  <path class="cls-10" d="M860.58,894.86c4.29,3.69,12.55,9.7,8.57,10.71s-11.96-2.72-16.25-6.4-8.35-12.74-7.82-17.02c.49-3.92,11.21,9.02,15.5,12.71Z"/>
  <path class="cls-10" d="M874.03,901.07c4.07,2.3,29.19,9.08,28.27,11.8s-25.07-3.44-29.08-4.83-6.34-11.41-10.85-14.72c-2.3-1.69,7.95,5.66,11.65,7.75Z"/>
  <path class="cls-10" d="M888.71,905.9c7.87,2.15,37.13,16.89,18.24,16.15-3.98-.15-13.83-8.5-20.64-10.37s-11.93-1.88-10.89-5.78,6.47-1.86,13.29,0Z"/>
  <path class="cls-10" d="M889.26,851.52c.81,5.22-8.1,5.2-13.59,6.08s-22.23,9.13-23.03,3.91c-.81-5.22,16.95-11.85,22.44-12.73s13.38-2.48,14.19,2.74Z"/>
  <path class="cls-10" d="M890.53,850.43c.81,5.22-8.1,5.2-13.59,6.08-5.48.87-22.23,9.13-23.03,3.91s16.95-11.85,22.44-12.73c5.48-.87,13.38-2.48,14.19,2.74Z"/>
  <ellipse class="cls-10" cx="856.68" cy="891.42" rx="7.35" ry="13.28" transform="translate(-305.57 469.88) rotate(-26.2)"/>
  <path class="cls-10" d="M856.11,901.87c-4-4.07-2.5-17.44.24-20.23s4.12,8.71,8.12,12.78c4,4.07,15.29,9.47,12.55,12.25-2.74,2.78-16.91-.73-20.92-4.8Z"/>
  <rect class="cls-10" x="884.07" y="847.84" width="33.59" height="9"/>
  <path class="cls-11" d="M871.48,881.79c2.32,3.35,5.66,13,2.36,15.35s-11.99-3.47-14.31-6.82-2.41-15.2-.71-18.92c1.52-3.33,10.35,7.04,12.66,10.39Z"/>
  <path class="cls-9" d="M876.95,880.4c1.53,3.78,8.19,15.73,4.47,17.28-3.72,1.55-16.03-5.84-17.55-9.62s-3.57-17.42.15-18.97c3.72-1.55,11.4,7.52,12.93,11.3Z"/>
  <path class="cls-9" d="M878.46,880.79c0,5.39-1.91,12.8-6.82,12.8s-10.97-7.41-10.97-12.8,1.96-15.03,6.87-15.03,10.91,9.64,10.91,15.03Z"/>
  <path class="cls-10" d="M860,889.47c3.99,6.53,18.17,12.41,14.07,14.99-4.1,2.59-18.39-4.1-22.39-10.63-3.99-6.53-.3-15.72,3.8-18.3,4.1-2.59.53,7.41,4.52,13.94Z"/>
  <path class="cls-10" d="M875.68,901.25c4.09,1.71,18.27,6.15,16.92,9.5-1.35,3.34-14.59-3.29-18.68-5s-6.35-4.83-7.93-8.06c-1.82-3.71,5.61,1.86,9.7,3.57Z"/>
  <rect class="cls-10" x="615.66" y="753.44" width="18.09" height="207.56"/>
  <rect class="cls-11" x="606.57" y="958.83" width="28.21" height="7.64"/>
  <rect class="cls-11" x="607.49" y="928.27" width="4.54" height="31.19"/>
  <rect class="cls-10" x="612.03" y="922.52" width="4.54" height="36.31"/>
  <rect class="cls-10" x="640.99" y="989.12" width="2.73" height="13.94"/>
  <rect class="cls-10" x="640.99" y="816.59" width="2.82" height="8.82"/>
  <rect class="cls-5" x="888.76" y="836.08" width="11.8" height="142.92"/>
  <rect class="cls-5" x="865.72" y="836.08" width="11.8" height="142.92"/>
  <path class="cls-11" d="M885.96,846.76c0,.33-3.05.54-4.06.54s-4.02.26-4.02-.07,3.02-1.75,4.02-1.75,4.06.95,4.06,1.28Z"/>
  <rect class="cls-12" x="472.77" y="966.48" width="160.98" height="199.07"/>
  <rect class="cls-12" x="612.45" y="1051.03" width="535.1" height="120.44"/>
  <rect class="cls-9" x="921.36" y="842.29" width="114.37" height="24.32"/>
</svg>