<?xml version="1.0" encoding="UTF-8"?>
<svg id="Layer_1" data-name="Layer 1" xmlns="http://www.w3.org/2000/svg" viewBox="0 0 1275.6 1754">
  <defs>
    <style>
      .cls-1 {
        fill: #fff;
      }

      .cls-2 {
        stroke-miterlimit: 10;
        stroke-width: 1px;
      }

      .cls-2, .cls-3, .cls-4, .cls-5, .cls-6, .cls-7 {
        fill: #231f20;
      }

      .cls-2, .cls-3, .cls-5, .cls-6, .cls-7 {
        stroke: #231f20;
      }

      .cls-3 {
        stroke-miterlimit: 10;
        stroke-width: 1px;
      }

      .cls-5 {
        stroke-miterlimit: 10;
        stroke-width: 1px;
      }

      .cls-8 {
        fill: #ed1c24;
      }

      .cls-6 {
        stroke-miterlimit: 10;
      }

      .cls-7 {
        stroke-miterlimit: 10;
        stroke-width: 1px;
      }
    </style>
  </defs>
  <g id="Layer_1-2" data-name="Layer 1">
    <circle class="cls-1" cx="637.8" cy="779.67" r="637.8"/>
    <circle class="cls-1" cx="637.8" cy="779.67" r="637.8"/>
    <path class="cls-8" d="M1209.37,782.69c-5.61,314.18-266.6,564.79-582.94,559.75-316.34-5.03-568.24-263.81-562.63-577.98,5.61-314.18,266.6-564.79,582.94-559.75,316.34,5.03,568.24,263.81,562.63,577.98h0Z"/>
    <ellipse class="cls-1" cx="636.86" cy="774.2" rx="482.27" ry="478.59"/>
    <ellipse class="cls-6" cx="846.35" cy="791.52" rx="27.49" ry="28.32"/>
    <ellipse class="cls-6" cx="911.44" cy="788.03" rx="17.82" ry="34.68"/>
    <path class="cls-6" d="M951.89,895.36c11.27,100.98-109.63,42.71-139.12-24.22-53.99-122.55,124.38-107.77,139.12,24.22Z"/>
    <path class="cls-6" d="M833.22,826.5l-27.07,22.87-92.45-97.57,9.55-8.07c9.68-8.17,24.54-7.39,33.2,1.74l76.78,81.02h-.01Z"/>
    <rect class="cls-6" x="773.46" y="797.68" width="56.51" height="22.16"/>
    <polygon class="cls-6" points="810.07 816.32 740.73 778.52 759.08 748.5 828.42 786.29 810.07 816.32"/>
    <path class="cls-6" d="M737.92,775.93l-72.46-76.46,19.08,9.98c6.86-5.8,161.8,91.52,29.12,14.57l52.29,28.23-28.04,23.69h.01Z"/>
    <path class="cls-6" d="M653.24,912.92h0c61.1,46.38-119.66-4.06-228.31-11.98h0c-31.37-33.11,23.36-127.67,58.42-157.29l5.27-4.45,164.62,173.72h0Z"/>
    <polygon class="cls-6" points="592.83 947.88 521.98 941.32 486.53 908.2 592.83 923.67 592.83 947.88"/>
    <polygon class="cls-6" points="621.09 975.65 570.75 943.64 585.46 928.04 633.57 945.98 621.09 975.65"/>
    <ellipse class="cls-6" cx="629.83" cy="941.57" rx="13.75" ry="5.28"/>
    <rect class="cls-6" x="602.16" y="935.78" width="29.45" height="9.64"/>
    <polygon class="cls-6" points="658.43 947.52 633.57 946.66 633.57 940.6 661.25 942.43 658.43 947.52"/>
    <rect class="cls-6" x="626.62" y="946.14" width="11.95" height="19.29"/>
    <rect class="cls-6" x="637.8" y="952.91" width="19.23" height="8.82"/>
    <polygon class="cls-6" points="644.13 952.34 640.29 957.82 634.49 954.19 638.33 948.72 644.13 952.34"/>
    <path class="cls-6" d="M666.78,964.52l-1.42,2.32-12.64-6.89,4.3-7.03,7.64,4.16c2.76,1.5,3.71,4.84,2.11,7.44h.01Z"/>
    <rect class="cls-6" x="662.11" y="960.96" width=".81" height=".77"/>
    <rect class="cls-6" x="664.66" y="962.35" width=".43" height=".41"/>
    <polygon class="cls-6" points="629.84 976.35 625.57 980.38 616.8 972.1 621.07 968.07 629.84 976.35"/>
    <path class="cls-6" d="M625.29,977.02h5.22v7.76c0,.93-.75,1.68-1.68,1.68h-.98c-1.41,0-2.56-1.15-2.56-2.56v-6.88h0Z"/>
    <path class="cls-6" d="M627.93,988.69l-1.98-2.99c-.09-.14,0-.33.18-.34l3.7-.14c.17,0,.28.18.2.33l-1.72,3.13c-.08.14-.29.15-.38.02h0Z"/>
    <polygon class="cls-6" points="645.92 976.66 631.38 966.01 635.66 960.8 650.2 971.44 645.92 976.66"/>
    <path class="cls-6" d="M645.43,971.24h4.53c.58,0,1.04.47,1.04,1.04v9.01h-1.21c-2.41,0-4.37-1.96-4.37-4.37v-5.69h.01Z"/>
    <polygon class="cls-6" points="644.2 966.59 639.03 962.43 645.43 960.29 644.2 966.59"/>
    <path class="cls-6" d="M422.75,902.08l7.44-2.14-13.7-42.39h0c-12.57,3.62-19.65,16.18-15.81,28.05l2.08,6.44c2.58,7.99,11.53,12.49,19.99,10.05h0Z"/>
    <polygon class="cls-6" points="343.38 913.64 354.9 930.07 415.89 891.96 404.37 875.53 343.38 913.64"/>
    <polygon class="cls-6" points="410.4 900.53 399.19 902.64 402.86 892.42 410.4 900.53"/>
    <polygon class="cls-6" points="285.54 980.99 298.79 985.44 358.17 927.65 345.83 916.94 285.54 980.99"/>
    <path class="cls-6" d="M289.99,978.53h12.78v52.94h-18.45v-47.27c0-3.13,2.54-5.67,5.67-5.67h0Z"/>
    <path class="cls-6" d="M357.26,913.71c7.52,6.22-5.59,18.64-25.07,39.65-19.49,21.01-37.97,42.66-45.49,36.43-7.52-6.22,2.17-28.29,21.66-49.3s41.38-33,48.9-26.78Z"/>
    <path class="cls-6" d="M358.96,1099.73c11.74,21.62,41.32,11.17,32.95,15.22-8.37,4.05-85.8-24.26-97.53-45.88-11.74-21.62-14.49-45.18-6.12-49.23s58.97,58.28,70.7,79.89h0Z"/>
    <polygon class="cls-6" points="285.54 1029.73 303.13 1015.38 307.49 1036.94 285.54 1029.73"/>
    <path class="cls-6" d="M491.41,1115.52l-134.65-10.96c11.25-16.15-7.49-2.17-6.88-6.83h0c.9-6.86,8-14.26,15.43-13.39l156.66,14.57-30.57,16.61h.01Z"/>
    <ellipse class="cls-7" cx="415.57" cy="1109.56" rx="9.04" ry="63.17" transform="translate(-733.45 1398.66) rotate(-83.59)"/>
    <ellipse class="cls-2" cx="640.75" cy="1098.18" rx="140.56" ry="8.1" transform="translate(-39.81 24.22) rotate(-2.1)"/>
    <polygon class="cls-6" points="452.52 1120.05 501.56 1096.77 507.31 1117.05 452.52 1120.05"/>
    <polygon class="cls-6" points="580.45 1107.11 501.56 1117.44 501.56 1096.77 580.45 1107.11"/>
    <path class="cls-6" d="M746.76,1095.56c0-3.03,13.28-5.49,29.65-5.49s30.69,13.74,30.69,16.77-14.32-5.79-30.69-5.79-29.65-2.46-29.65-5.49Z"/>
    <path class="cls-6" d="M970.89,953.68c-6.82,12.14-30.34,12.98-52.54,1.88-22.2-11.11-34.68-29.96-27.86-42.1,6.82-12.14,30.34-12.98,52.54-1.88,22.2,11.11,34.68,29.96,27.86,42.1Z"/>
    <path class="cls-6" d="M970.68,940.2c-8.69,11.03-32.08,8.49-52.24-5.68-20.16-14.16-29.46-34.58-20.77-45.61,8.69-11.03,32.08-8.49,52.24,5.68,20.16,14.16,29.46,34.58,20.77,45.61Z"/>
    <polygon class="cls-6" points="984.11 957.57 950.63 952.33 972.18 927.57 984.11 957.57"/>
    <ellipse class="cls-6" cx="970.6" cy="956.86" rx="12.33" ry="3.02"/>
    <rect class="cls-6" x="981.89" y="925.39" width=".35" height="25.05"/>
    <rect class="cls-6" x="976.53" y="917.36" width="1.46" height="24.83"/>
    <rect class="cls-6" x="948.49" y="963.37" width="2.13" height="14.31"/>
    <polygon class="cls-6" points="932.99 984.63 950.63 977.18 949.87 975.58 932.23 983.02 932.99 984.63"/>
    <rect class="cls-6" x="940.46" y="963.37" width=".97" height="11.67"/>
    <polygon class="cls-6" points="929 980.1 941.43 974.85 940.95 973.85 928.53 979.1 929 980.1"/>
    <polygon class="cls-5" points="920.25 967.91 934.96 961.04 934.96 961.04 920.25 967.91"/>
    <rect class="cls-6" x="968.97" y="894.84" width="1.63" height="23.18"/>
    <rect class="cls-6" x="896.97" y="954.74" width="23.35" height=".82"/>
    <polygon class="cls-6" points="578.75 602.22 389.33 402.32 486.11 320.56 675.53 520.46 578.75 602.22"/>
    <polygon class="cls-6" points="669.25 411.27 518.08 522.48 491.66 343.27 669.25 411.27"/>
    <path class="cls-6" d="M568.01,523.11c22.17-22.72,77.93-8.25,124.54,32.3,46.61,40.56,66.41,91.85,44.24,114.57-22.17,22.72-77.93,8.25-124.54-32.3-46.61-40.56-66.41-91.85-44.24-114.57Z"/>
    <rect class="cls-6" x="616.88" y="453.49" width="213.08" height="122.61"/>
    <ellipse class="cls-6" cx="724.71" cy="475.72" rx="83.91" ry="75.34"/>
    <ellipse class="cls-6" cx="746.76" cy="541.41" rx="68.79" ry="49"/>
    <ellipse class="cls-3" cx="639.35" cy="453.53" rx="26.58" ry="54.63" transform="translate(119.53 1040.25) rotate(-83.81)"/>
    <rect class="cls-6" x="634.49" y="400.38" width="88.93" height="44.76"/>
    <polygon class="cls-6" points="831.1 454.71 767.19 480.57 775.42 415.38 831.1 454.71"/>
    <polygon class="cls-6" points="807.05 541.41 829.97 584.29 779.18 581.58 807.05 541.41"/>
    <polygon class="cls-6" points="846.79 623.57 815.55 581.82 826.52 450.22 870.53 478.1 846.79 623.57"/>
    <path class="cls-6" d="M870.53,475.72h50.22c8.76,0,15.87,7.11,15.87,15.87v164.5h-66.1v-180.38h.01Z"/>
    <polygon class="cls-6" points="870.34 479.24 892.97 642.43 844.26 620.19 870.34 479.24"/>
    <polygon class="cls-6" points="873.75 661.26 842.02 617.83 863.47 603.85 895.21 647.28 873.75 661.26"/>
    <path class="cls-6" d="M942.67,703.56c11.73,22.65,35.51,39.47-2.33,52.74-12.49,4.38-38.22-17.98-50.27-42.19-36.87-74.06-39.96-91.03,14.89-76.91,17.56,4.52,7.48,8.03,37.7,66.36h.01Z"/>
    <polygon class="cls-6" points="940.34 709.72 897.17 668.29 936.12 651.74 940.34 709.72"/>
    <path class="cls-6" d="M1028.22,670.44c14.09,37.41,33.68,58.12,19.7,68.77-21.69,16.51-49.61-10.46-81-48.18-52.89-63.56-33.07-84.05,5.13-78.04,17.72,2.79,42.07,20.04,56.17,57.45h0Z"/>
    <path class="cls-6" d="M1042.99,740.59c-13.13,11.09-36.87,6.27-53.03-10.78-16.15-17.05-18.6-39.86-5.47-50.95s28.42-1.15,44.58,15.9c16.16,17.05,27.05,34.74,13.92,45.83Z"/>
    <path class="cls-6" d="M917.36,609.62l13.3-125.72,92.24,103.06c10.24,11.44,1.44,29.54-13.88,28.56l-91.66-5.9h0Z"/>
    <ellipse class="cls-6" cx="942.72" cy="610.06" rx="18.17" ry="13.51"/>
    <path class="cls-6" d="M1048.83,636.75c17.67,25.59,37.15,24.59,32.6,39.55-8.71,28.66-55.27,29.87-78.03-21.29-12.53-28.16,2.81-47.59-3.44-61.99-29.8-68.65-12.61-45.3,48.87,43.73Z"/>
    <rect class="cls-6" x="960.89" y="602.22" width="55.61" height="30.44"/>
    <polygon class="cls-6" points="1034.86 614.9 1008.77 631.89 968.97 577.42 995.06 560.43 1034.86 614.9"/>
    <path class="cls-6" d="M481.66,347.14c11,15.06.22,40.1-24.09,55.94-24.31,15.83-52.93,16.46-63.94,1.4-11-15.06-.22-40.1,24.09-55.94,24.31-15.83,52.93-16.46,63.94-1.4Z"/>
    <polygon class="cls-6" points="500.33 349.68 485.07 317.46 439.11 336.87 454.37 369.08 500.33 349.68"/>
    <path class="cls-6" d="M412.44,426.94l-46.09-48.64,3.3-2.79c20.75-17.53,52.63-15.86,71.19,3.74l12.47,13.16-40.88,34.53h.01Z"/>
    <ellipse class="cls-6" cx="410.4" cy="369.08" rx="21.63" ry="14.22"/>
    <polygon class="cls-8" points="954.02 1230.79 200.24 435.31 326.61 328.56 1080.4 1124.03 954.02 1230.79"/>
    <polygon class="cls-6" points="479.62 313.97 369.52 372.67 408.85 412.33 502.78 337.87 479.62 313.97"/>
    <polygon class="cls-8" points="456.2 263.26 339.87 318.67 368.18 371.66 497.48 315.9 456.2 263.26"/>
    <path class="cls-4" d="M321.11,1082.03c61.19,38.38,167.07,27.09,172.25,21.91,5.18-5.18-91.07-4.63-154.35-38.42-45.1-24.08-28.36-76.41-40.96-106.39-2.84-6.75-37.71,84.79,23.06,122.9Z"/>
    <path class="cls-6" d="M316.28,1058.29c5.83,1.14-19.39-49.66-12.57-84.69,6.82-35.03,36.56-48.07,37.28-42.17.71,5.82-9.36,24.64-26.92,48.25-21.31,28.63-3.62,77.48,2.22,78.61h0Z"/>
    <path class="cls-1" d="M297.59,1002.42c0,35.9,65.19,81.84,91.96,81.84s4.97-40.51,4.97-76.4,20.69-98.37-6.07-98.37-90.85,57.03-90.85,92.93h0Z"/>
    <ellipse class="cls-4" cx="288.6" cy="1012.37" rx="10.12" ry="36.72"/>
    <path class="cls-1" d="M364.38,1072.85c-4.75,4.75-28.05-5.93-39.49-17.37s-29.5-41.41-24.75-46.16,30.51,17.52,41.95,28.96c11.44,11.44,27.04,29.82,22.29,34.57h0Z"/>
  </g>
</svg>