<?xml version="1.0" encoding="UTF-8"?>
<svg id="Template_tamror_1_.ai" data-name="Template tamror (1).ai" xmlns="http://www.w3.org/2000/svg" xmlns:xlink="http://www.w3.org/1999/xlink" viewBox="0 0 781.16 1065.88">
  <defs>
    <style>
      .cls-1 {
        fill: #7f1630;
      }

      .cls-2 {
        fill: #6b192e;
      }

      .cls-3 {
        fill: #231f20;
      }

      .cls-4 {
        fill: #fff;
      }

      .cls-5 {
        fill: none;
      }

      .cls-6 {
        clip-path: url(#clippath-1);
      }

      .cls-7 {
        fill: #e27e7f;
      }

      .cls-8 {
        clip-path: url(#clippath-3);
      }

      .cls-9 {
        fill: #631224;
      }

      .cls-10 {
        fill: #0b0f0c;
      }

      .cls-11 {
        fill: #45131e;
      }

      .cls-12 {
        fill: #efa3a3;
      }

      .cls-13 {
        fill: #ad1f24;
      }

      .cls-14 {
        fill: #9a3241;
      }

      .cls-15 {
        clip-path: url(#clippath-2);
      }

      .cls-16 {
        fill: #f7a7a8;
      }

      .cls-17 {
        fill: #dbe0da;
      }

      .cls-18 {
        fill: #c66368;
      }

      .cls-19 {
        clip-path: url(#clippath);
      }
    </style>
    <clipPath id="clippath">
      <polyline class="cls-5" points="781.16 1065.88 0 1007.18 0 .18 781.16 58.88"/>
    </clipPath>
    <clipPath id="clippath-1">
      <rect class="cls-5" x="1" y="1.18" width="774" height="1007"/>
    </clipPath>
    <clipPath id="clippath-2">
      <rect class="cls-5" y=".18" width="774" height="1007"/>
    </clipPath>
    <clipPath id="clippath-3">
      <rect class="cls-5" x=".24" width="774.13" height="1007.46"/>
    </clipPath>
  </defs>
  <g class="cls-19">
    <g class="cls-6">
      <path class="cls-3" d="M75.79,624.06L365.58,123.83c11.57-19.97,40.42-19.95,51.96.04l288.31,499.37c11.54,19.99-2.86,44.98-25.95,45.02l-578.1.85c-23.14.03-37.61-25.03-26.01-45.06"/>
      <path class="cls-4" d="M89.64,613.39L364.36,143.21c11.62-19.89,40.39-19.81,51.9.14l269.83,467.35c11.52,19.95-2.8,44.9-25.84,45.02l-544.55,2.83c-23.24.12-37.79-25.08-26.07-45.15"/>
    </g>
    <polygon class="cls-17" points="521.18 656.44 142.15 522.58 194.87 431.4 673.99 590.33 521.18 656.44"/>
    <polygon class="cls-17" points="112.6 658.41 87.92 616.81 114.6 571 373.44 658.18 112.6 658.41"/>
    <polygon class="cls-17" points="508.58 303.24 308.4 239 359.42 151.67 434.64 175.17 508.58 303.24"/>
    <polygon class="cls-17" points="626.59 507.64 231.32 371.96 280.85 286.44 555.37 384.28 626.59 507.64"/>
    <g class="cls-15">
      <path class="cls-17" d="M691.04,621.55c.74,21.27-16.14,29.27-16.08,30.67.31,6.62-149.26,12.33-156.14,3.38-8.91-11.59,151.62-68.91,155.62-65.81.83.64,13.23,20.04,16.6,31.76"/>
    </g>
    <g class="cls-8">
      <path class="cls-14" d="M430.11,579.28s-100.39,36.4-141.15,72.17c-9.67,8.48-47.39-1.01-49.26-7.74-13.34-48.12,104.38-80.92,162.09-80.9,15.89,0,28.33,16.48,28.33,16.48Z"/>
      <path class="cls-11" d="M583.41,489.7c-5.19,26.76-36.15-11.68-33.8-16.73,0,0-172.07-152.59-118.66-144.28,41.29,6.42,72.28,30.68,72.28,30.68,0,0,88.13,89.38,80.18,130.33Z"/>
      <path class="cls-2" d="M578,497.88c-68.9,12.69-147.9,81.4-147.9,81.4l-27.8-21.56s27.61-141.94,129.61-89.22c15.43,7.97,64.01,26.08,46.09,29.38Z"/>
      <path class="cls-1" d="M413.65,566.58s-90.38-12.55-157.17,77.06c-21.47,28.8-82.31-89.39-96.05-137.8-16.08-56.65,147.81-90,147.81-90l105.41,150.74Z"/>
      <path class="cls-9" d="M544.22,480c-109.21,19.99-130.58,86.58-130.58,86.58l-105.41-150.74s90.74-110.19,136.2-82.81c41.41,24.94,143.89,138.89,99.79,146.97Z"/>
      <path class="cls-10" d="M489.85,628.21l-112.94-215.14c-3.01-5.72-.52-12.51,5.56-15.16l77.15-33.63c6.08-2.65,13.44-.15,14.47,1.27l112.94,215.14c4.98,10.02,2.49,16.81-3.58,19.46l-77.15,33.63c-6.08,2.65-13.44.15-16.44-5.57"/>
    </g>
    <rect class="cls-16" x="301" y="461.18" width="0" height="0" transform="translate(602 922.36) rotate(180)"/>
  </g>
  <path class="cls-12" d="M401.94,452.12l-16.47-31.77c-3.46-6.68-.52-14.54,6.56-17.56l65.93-28.13c6.66-2.84,14.68-.06,17.94,6.21l10.93,21.09-84.89,50.17Z"/>
  <polygon class="cls-7" points="401.94 452.12 424.3 494.33 508.44 442.93 486.83 401.95 401.94 452.12"/>
  <polygon class="cls-18" points="447.94 540.24 424.3 494.33 508.44 442.93 532.31 487.67 447.94 540.24"/>
  <polygon class="cls-7" points="447.94 540.24 474.12 589.36 557.65 536.62 532.31 487.67 447.94 540.24"/>
  <path class="cls-12" d="M473.3,588.99l12.57,24.61c3.48,6.82,12.23,9.8,19.39,6.61l66.57-29.64c6.42-2.86,9.04-10.27,5.76-16.28l-20.56-37.65-83.74,52.34Z"/>
  <path class="cls-17" d="M118.26,635.86c22.7,30-6.39,23.04-15.19,20.83-8.18-2.05-18.29-16.07-18.29-26.82s7.31-28.34,18.2-13.47c4.99,6.8,8.79,10.89,15.27,19.46Z"/>
  <polygon class="cls-13" points="574.43 589.42 559.67 595.89 392.03 402.79 408.38 395.8 574.43 589.42"/>
  <polygon class="cls-13" points="447.18 379.26 461.68 373.18 522.71 612.45 505.26 620.22 447.18 379.26"/>
</svg>