<?xml version="1.0" encoding="UTF-8"?>
<svg id="Layer_1" data-name="Layer 1" xmlns="http://www.w3.org/2000/svg" viewBox="0 0 1369.13 1369.13">
  <defs>
    <style>
      .cls-1 {
        fill: #fff;
        stroke: #000;
      }

      .cls-1, .cls-2 {
        stroke-miterlimit: 10;
      }

      .cls-2 {
        fill: none;
        stroke: #690005;
        stroke-width: 93.54px;
      }

      .cls-3 {
        fill: #720000;
      }

      .cls-4 {
        fill: #231f20;
      }
    </style>
  </defs>
  <ellipse class="cls-1" cx="680.87" cy="689.49" rx="596.42" ry="622.56"/>
  <ellipse class="cls-4" cx="813.44" cy="236.63" rx="59.51" ry="60.4"/>
  <ellipse class="cls-4" cx="750.51" cy="401.29" rx="22.26" ry="72.99"/>
  <ellipse class="cls-4" cx="836.96" cy="651.1" rx="23.55" ry="23.9"/>
  <ellipse class="cls-4" cx="745.8" cy="647.63" rx="26.97" ry="27.38"/>
  <rect class="cls-4" x="772.78" y="321.35" width="100.17" height="187.7"/>
  <polygon class="cls-4" points="723.84 538.42 796.54 476.96 827.22 514.36 754.52 575.82 723.84 538.42"/>
  <path class="cls-4" d="M733.33,553.45h0c15.01-1.96,28.77,8.84,30.7,24.08l5.9,46.57c1.93,15.27-8.68,29.24-23.72,31.16h0c-15.01,1.96-28.77-8.84-30.7-24.08l-5.9-46.57c-1.93-15.27,8.68-29.24,23.72-31.16Z"/>
  <polygon class="cls-4" points="712.51 553.38 777.43 492.83 813.34 532.49 748.41 593.04 712.51 553.38"/>
  <rect class="cls-4" x="813.44" y="557.79" width="47.07" height="93.35"/>
  <ellipse class="cls-4" cx="899.85" cy="415.18" rx="24.84" ry="72.99"/>
  <rect class="cls-4" x="772.78" y="509.05" width="84.62" height="46.06"/>
  <ellipse class="cls-4" cx="745.1" cy="546.52" rx="46.64" ry="27.01" transform="translate(-134.9 828.41) rotate(-54.02)"/>
  <ellipse class="cls-4" cx="736.38" cy="396.06" rx="17.55" ry="67.79"/>
  <ellipse class="cls-4" cx="844.11" cy="374.25" rx="53.07" ry="58.4"/>
  <ellipse class="cls-4" cx="764.74" cy="618.53" rx="10.81" ry="43.44"/>
  <path class="cls-4" d="M836.96,535.08h0c13.83,0,25.04,11.38,25.04,25.42v15.2c0,14.03-11.22,25.42-25.04,25.42h0c-13.83,0-25.04-11.38-25.04-25.42v-15.2c0-14.03,11.22-25.42,25.04-25.42Z"/>
  <ellipse class="cls-4" cx="837" cy="516.64" rx="45.16" ry="35.98" transform="translate(144.84 1215.5) rotate(-76.96)"/>
  <ellipse class="cls-4" cx="745.8" cy="451.19" rx="16.27" ry="21.91"/>
  <polygon class="cls-4" points="1279.29 557.48 1007.04 557.48 971.73 744.07 1279.29 737.78 1279.29 557.48"/>
  <polygon class="cls-4" points="983.81 706.72 1290.95 706.72 1210.46 1113.38 750.51 755.39 983.81 706.72"/>
  <polygon class="cls-4" points="789.58 830.09 512.22 897.89 512.22 1266.33 1102.94 1153.34 789.58 830.09"/>
  <path class="cls-4" d="M425.92,1129.03h597.37c9.07,0,16.42,7.35,16.42,16.42v117.56c0,9.07-50.17,14.38-59.23,14.38l-554.55,2.04c-9.07,0-16.42-7.35-16.42-16.42v-117.56c0-9.07,7.35-16.42,16.42-16.42Z"/>
  <path class="cls-4" d="M323.79,1023.31l269.3-59.35c28.07-6.19,55.77,11.9,61.87,40.39l27.39,128.03c6.1,28.5-11.72,56.61-39.8,62.8l-269.3,59.35c-28.07,6.19-55.77-11.9-61.87-40.39l-27.39-128.03c-6.1-28.5,11.72-56.61,39.8-62.8Z"/>
  <rect class="cls-4" x="642" y="895.79" width="14.06" height="14.27"/>
  <rect class="cls-4" x="570.43" y="1101.23" width="14.06" height="14.27"/>
  <rect class="cls-4" x="462.57" y="1033.44" width="5.15" height="3.47"/>
  <polygon class="cls-4" points="200.76 1048.96 354.95 1014.98 383.65 1149.16 229.46 1183.14 200.76 1048.96"/>
  <rect class="cls-4" x="915.44" y="429.28" width="43.1" height="377.11"/>
  <rect class="cls-4" x="1078.95" y="303.98" width="30.8" height="368.44"/>
  <rect class="cls-4" x="475.58" y="756.76" width="35.95" height="278.05"/>
  <rect class="cls-4" x="265.38" y="908.31" width="34.26" height="151.2"/>
  <polygon class="cls-4" points="94.46 1010.85 1124.01 272.87 1153.65 315.46 124.09 1053.44 94.46 1010.85"/>
  <circle class="cls-2" cx="684.57" cy="684.57" r="637.8"/>
  <polygon class="cls-3" points="104.48 351.71 197.27 240.37 1179.33 1083.62 1086.54 1194.96 104.48 351.71"/>
  <ellipse class="cls-4" cx="836.96" cy="526.46" rx="41.01" ry="33.21" transform="translate(-39.41 984.32) rotate(-59.76)"/>
  <polygon class="cls-4" points="734.31 518.51 782.79 469.31 816.82 503.84 768.34 553.05 734.31 518.51"/>
  <rect class="cls-4" x="725.06" y="312.27" width="182.69" height="123.96" rx="12.08" ry="12.08"/>
  <rect class="cls-4" x="837.37" y="322.42" width="75.33" height="76.46" rx="11.11" ry="11.11"/>
  <ellipse class="cls-4" cx="847.77" cy="552.8" rx="15.55" ry="21.74"/>
</svg>