<?xml version="1.0" encoding="UTF-8"?>
<svg id="Layer_1" xmlns="http://www.w3.org/2000/svg" version="1.1" viewBox="0 0 536 953">
  <!-- Generator: Adobe Illustrator 30.1.0, SVG Export Plug-In . SVG Version: 2.1.1 Build 136)  -->
  <defs>
    <style>
      .st0 {
        fill: none;
        stroke: #690005;
        stroke-width: 29px;
      }

      .st0, .st1 {
        stroke-miterlimit: 10;
      }

      .st1 {
        fill: #fff;
        stroke: #000;
      }

      .st2 {
        fill: #720000;
      }

      .st3 {
        fill: #231f20;
      }
    </style>
  </defs>
  <ellipse class="st1" cx="269" cy="502" rx="176" ry="181"/>
  <circle class="st3" cx="308.12" cy="370.34" r="17.56"/>
  <ellipse class="st3" cx="289.55" cy="418.21" rx="6.57" ry="21.22"/>
  <circle class="st3" cx="315.06" cy="490.84" r="6.95"/>
  <circle class="st3" cx="288.16" cy="489.83" r="7.96"/>
  <rect class="st3" x="296.12" y="394.97" width="29.56" height="54.57"/>
  <rect class="st3" x="282.97" y="447.51" width="27.92" height="14.15" transform="translate(-222.15 295.31) rotate(-39.79)"/>
  <path class="st3" d="M284.48,462.45h0c4.43-.57,8.49,2.57,9.06,7l1.74,13.54c.57,4.44-2.56,8.5-7,9.06h0c-4.43.57-8.49-2.57-9.06-7l-1.74-13.54c-.57-4.44,2.56-8.5,7-9.06Z"/>
  <rect class="st3" x="280.2" y="451.56" width="26.02" height="15.66" transform="translate(-233.52 319.52) rotate(-42.58)"/>
  <rect class="st3" x="308.12" y="463.71" width="13.89" height="27.14"/>
  <ellipse class="st3" cx="333.62" cy="422.25" rx="7.33" ry="21.22"/>
  <rect class="st3" x="296.12" y="449.54" width="24.97" height="13.39"/>
  <ellipse class="st3" cx="287.96" cy="460.44" rx="13.63" ry="7.93" transform="translate(-253.23 415.2) rotate(-53.2)"/>
  <ellipse class="st3" cx="285.38" cy="416.69" rx="5.18" ry="19.71"/>
  <ellipse class="st3" cx="317.17" cy="410.35" rx="15.66" ry="16.98"/>
  <ellipse class="st3" cx="293.75" cy="481.37" rx="3.19" ry="12.63"/>
  <path class="st3" d="M315.06,457.11h0c4.08,0,7.39,3.31,7.39,7.39v4.42c0,4.08-3.31,7.39-7.39,7.39h0c-4.08,0-7.39-3.31-7.39-7.39v-4.42c0-4.08,3.31-7.39,7.39-7.39Z"/>
  <ellipse class="st3" cx="315.07" cy="451.75" rx="13.14" ry="10.61" transform="translate(-199.24 648.8) rotate(-76.07)"/>
  <ellipse class="st3" cx="288.16" cy="432.72" rx="4.8" ry="6.37"/>
  <polygon class="st3" points="445.59 463.62 365.25 463.62 354.83 517.87 445.59 516.04 445.59 463.62"/>
  <polygon class="st3" points="356.91 507.01 445.59 507.01 422.35 625.24 289.55 521.16 356.91 507.01"/>
  <polygon class="st3" points="301.08 542.88 219.23 562.59 219.23 669.71 393.55 636.86 301.08 542.88"/>
  <rect class="st3" x="188.92" y="629.79" width="184.93" height="48" rx="16.42" ry="16.42"/>
  <rect class="st3" x="154.65" y="589.64" width="112.02" height="68.79" rx="15.35" ry="15.35" transform="translate(-127.61 58.91) rotate(-12.25)"/>
  <rect class="st3" x="257.53" y="561.98" width="4.15" height="4.15"/>
  <rect class="st3" x="236.41" y="621.71" width="4.15" height="4.15"/>
  <rect class="st3" x="204.58" y="602" width="1.52" height="1.01"/>
  <rect class="st3" x="131.03" y="601.12" width="46.56" height="39.92" transform="translate(-128.27 46.88) rotate(-12.25)"/>
  <rect class="st3" x="338.22" y="426.35" width="12.72" height="109.64"/>
  <rect class="st3" x="386.47" y="389.92" width="9.09" height="107.12"/>
  <rect class="st3" x="208.42" y="521.56" width="10.61" height="80.84"/>
  <rect class="st3" x="146.39" y="565.62" width="10.11" height="43.96"/>
  <rect class="st3" x="66.26" y="486.77" width="371.94" height="15.16" transform="translate(-238.97 236.04) rotate(-35.23)"/>
  <ellipse class="st0" cx="270.09" cy="500.57" rx="188.21" ry="185.43"/>
  <rect class="st2" x="236.3" y="320.4" width="42.4" height="379.59" transform="translate(-298.32 377.27) rotate(-49.77)"/>
  <ellipse class="st3" cx="315.06" cy="454.6" rx="11.97" ry="9.76" transform="translate(-237.46 480.02) rotate(-57.91)"/>
  <rect class="st3" x="286.83" y="443.06" width="20.23" height="14.2" transform="translate(-231.34 341.82) rotate(-45)"/>
  <rect class="st3" x="282.04" y="392.33" width="53.91" height="36.04" rx="12.08" ry="12.08"/>
  <rect class="st3" x="315.18" y="395.28" width="22.23" height="22.23" rx="11.11" ry="11.11"/>
  <ellipse class="st3" cx="318.25" cy="462.26" rx="4.59" ry="6.32"/>
</svg>