<?xml version="1.0" encoding="UTF-8"?>
<svg id="Layer_1" data-name="Layer 1" xmlns="http://www.w3.org/2000/svg" viewBox="0 0 1391 956.62">
  <defs>
    <style>
      .cls-1, .cls-2 {
        fill: #231f20;
      }

      .cls-3 {
        fill: #ed1c24;
      }

      .cls-4 {
        fill: #808285;
      }

      .cls-5 {
        stroke-width: 18px;
      }

      .cls-5, .cls-6, .cls-2, .cls-7, .cls-8, .cls-9 {
        stroke: #231f20;
      }

      .cls-5, .cls-6, .cls-2, .cls-7, .cls-8, .cls-9, .cls-10 {
        stroke-miterlimit: 10;
      }

      .cls-5, .cls-6, .cls-11 {
        fill: #fff200;
      }

      .cls-6, .cls-2, .cls-7 {
        stroke-width: 7px;
      }

      .cls-7, .cls-8, .cls-10 {
        fill: none;
      }

      .cls-8 {
        stroke-width: 12px;
      }

      .cls-9 {
        fill: #fff;
        stroke-width: 2px;
      }

      .cls-10 {
        stroke: #ed1c24;
        stroke-width: 21px;
      }
    </style>
  </defs>
  <rect class="cls-4" x="616.44" y="885.85" width="158.12" height="70.76"/>
  <rect class="cls-5" x="279" y="92.44" width="793.41" height="793.41" rx="38.12" ry="38.12"/>
  <path class="cls-8" d="M518.32,191.9h354.35c19.48,0,35.29,15.81,35.29,35.29v370.1h-424.94V227.19c0-19.48,15.81-35.29,35.29-35.29Z"/>
  <rect class="cls-7" x="799.94" y="400.7" width="76.59" height="76.59" rx="7.23" ry="7.23"/>
  <circle class="cls-9" cx="695.5" cy="738.61" r="93.63"/>
  <polygon class="cls-3" points="760.23 677.83 735.16 658.07 630.77 801.42 655.98 819.14 760.23 677.83"/>
  <ellipse class="cls-10" cx="695.5" cy="738.61" rx="93.63" ry="94.56"/>
  <path class="cls-1" d="M664.7,500.02h61.57c16.41,0,29.74,13.33,29.74,29.74v61.6h-121.01v-61.63c0-16.4,13.31-29.71,29.71-29.71Z"/>
  <rect class="cls-7" x="702.53" y="399.91" width="76.59" height="76.59" rx="7.23" ry="7.23"/>
  <rect class="cls-7" x="607.16" y="400.7" width="76.59" height="76.59" rx="7.23" ry="7.23"/>
  <rect class="cls-7" x="512.71" y="399.91" width="76.59" height="76.59" rx="7.23" ry="7.23"/>
  <rect class="cls-7" x="800.82" y="310.85" width="76.59" height="76.59" rx="7.23" ry="7.23"/>
  <rect class="cls-7" x="703.41" y="310.06" width="76.59" height="76.59" rx="7.23" ry="7.23"/>
  <rect class="cls-7" x="800.82" y="219.06" width="76.59" height="76.59" rx="7.23" ry="7.23"/>
  <rect class="cls-7" x="608.04" y="310.85" width="76.59" height="76.59" rx="7.23" ry="7.23"/>
  <rect class="cls-7" x="513.59" y="310.06" width="76.59" height="76.59" rx="7.23" ry="7.23"/>
  <rect class="cls-7" x="703.41" y="219.42" width="76.59" height="76.59" rx="7.23" ry="7.23"/>
  <rect class="cls-7" x="608.04" y="220.21" width="76.59" height="76.59" rx="7.23" ry="7.23"/>
  <rect class="cls-7" x="513.59" y="219.42" width="76.59" height="76.59" rx="7.23" ry="7.23"/>
  <polygon class="cls-2" points="880.41 311.45 800.85 265.52 800.3 131.76 879.86 177.69 880.41 311.45"/>
  <polygon class="cls-2" points="895.63 311.45 975.18 265.52 975.73 131.76 896.18 177.69 895.63 311.45"/>
  <polygon class="cls-6" points="886.15 306.91 817.01 255.47 816.46 121.71 885.6 173.15 886.15 306.91"/>
  <polygon class="cls-6" points="889.21 307.23 958.36 255.78 958.91 122.03 889.76 173.47 889.21 307.23"/>
  <polygon class="cls-6" points="886.15 300.41 833.43 243.44 832.88 109.68 885.6 166.65 886.15 300.41"/>
  <polygon class="cls-6" points="889.21 300.41 941.94 243.44 942.49 109.68 889.76 166.65 889.21 300.41"/>
  <rect class="cls-1" x="883.74" y="306.73" width="10.82" height="10.82"/>
  <rect class="cls-11" x="884.01" y="292.99" width="103.33" height="5.85" transform="translate(1893.96 84.34) rotate(150)"/>
  <rect class="cls-11" x="788.3" y="292.1" width="107.03" height="5.27" transform="translate(260.15 -381.42) rotate(30)"/>
  <rect class="cls-11" x="720.67" y="193.93" width="146.74" height="5.85" transform="translate(990.89 -597.19) rotate(90)"/>
</svg>