<?xml version="1.0" encoding="UTF-8"?>
<svg id="Layer_1" data-name="Layer 1" xmlns="http://www.w3.org/2000/svg" viewBox="0 0 2252 4000">
  <defs>
    <style>
      .cls-1 {
        fill: #fff;
      }

      .cls-2 {
        fill: none;
        stroke-width: 23px;
      }

      .cls-2, .cls-3, .cls-4 {
        stroke: #fff;
        stroke-miterlimit: 10;
      }

      .cls-3, .cls-4 {
        stroke-width: 10px;
      }

      .cls-3, .cls-5 {
        fill: #414042;
      }

      .cls-6 {
        fill: #e81d2b;
      }

      .cls-4 {
        fill: #272e2e;
      }
    </style>
  </defs>
  <path class="cls-4" d="M823.37,1914.74c-13.38-15.64,12.3-21.64,39.57-34.19l15.58-7.17c27.27-12.55,60.22-10.05,73.6,5.59l1.17,1.36c13.38,15.64,2.11,38.49-25.16,51.04"/>
  <ellipse class="cls-1" cx="1104.12" cy="1803.19" rx="589.24" ry="593.04"/>
  <ellipse class="cls-5" cx="803.95" cy="1932.21" rx="184.31" ry="191.09" transform="translate(-1240.44 2379.72) rotate(-79.76)"/>
  <rect class="cls-1" x="818.89" y="1871.7" width="201.83" height="157.65" rx="78.33" ry="78.33" transform="translate(-930.43 842.72) rotate(-33.84)"/>
  <ellipse class="cls-5" cx="1134.74" cy="2064.48" rx="55.48" ry="56.31"/>
  <path class="cls-5" d="M1006.02,2253.1l-47.69-52.96c-7.64-8.48-5.7-24.01,4.31-34.68l126.84-135.15c10.02-10.68,24.33-12.46,31.97-3.98l47.69,52.96c7.64,8.48,5.7,24.01-4.31,34.68l-126.84,135.15c-10.02,10.68-24.33,12.46-31.97,3.98Z"/>
  <rect class="cls-5" x="872.36" y="2140.83" width="106.85" height="153.21" rx="15.1" ry="15.1" transform="translate(-1471.29 2049.69) rotate(-63.34)"/>
  <ellipse class="cls-5" cx="975.47" cy="2260.69" rx="43.74" ry="35.62"/>
  <path class="cls-3" d="M707.23,2198.02l13.17-58.25c2.97-13.15,20.24-16.37,27.75-5.17l45.72,68.18c7.51,11.2-2.02,25.95-15.32,23.71l-58.89-9.93c-8.7-1.47-14.38-9.94-12.43-18.54Z"/>
  <polygon class="cls-5" points="981.97 2119.77 941.51 2160.23 877.27 2126.8 938.69 2076.49 981.97 2119.77"/>
  <polygon class="cls-5" points="900.63 2118.36 839.17 2253.51 753.71 2126.37 900.63 2118.36"/>
  <rect class="cls-5" x="861.13" y="2110.07" width="58.99" height="39.86" transform="translate(-711.82 467.99) rotate(-21.26)"/>
  <ellipse class="cls-2" cx="808.48" cy="1933.13" rx="195.61" ry="185.23"/>
  <rect class="cls-5" x="837.66" y="2181.37" width="137.47" height="210.68" transform="translate(-1548.14 2447.46) rotate(-72.12)"/>
  <path class="cls-6" d="M1112.96,1237.42c77.33,0,152.31,15.13,222.86,44.97,33.91,14.34,66.63,32.1,97.24,52.78,30.33,20.49,58.86,44.03,84.79,69.96,25.93,25.93,49.47,54.45,69.96,84.79,20.68,30.61,38.44,63.32,52.78,97.24,29.84,70.55,44.97,145.53,44.97,222.86s-15.13,152.31-44.97,222.86c-14.34,33.91-32.1,66.63-52.78,97.24-20.49,30.33-44.03,58.86-69.96,84.79-25.93,25.93-54.45,49.47-84.79,69.96-30.61,20.68-63.32,38.44-97.24,52.78-70.55,29.84-145.53,44.97-222.86,44.97s-152.31-15.13-222.86-44.97c-33.91-14.34-66.63-32.1-97.24-52.78-30.33-20.49-58.86-44.03-84.79-69.96-25.93-25.93-49.46-54.45-69.96-84.79-20.68-30.61-38.44-63.32-52.78-97.24-29.84-70.55-44.97-145.53-44.97-222.86s15.13-152.31,44.97-222.86c14.34-33.91,32.1-66.63,52.78-97.24,20.49-30.33,44.03-58.86,69.96-84.79,25.93-25.93,54.45-49.46,84.79-69.96,30.61-20.68,63.32-38.44,97.24-52.78,70.55-29.84,145.53-44.97,222.86-44.97M1112.96,1172.22c-352.24,0-637.8,285.55-637.8,637.8s285.55,637.8,637.8,637.8,637.8-285.55,637.8-637.8-285.55-637.8-637.8-637.8h0Z"/>
  <rect class="cls-5" x="804.95" y="2156.5" width="104.43" height="119.35"/>
  <rect class="cls-6" x="1053.4" y="1204.44" width="125.95" height="1211.14" transform="translate(-844.41 986.74) rotate(-35.56)"/>
  <ellipse class="cls-3" cx="1192.58" cy="1603.98" rx="44.76" ry="37.3"/>
  <rect class="cls-5" x="1187.05" y="1559.28" width="100.58" height="14.8" transform="translate(-652.24 2210.87) rotate(-70.52)"/>
  <rect class="cls-5" x="1187.05" y="1559.28" width="100.58" height="14.8" transform="translate(-652.24 2210.87) rotate(-70.52)"/>
  <rect class="cls-5" x="1212.89" y="1439.01" width="14.8" height="100.58" transform="translate(-695.68 1299.09) rotate(-45)"/>
  <rect class="cls-5" x="1173.63" y="1425.24" width="100.58" height="14.8" transform="translate(-604.9 978.91) rotate(-35.56)"/>
  <path class="cls-3" d="M1396.59,1639.7c-7.01-21.33,2.41-43.33,21.03-49.15,18.62-5.82,39.39,6.75,46.4,28.08,7.01,21.33-2.41,43.33-21.03,49.15-18.62,5.82-39.39-6.75-46.4-28.08Z"/>
  <polygon class="cls-5" points="1460.41 1617.59 1456.13 1571.79 1442.08 1572.88 1446.36 1618.68 1460.41 1617.59"/>
  <polygon class="cls-5" points="1417.28 1582.4 1455.2 1583.82 1455.51 1569.77 1417.59 1568.35 1417.28 1582.4"/>
  <polygon class="cls-5" points="1416.65 1579.32 1470.82 1532.91 1461.55 1522.16 1407.38 1568.57 1416.65 1579.32"/>
  <path class="cls-3" d="M1275.09,1679.22c-7.01-21.33,2.41-43.33,21.03-49.15,18.62-5.82,39.39,6.75,46.4,28.08,7.01,21.33-2.41,43.33-21.03,49.15-18.62,5.82-39.39-6.75-46.4-28.08Z"/>
  <polygon class="cls-5" points="1295.79 1621.92 1333.71 1623.34 1334.02 1609.29 1296.1 1607.87 1295.79 1621.92"/>
  <polygon class="cls-5" points="1294.37 1620.44 1344.93 1570.11 1334.88 1560.08 1284.32 1610.42 1294.37 1620.44"/>
  <polygon class="cls-5" points="1336.86 1667.77 1332.58 1621.98 1318.53 1623.07 1322.81 1668.86 1336.86 1667.77"/>
  <polygon class="cls-5" points="1330.8 1560.82 1336.82 1579.12 1468.81 1537.87 1462.8 1519.57 1330.8 1560.82"/>
  <polygon class="cls-5" points="1177.83 1457.1 1298.53 1412.24 1275.88 1373.63 1177.83 1457.1"/>
  <polygon class="cls-5" points="1324.12 1800.32 1510.44 1734.54 1499.2 1708.72 1324.12 1800.32"/>
  <polygon class="cls-5" points="1116.37 1503.09 1164.39 1311.42 1136.66 1306.54 1116.37 1503.09"/>
  <polygon class="cls-5" points="1296.92 1556.74 1376.8 1490.8 1362.86 1476.86 1296.92 1556.74"/>
  <rect class="cls-1" x="946.17" y="2170.14" width="14.8" height="164.11" transform="translate(-1462.85 2629.83) rotate(-75.93)"/>
  <g>
    <rect class="cls-5" x="1020.68" y="1945.96" width="62.99" height="82.08" transform="translate(-1096.85 1326) rotate(-45)"/>
    <path class="cls-1" d="M1045.43,1942.78l50.97,50.97-37.47,37.47-50.97-50.97,37.47-37.47M1045.43,1928.64l-7.07,7.07-37.47,37.47-7.07,7.07,7.07,7.07,50.97,50.97,7.07,7.07,7.07-7.07,37.47-37.47,7.07-7.07-7.07-7.07-50.97-50.97-7.07-7.07h0Z"/>
  </g>
  <g>
    <path class="cls-5" d="M1007.96,2002.12c-32.72,0-59.34-26.62-59.34-59.34s26.62-59.34,59.34-59.34,59.34,26.62,59.34,59.34-26.62,59.34-59.34,59.34Z"/>
    <path class="cls-1" d="M1007.96,1888.44c30.01,0,54.34,24.33,54.34,54.34s-24.33,54.34-54.34,54.34-54.34-24.33-54.34-54.34,24.33-54.34,54.34-54.34M1007.96,1878.44c-35.48,0-64.34,28.86-64.34,64.34s28.86,64.34,64.34,64.34,64.34-28.86,64.34-64.34-28.86-64.34-64.34-64.34h0Z"/>
  </g>
  <g>
    <path class="cls-5" d="M1087.35,2059.19c-5.49,0-10.21-1.82-13.66-5.27-9.08-9.08-6.22-26.16,6.51-38.89,7.38-7.38,16.81-11.78,25.23-11.78,5.49,0,10.21,1.82,13.66,5.27,9.08,9.08,6.22,26.16-6.51,38.89-7.38,7.38-16.81,11.78-25.23,11.78Z"/>
    <path class="cls-1" d="M1105.44,2008.25c4,0,7.55,1.23,10.12,3.8,6.99,6.99,4.07,21.24-6.51,31.82-6.69,6.69-14.84,10.31-21.7,10.31-4,0-7.55-1.23-10.12-3.8-6.99-6.99-4.07-21.24,6.51-31.82,6.69-6.69,14.84-10.31,21.7-10.31M1105.44,1998.25h0c-9.87,0-20.35,4.83-28.77,13.24-14.71,14.71-17.57,34.9-6.51,45.96,4.4,4.4,10.35,6.73,17.2,6.73,9.87,0,20.35-4.83,28.77-13.24,6.49-6.49,10.95-14.42,12.57-22.33,1.9-9.27-.31-17.89-6.06-23.64-4.4-4.4-10.35-6.73-17.19-6.73h0Z"/>
  </g>
  <rect class="cls-5" x="1046.36" y="1977.45" width="52.99" height="60.45" transform="translate(-1105.41 1346.66) rotate(-45)"/>
</svg>