<?xml version="1.0" encoding="UTF-8"?>
<svg id="Layer_1" data-name="Layer 1" xmlns="http://www.w3.org/2000/svg" viewBox="0 0 1275.6 1275.6">
  <defs>
    <style>
      .cls-1 {
        fill: #e81d2b;
      }

      .cls-2 {
        fill: #272e2e;
      }

      .cls-2, .cls-3, .cls-4 {
        stroke: #fff;
        stroke-miterlimit: 10;
      }

      .cls-2, .cls-4 {
        stroke-width: 10px;
      }

      .cls-5 {
        fill: #fff;
      }

      .cls-3 {
        fill: none;
        stroke-width: 23px;
      }

      .cls-6, .cls-4 {
        fill: #414042;
      }
    </style>
  </defs>
  <path class="cls-2" d="M348.21,742.52c-13.38-15.64,12.3-21.64,39.57-34.19l15.58-7.17c27.27-12.55,60.22-10.05,73.6,5.59l1.17,1.36c13.38,15.64,2.11,38.49-25.16,51.04"/>
  <ellipse class="cls-5" cx="628.96" cy="630.97" rx="589.24" ry="593.04"/>
  <ellipse class="cls-6" cx="328.75" cy="759.85" rx="184.31" ry="191.09" transform="translate(-477.43 948.28) rotate(-79.76)"/>
  <rect class="cls-5" x="343.68" y="699.56" width="201.83" height="157.65" rx="78.33" ry="78.33" transform="translate(-358.15 379.45) rotate(-33.84)"/>
  <ellipse class="cls-6" cx="659.58" cy="892.26" rx="55.48" ry="56.31"/>
  <path class="cls-6" d="M530.86,1080.88l-47.69-52.96c-7.64-8.48-5.7-24.01,4.31-34.68l126.84-135.15c10.02-10.68,24.33-12.46,31.97-3.98l47.69,52.96c7.64,8.48,5.7,24.01-4.31,34.68l-126.84,135.15c-10.02,10.68-24.33,12.46-31.97,3.98h0Z"/>
  <rect class="cls-6" x="397.21" y="968.46" width="106.85" height="153.21" rx="15.1" ry="15.1" transform="translate(-685.52 978.87) rotate(-63.34)"/>
  <ellipse class="cls-6" cx="500.31" cy="1088.47" rx="43.74" ry="35.62"/>
  <path class="cls-4" d="M232.07,1025.8l13.17-58.25c2.97-13.15,20.24-16.37,27.75-5.17l45.72,68.18c7.51,11.2-2.02,25.95-15.32,23.71l-58.89-9.93c-8.7-1.47-14.38-9.94-12.43-18.54Z"/>
  <polygon class="cls-6" points="506.81 947.55 466.35 988.01 402.11 954.58 463.53 904.27 506.81 947.55"/>
  <polygon class="cls-6" points="425.47 946.14 364.01 1081.29 278.55 954.15 425.47 946.14"/>
  <rect class="cls-6" x="385.88" y="937.94" width="58.99" height="39.86" transform="translate(-319.06 215.8) rotate(-21.26)"/>
  <ellipse class="cls-3" cx="333.32" cy="760.91" rx="195.61" ry="185.23"/>
  <rect class="cls-6" x="362.52" y="1009.36" width="137.47" height="210.68" transform="translate(-762.01 1182.88) rotate(-72.12)"/>
  <path class="cls-1" d="M637.8,65.2c77.33,0,152.31,15.13,222.86,44.97,33.91,14.34,66.63,32.1,97.24,52.78,30.33,20.49,58.86,44.03,84.79,69.96,25.93,25.93,49.47,54.45,69.96,84.79,20.68,30.61,38.44,63.32,52.78,97.24,29.84,70.55,44.97,145.53,44.97,222.86s-15.13,152.31-44.97,222.86c-14.34,33.91-32.1,66.63-52.78,97.24-20.49,30.33-44.03,58.86-69.96,84.79-25.93,25.93-54.45,49.47-84.79,69.96-30.61,20.68-63.32,38.44-97.24,52.78-70.55,29.84-145.53,44.97-222.86,44.97s-152.31-15.13-222.86-44.97c-33.91-14.34-66.63-32.1-97.24-52.78-30.33-20.49-58.86-44.03-84.79-69.96s-49.46-54.45-69.96-84.79c-20.68-30.61-38.44-63.32-52.78-97.24-29.84-70.55-44.97-145.53-44.97-222.86s15.13-152.31,44.97-222.86c14.34-33.91,32.1-66.63,52.78-97.24,20.49-30.33,44.03-58.86,69.96-84.79s54.45-49.46,84.79-69.96c30.61-20.68,63.32-38.44,97.24-52.78,70.55-29.84,145.53-44.97,222.86-44.97M637.8,0C285.56,0,0,285.55,0,637.8s285.55,637.8,637.8,637.8,637.8-285.55,637.8-637.8S990.05,0,637.8,0h0Z"/>
  <rect class="cls-6" x="329.79" y="984.28" width="104.43" height="119.35"/>
  <rect class="cls-1" x="578.25" y="32.17" width="125.95" height="1211.14" transform="translate(-251.3 491.84) rotate(-35.56)"/>
  <ellipse class="cls-4" cx="717.42" cy="431.76" rx="44.76" ry="37.3"/>
  <rect class="cls-6" x="711.94" y="387.19" width="100.58" height="14.8" transform="translate(136.04 981.6) rotate(-70.52)"/>
  <rect class="cls-6" x="711.94" y="387.19" width="100.58" height="14.8" transform="translate(136.04 981.6) rotate(-70.52)"/>
  <rect class="cls-6" x="737.73" y="266.8" width="14.8" height="100.58" transform="translate(-5.97 619.76) rotate(-45)"/>
  <rect class="cls-6" x="698.48" y="252.98" width="100.58" height="14.8" transform="translate(-11.78 484.01) rotate(-35.56)"/>
  <path class="cls-4" d="M921.43,467.48c-7.01-21.33,2.41-43.33,21.03-49.15,18.62-5.82,39.39,6.75,46.4,28.08s-2.41,43.33-21.03,49.15c-18.62,5.82-39.39-6.75-46.4-28.08Z"/>
  <polygon class="cls-6" points="985.25 445.37 980.97 399.57 966.92 400.66 971.2 446.46 985.25 445.37"/>
  <polygon class="cls-6" points="942.12 410.18 980.04 411.6 980.35 397.55 942.43 396.13 942.12 410.18"/>
  <polygon class="cls-6" points="941.49 407.1 995.66 360.69 986.39 349.94 932.22 396.35 941.49 407.1"/>
  <path class="cls-4" d="M799.93,507c-7.01-21.33,2.41-43.33,21.03-49.15,18.62-5.82,39.39,6.75,46.4,28.08s-2.41,43.33-21.03,49.15c-18.62,5.82-39.39-6.75-46.4-28.08Z"/>
  <polygon class="cls-6" points="820.63 449.7 858.55 451.12 858.86 437.07 820.94 435.65 820.63 449.7"/>
  <polygon class="cls-6" points="819.21 448.22 869.77 397.89 859.72 387.86 809.16 438.2 819.21 448.22"/>
  <polygon class="cls-6" points="861.7 495.55 857.42 449.76 843.37 450.85 847.65 496.64 861.7 495.55"/>
  <polygon class="cls-6" points="855.64 388.6 861.66 406.9 993.65 365.65 987.64 347.35 855.64 388.6"/>
  <polygon class="cls-6" points="702.67 284.88 823.37 240.02 800.72 201.41 702.67 284.88"/>
  <polygon class="cls-6" points="848.96 628.1 1035.28 562.32 1024.04 536.5 848.96 628.1"/>
  <polygon class="cls-6" points="641.21 330.87 689.23 139.2 661.5 134.32 641.21 330.87"/>
  <polygon class="cls-6" points="821.76 384.52 901.64 318.58 887.7 304.64 821.76 384.52"/>
  <rect class="cls-5" x="471.04" y="998.12" width="14.8" height="164.11" transform="translate(-685.64 1281.66) rotate(-75.93)"/>
  <g>
    <rect class="cls-6" x="545.52" y="773.76" width="62.99" height="82.08" transform="translate(-407.15 646.66) rotate(-45)"/>
    <path class="cls-5" d="M570.27,770.56l50.97,50.97-37.47,37.47-50.97-50.97,37.47-37.47M570.27,756.42l-7.07,7.07-37.47,37.47-7.07,7.07,7.07,7.07,50.97,50.97,7.07,7.07,7.07-7.07,37.47-37.47,7.07-7.07-7.07-7.07-50.97-50.97-7.07-7.07h0Z"/>
  </g>
  <g>
    <path class="cls-6" d="M532.8,829.9c-32.72,0-59.34-26.62-59.34-59.34s26.62-59.34,59.34-59.34,59.34,26.62,59.34,59.34-26.62,59.34-59.34,59.34Z"/>
    <path class="cls-5" d="M532.8,716.22c30.01,0,54.34,24.33,54.34,54.34s-24.33,54.34-54.34,54.34-54.34-24.33-54.34-54.34,24.33-54.34,54.34-54.34M532.8,706.22c-35.48,0-64.34,28.86-64.34,64.34s28.86,64.34,64.34,64.34,64.34-28.86,64.34-64.34-28.86-64.34-64.34-64.34h0Z"/>
  </g>
  <g>
    <path class="cls-6" d="M612.19,886.97c-5.49,0-10.21-1.82-13.66-5.27-9.08-9.08-6.22-26.16,6.51-38.89,7.38-7.38,16.81-11.78,25.23-11.78,5.49,0,10.21,1.82,13.66,5.27,9.08,9.08,6.22,26.16-6.51,38.89-7.38,7.38-16.81,11.78-25.23,11.78Z"/>
    <path class="cls-5" d="M630.28,836.03c4,0,7.55,1.23,10.12,3.8,6.99,6.99,4.07,21.24-6.51,31.82-6.69,6.69-14.84,10.31-21.7,10.31-4,0-7.55-1.23-10.12-3.8-6.99-6.99-4.07-21.24,6.51-31.82,6.69-6.69,14.84-10.31,21.7-10.31M630.28,826.03h0c-9.87,0-20.35,4.83-28.77,13.24-14.71,14.71-17.57,34.9-6.51,45.96,4.4,4.4,10.35,6.73,17.2,6.73,9.87,0,20.35-4.83,28.77-13.24,6.49-6.49,10.95-14.42,12.57-22.33,1.9-9.27-.31-17.89-6.06-23.64-4.4-4.4-10.35-6.73-17.19-6.73h0Z"/>
  </g>
  <rect class="cls-6" x="571.2" y="805.23" width="52.99" height="60.45" transform="translate(-415.7 667.33) rotate(-45)"/>
</svg>