<?xml version="1.0" encoding="UTF-8"?>
<svg id="Layer_1" data-name="Layer 1" xmlns="http://www.w3.org/2000/svg" viewBox="0 0 1375.59 1600">
  <defs>
    <style>
      .cls-1, .cls-2, .cls-3, .cls-4, .cls-5, .cls-6 {
        stroke: #ed1c24;
        stroke-miterlimit: 10;
      }

      .cls-1, .cls-2, .cls-4, .cls-5 {
        fill: none;
      }

      .cls-1, .cls-3 {
        stroke-width: 100px;
      }

      .cls-7 {
        fill: #ed1c24;
      }

      .cls-2 {
        stroke-width: 4px;
      }

      .cls-3 {
        fill: #f1f2f2;
      }

      .cls-4 {
        stroke-width: .25px;
      }

      .cls-5 {
        stroke-width: 5px;
      }

      .cls-6 {
        fill: #fff;
      }
    </style>
  </defs>
  <ellipse class="cls-6" cx="701.73" cy="801.98" rx="617.36" ry="597.45"/>
  <ellipse class="cls-1" cx="687.8" cy="790.11" rx="637.8" ry="638"/>
  <path class="cls-4" d="M971.03,606.28c4.64,10.07,4.77,21.56,4.82,32.65.12,29.94.25,59.87.37,89.81.04,10.58,0,21.58-4.62,31.1-7.16,14.78-25.75,22.93-41.47,18.17"/>
  <path class="cls-5" d="M458.15,571.11c24.63-43.98,50.44-89.34,91.01-119.25,38.89-28.68,87.45-40.26,134.7-50.4,23.58-5.06,47.43-9.94,71.54-9.58,69.08,1.02,129.57,44,185.03,85.19,13.73,10.19,27.73,20.67,37.26,34.87,9.53,14.2,13.88,33.08,6.72,48.61,21.47,4.72,38.86,18.6,48.98,38.12,10.12,19.52,13.96,41.64,16.5,63.48,2.21,18.98,3.09,39.83-7.92,55.45-6.22,8.81-15.52,14.85-24.36,21.02-11.43,7.99-22.8,16.96-29.27,29.32-3.85,7.36-5.8,15.67-10.27,22.67-20.04,31.4-75.3,19.42-96.92,49.75"/>
  <path class="cls-5" d="M959.74,579.63c21.14,33.03,31.51,72.84,29.19,111.99-.34,5.77-1,11.68-3.59,16.86-3.55,7.08-10.26,11.94-15.51,17.88-8.63,9.76-13.24,22.43-21.04,32.86-4.51,6.04-10.02,11.24-15.5,16.41-26.42,24.94-53.66,50.42-87.32,64.09"/>
  <path class="cls-5" d="M816.39,851.34c-14.97,10.19-30.6,19.37-46.21,28.55-26.77,15.74-54.55,31.83-85.4,35.4"/>
  <path class="cls-5" d="M778.15,687.89l-3.99,6.84c1.47-14.13.87-28.47-1.78-42.43"/>
  <path class="cls-5" d="M755.46,713.23c-20.5-10.73-34.1-33.5-33.82-56.64"/>
  <path class="cls-7" d="M828.24,779.32c7.57,9.77,7.4,24.35.28,34.26-.79,1.1-.19,2.78.9,3.42,1.26.74,2.63.2,3.42-.9,8.55-11.9,7.82-28.85-1.06-40.32-.83-1.07-2.67-.87-3.54,0-1.05,1.05-.83,2.46,0,3.54h0Z"/>
  <path class="cls-7" d="M803.27,795.33c-2.22,9.61.21,19.7,6.41,27.34.85,1.05,2.65.89,3.54,0,1.04-1.04.85-2.48,0-3.54-5.02-6.19-6.91-14.74-5.12-22.48.72-3.13-4.1-4.47-4.82-1.33h0Z"/>
  <path class="cls-7" d="M855.52,763.41c7.43,12.59,10.72,27.28,9.48,41.84-.12,1.35,1.23,2.5,2.5,2.5,1.45,0,2.38-1.15,2.5-2.5,1.32-15.39-2.31-31.07-10.16-44.36-1.63-2.77-5.96-.26-4.32,2.52h0Z"/>
  <path class="cls-7" d="M819.98,674.62c-6.51-17.53-18.45-32.72-33.85-43.32-4.28-2.94-8.82-5.49-13.55-7.62-1.23-.55-2.69-.36-3.42.9-.63,1.07-.34,2.86.9,3.42,16.06,7.22,29.67,19.38,38.66,34.52,2.54,4.28,4.71,8.77,6.45,13.43.47,1.26,1.69,2.13,3.08,1.75,1.22-.33,2.22-1.8,1.75-3.08h0Z"/>
  <path class="cls-7" d="M709.47,795.35c3.22,0,3.22-5,0-5s-3.22,5,0,5h0Z"/>
  <path class="cls-7" d="M727.41,817.89c3.86,5.18,10.06,7.11,16.34,6.29,6.78-.88,12.54-4.47,16.84-9.71,4.77-5.81,7.77-12.69,11.29-19.27s7.73-12.59,12.76-18.03c5.68-6.14,12.19-11.42,19.38-15.68,2.77-1.64.25-5.96-2.52-4.32-12.47,7.4-23.11,17.76-30.79,30.06-3.76,6.02-6.5,12.6-10.17,18.66-3.16,5.22-7.22,10.23-13.15,12.32-5.21,1.84-12.1,1.94-15.66-2.85-.81-1.08-2.16-1.63-3.42-.9-1.07.62-1.71,2.33-.9,3.42h0Z"/>
  <path class="cls-7" d="M701.95,789.44c-1.22-5.75,2.58-11.55,7.19-14.67,5.87-3.98,13.13-5.08,19.99-6.18,1.33-.21,2.08-1.88,1.75-3.08-.39-1.42-1.74-1.96-3.08-1.75-7.82,1.26-16.08,2.69-22.51,7.66-5.87,4.53-9.74,11.84-8.15,19.34.67,3.15,5.49,1.81,4.82-1.33h0Z"/>
  <path class="cls-7" d="M1319.93,921.58c2.06,4.13,4.13,8.26,6.19,12.39.59,1.17,2.34,1.6,3.42.9,1.2-.77,1.52-2.17.9-3.42-2.06-4.13-4.13-8.26-6.19-12.39-.59-1.17-2.34-1.6-3.42-.9-1.2.77-1.52,2.17-.9,3.42h0Z"/>
  <path class="cls-7" d="M663.6,831.89c-8-5.86-13.43-14.79-15.29-24.49-.25-1.33-1.85-2.08-3.08-1.75-1.39.38-2,1.74-1.75,3.08,2.12,11.04,8.56,20.86,17.59,27.48,1.09.8,2.79.18,3.42-.9.74-1.27.2-2.62-.9-3.42h0Z"/>
  <path class="cls-7" d="M641.17,803.11c16.33,7.98,35.81,17.89,38.77,37.9.69,4.65.12,9.53-1.97,13.76-1.42,2.87,2.89,5.41,4.32,2.52,4.55-9.19,3.29-19.8-1.2-28.77s-12.82-16.08-21.53-21.36c-5.12-3.11-10.49-5.75-15.87-8.37-1.21-.59-2.7-.33-3.42.9-.64,1.1-.32,2.83.9,3.42h0Z"/>
  <path class="cls-7" d="M630.1,808.29c1.54,19.34,11.52,37.69,26.77,49.67,4.34,3.41,9.01,6.31,14.05,8.56,1.23.55,2.69.36,3.42-.9.62-1.07.34-2.87-.9-3.42-16.54-7.4-29.51-21.92-35.27-39.08-1.61-4.8-2.67-9.78-3.08-14.83-.11-1.35-1.07-2.5-2.5-2.5-1.27,0-2.61,1.15-2.5,2.5h0Z"/>
  <path class="cls-7" d="M753.48,643.44c8.24-1.25,16.84,5.44,18.11,13.89.2,1.34,1.89,2.07,3.08,1.75,1.43-.39,1.95-1.73,1.75-3.08-.83-5.51-4.21-10.27-8.63-13.53s-10.12-4.69-15.63-3.86c-1.34.2-2.07,1.88-1.75,3.08.39,1.43,1.74,1.95,3.08,1.75h0Z"/>
  <path class="cls-7" d="M955.99,584.3c-11.11,3.86-22.96,5.04-34.63,3.62s-22.54-5.74-32.43-12.01c-5.27-3.34-10.33-7.01-15.65-10.26s-10.7-5.85-16.51-7.77c-11.27-3.73-23.32-4.64-35.12-3.9s-24.33,3.16-36.23,6.01c-6.06,1.45-12.08,3.03-18.1,4.61s-12.22,3.6-18.46,4.35c-3.16.38-6.32.32-9.41-.45-2.86-.71-5.57-1.83-8.23-3.08-5.55-2.59-11.01-5.26-16.86-7.12-11.42-3.64-23.55-4.89-35.5-4.36-24.67,1.09-48.53,9.11-71.02,18.82-2.75,1.19-5.49,2.41-8.22,3.66-1.23.56-1.53,2.34-.9,3.42.74,1.26,2.19,1.46,3.42.9,22.08-10.1,45.52-18.92,69.85-21.3,11.64-1.14,23.48-.77,34.89,1.97,5.8,1.4,11.42,3.38,16.82,5.94s10.95,5.57,17.01,6.48c6.75,1.02,13.38-.64,19.88-2.31,5.92-1.52,11.82-3.1,17.73-4.61,11.86-3.03,23.84-5.88,36.01-7.28,11.58-1.33,23.44-1.41,34.84,1.29,5.69,1.35,11.2,3.35,16.38,6.07,5.46,2.87,10.53,6.39,15.65,9.81s10.29,6.75,15.89,9.31c5.31,2.42,10.85,4.3,16.56,5.52,11.64,2.5,23.77,2.48,35.39-.14,2.81-.63,5.57-1.43,8.29-2.38,1.27-.44,2.12-1.71,1.75-3.08-.34-1.24-1.79-2.19-3.08-1.75h0Z"/>
  <path class="cls-7" d="M547.3,593.68c-15.92,12.69-26.51,31.82-29.28,51.95-.79,5.71-1,11.46-.52,17.2.11,1.35,1.07,2.5,2.5,2.5,1.27,0,2.61-1.15,2.5-2.5-1.6-19.22,4.49-38.93,16.61-53.96,3.47-4.3,7.41-8.22,11.73-11.66,1.06-.84.88-2.66,0-3.54-1.04-1.04-2.48-.84-3.54,0h0Z"/>
  <path class="cls-7" d="M540.23,580.26c-9.54,9.91-21.14,17.92-33.88,23.14-3.7,1.52-7.49,2.81-11.34,3.88-3.09.86-1.78,5.69,1.33,4.82,14.06-3.93,27.17-10.8,38.47-20.03,3.15-2.58,6.14-5.34,8.96-8.27,2.23-2.32-1.3-5.86-3.54-3.54h0Z"/>
  <path class="cls-7" d="M554.73,583.33c-3.61,4.81-11.06,4.45-16.06,1.78-6.6-3.52-9.37-11.18-10.34-18.2s-.63-15.13.72-22.43c1.26-6.84,3.44-13.58,7.08-19.55s9.31-11.35,16.3-13.7c3.03-1.02,1.73-5.85-1.33-4.82-15.34,5.16-23.54,20.35-26.61,35.39-1.65,8.12-2.22,16.69-1.19,24.92s4.36,17.82,12.27,22.4c7.55,4.37,17.93,4.1,23.46-3.27.81-1.08.17-2.79-.9-3.42-1.28-.75-2.61-.19-3.42.9h0Z"/>
  <path class="cls-7" d="M547.35,514.7c5.19-18.49,20.97-31.63,37.84-39.41,10.15-4.68,21.01-7.7,31.84-10.34,2.67-.65,5.34-1.27,8.01-1.88s5.55-1.39,8.37-1.76c4.61-.6,8.87.44,12.26,3.7,8.82,8.48,6.59,21.76,4.59,32.53-.25,1.33.37,2.7,1.75,3.08,1.22.33,2.83-.41,3.08-1.75,2.07-11.16,4.12-23.8-2.83-33.76-2.78-4-6.74-7.3-11.55-8.47-6.08-1.47-12.42.54-18.33,1.91-21.91,5.07-44.54,11.24-61.65,26.64-8.42,7.58-15.12,17.2-18.2,28.17-.87,3.1,3.95,4.43,4.82,1.33h0Z"/>
  <path class="cls-7" d="M577.55,525.48c.54-3.54,2.5-5.69,5.7-7.31s7.34-2.36,11.07-2.6c4.02-.26,8.04.13,12.06-.15,4.29-.3,8.56-1.05,12.48-2.88,4.12-1.92,7.37-5.36,8.42-9.85.73-3.13-4.09-4.47-4.82-1.33-.8,3.41-3.07,5.54-6.39,6.99s-7.52,2.01-11.32,2.16c-4.02.16-8.03-.2-12.04.19-4.22.42-8.46,1.29-12.24,3.29s-7.04,5.66-7.73,10.16c-.2,1.33.34,2.69,1.75,3.08,1.18.33,2.87-.4,3.08-1.75h0Z"/>
  <path class="cls-7" d="M580.98,552.84c6.21-5.15,12.41-10.29,18.62-15.44,1.04-.86.89-2.64,0-3.54-1.03-1.03-2.49-.86-3.54,0-6.21,5.15-12.41,10.29-18.62,15.44-1.04.86-.89,2.64,0,3.54,1.03,1.03,2.49.86,3.54,0h0Z"/>
  <path class="cls-7" d="M661.94,507.33c.11,1.21.1,2.41,0,3.62-.05.59.04-.16-.04.28-.05.28-.1.55-.15.82-.12.58-.27,1.14-.45,1.71-.16.49-.33.98-.53,1.46.21-.51-.1.21-.17.35-.15.31-.31.62-.47.93-.54,1-1.16,1.95-1.83,2.86-.09.12-.17.23-.26.35.06-.08.29-.36-.01,0-.16.2-.32.4-.49.59-.41.48-.83.96-1.26,1.42-.84.89-1.72,1.75-2.63,2.57-2.06,1.87-3.77,3.18-5.82,4.69-8.5,6.24-18.4,11.54-24.79,20.16-3.41,4.6-4.84,9.99-4.07,15.66.18,1.34,1.9,2.07,3.08,1.75,1.44-.4,1.93-1.73,1.75-3.08.07.51-.02-.3-.04-.45-.02-.29-.04-.58-.05-.88-.02-.57,0-1.14.03-1.71.02-.28.05-.56.08-.83-.07.62.04-.23.06-.36.1-.54.22-1.07.37-1.59s.33-1.03.52-1.54c.05-.13.1-.25.15-.38-.03.08-.21.46,0,.04.13-.28.26-.56.4-.83.5-.99,1.09-1.94,1.74-2.84.07-.1.51-.69.38-.52s.25-.31.34-.42c.39-.48.8-.95,1.22-1.41.82-.89,1.68-1.74,2.57-2.56,2-1.84,3.78-3.23,5.74-4.67,8.42-6.21,18.24-11.45,24.74-19.86,3.4-4.4,5.43-9.69,4.92-15.32-.12-1.34-1.06-2.5-2.5-2.5-1.26,0-2.62,1.15-2.5,2.5h0Z"/>
  <path class="cls-7" d="M824.74,844.88c6.58-2.22,13.16-4.45,19.74-6.67l-1.33-4.82c-8.65,3.25-17.3,6.49-25.94,9.74-1.26.47-2.13,1.69-1.75,3.08.33,1.21,1.8,2.22,3.08,1.75,8.65-3.25,17.3-6.49,25.94-9.74,1.26-.47,2.13-1.69,1.75-3.08-.34-1.25-1.79-2.18-3.08-1.75-6.58,2.22-13.16,4.45-19.74,6.67-3.03,1.03-1.73,5.86,1.33,4.82h0Z"/>
  <path class="cls-7" d="M994.33,777.15c17.34-4.13,34.82,1.08,50.11,9.36,8.17,4.42,15.88,9.67,23.31,15.24s14.03,10.77,20.59,16.65c6,5.37,11.91,11.52,14.96,19.12,3.06,7.65,2.69,15.84-.21,23.48-6.31,16.6-22.36,26.16-38.17,32.19-9.08,3.46-18.43,6.26-27.75,8.99-9.86,2.88-19.8,5.52-29.79,7.9-19.94,4.76-40.11,8.53-60.43,11.28-17.85,2.42-35.8,4.09-53.73,5.8-18.21,1.74-36.42,3.5-54.55,6.02-17.76,2.46-35.44,5.66-52.75,10.39-17.16,4.69-33.95,10.93-49.72,19.21-3.84,2.02-7.61,4.16-11.32,6.42-2.74,1.67-.23,6,2.52,4.32,15.37-9.37,31.92-16.55,49.07-21.96,17.31-5.46,35.12-9.2,53.04-12.01,18.16-2.85,36.46-4.75,54.75-6.53,18.4-1.78,36.81-3.41,55.16-5.69,20.35-2.52,40.58-5.95,60.59-10.42,20.08-4.49,40.06-9.86,59.55-16.5,17.15-5.84,34.7-14.05,44.46-30.11,4.41-7.25,7.09-15.9,6.34-24.44-.78-8.79-4.98-16.52-10.66-23.12-5.68-6.59-12.59-12.04-19.36-17.46-7.41-5.94-14.99-11.7-22.97-16.86-15.17-9.81-32.6-17.97-51.04-17.74-4.49.06-8.97.63-13.34,1.67-3.13.75-1.8,5.57,1.33,4.82h0Z"/>
  <path class="cls-7" d="M625.88,991.43c-4.82.14-9.64.29-14.46.43-4.56.14-9.17.5-13.72.35-3.24-.11-5.84-1.31-6.73-4.47-.78-2.78-.11-5.71,1.47-8.16,2.28-3.54,6-5.96,9.44-8.25,1.39-.93,1.86-3.52,0-4.32-9.85-4.25-20.29-1.94-29.63,2.54-9.42,4.52-17.41,11.37-26.51,16.42-4.31,2.39-8.85,4.38-13.71,5.32-2.33.45-4.72.57-7.09.39-1.95-.15-4.51-.41-6.06-1.74-3.07-2.62.87-7.36,2.89-9.38,3.62-3.63,7.96-6.73,12.1-9.74,9.77-7.09,20.24-13.17,31.23-18.16,1.23-.56,1.53-2.34.9-3.42-.74-1.26-2.19-1.46-3.42-.9-10.17,4.62-19.91,10.18-29.04,16.6-4.62,3.25-9.1,6.71-13.4,10.36-3.55,3.02-7.45,7.46-7.32,12.44.07,2.66,1.42,5.03,3.59,6.54s4.79,1.95,7.31,2.26c5.21.63,10.54-.29,15.45-2.07,10.34-3.74,18.77-10.71,28.01-16.42,9.22-5.7,21.37-11.42,32.2-6.75v-4.32c-6.84,4.57-14.65,10.58-13.6,19.82.46,4.11,2.67,7.77,6.6,9.38,2.22.91,4.67,1.04,7.05,1,2.68-.05,5.36-.15,8.04-.23,6.15-.18,12.3-.37,18.45-.55,3.21-.1,3.22-5.1,0-5h0Z"/>
  <path class="cls-7" d="M518.85,983.04c-11.24,9.41-27.44,12.93-41.52,8.7-3.35-1.01-6.59-2.69-8.17-5.97-1.39-2.88-1.33-6.37-.69-9.44,1.38-6.62,5.31-12.61,10.21-17.17,5.47-5.09,12.6-8.62,20.06-9.51,1.34-.16,2.5-1.04,2.5-2.5,0-1.23-1.15-2.66-2.5-2.5-15.58,1.84-30.12,13.02-34.59,28.33-1.14,3.91-1.53,8.22-.5,12.2,1.09,4.19,3.93,7.59,7.76,9.57s8.3,2.9,12.62,3.41c4.21.5,8.45.39,12.65-.19,9.46-1.3,18.38-5.26,25.69-11.39,1.04-.87.9-2.64,0-3.54-1.03-1.03-2.5-.87-3.54,0h0Z"/>
  <path class="cls-7" d="M482.52,960.78c2.49-11.24,15.07-16.36,24.1-21.41,11.78-6.59,22.36-15.41,30.99-25.79,4.88-5.88,9.17-12.22,12.76-18.96,1.51-2.84-2.81-5.37-4.32-2.52-6.31,11.89-14.82,22.47-25.05,31.22-5.07,4.34-10.57,8.16-16.38,11.45-5.18,2.93-10.56,5.56-15.39,9.07-5.38,3.92-10.05,8.95-11.53,15.62-.69,3.14,4.13,4.47,4.82,1.33h0Z"/>
  <path class="cls-7" d="M517.88,816.41c-19.76-4.23-40.38-3.95-60.02.84-5.51,1.34-10.92,3.05-16.21,5.1-1.26.49-2.13,1.68-1.75,3.08.33,1.2,1.81,2.24,3.08,1.75,18.24-7.06,37.93-9.91,57.42-8.33,5.43.44,10.82,1.25,16.15,2.39,3.14.67,4.48-4.15,1.33-4.82h0Z"/>
  <path class="cls-7" d="M522.98,821.29c7.93,16.8,17.07,33.02,27.38,48.48,2.9,4.34,5.88,8.62,8.95,12.84.79,1.09,2.17,1.63,3.42.9,1.08-.63,1.7-2.32.9-3.42-10.93-15.02-20.76-30.83-29.37-47.3-2.42-4.63-4.74-9.3-6.97-14.02-.58-1.22-2.33-1.54-3.42-.9-1.25.73-1.48,2.19-.9,3.42h0Z"/>
  <path class="cls-7" d="M402.24,653.77c-18.65,3.54-33.41,16.26-44.33,31.2-5.6,7.66-10.29,15.97-14.38,24.52-4.76,9.94-8.9,20.26-12.36,30.73-3.8,11.51-6.42,23.31-7.31,35.41s-.43,24.72-1.62,37.03c-1.02,10.43-3.63,20.63-8.04,30.16-4.07,8.8-9.39,17.02-15.45,24.58-12.73,15.86-28.33,29.17-44.12,41.87-1.92,1.55-3.86,3.09-5.79,4.63-1.06.84-.88,2.66,0,3.54,1.04,1.04,2.48.84,3.54,0,15.78-12.55,31.53-25.41,44.91-40.57,13.08-14.82,23.84-32.09,28.05-51.61,2.6-12.06,2.64-24.44,2.95-36.71.16-6.22.4-12.44,1.1-18.62.67-5.8,1.83-11.54,3.29-17.2,2.89-11.19,6.96-22.09,11.53-32.7,3.74-8.7,8.01-17.21,13.06-25.23,9.45-14.99,22.41-29.08,39.76-34.57,2.15-.68,4.33-1.22,6.54-1.64,1.33-.25,2.08-1.85,1.75-3.08-.38-1.39-1.74-2-3.08-1.75h0Z"/>
  <path class="cls-7" d="M385.59,632.3c-16.69,10.11-35.9,14.52-54.89,17.94s-36.49,5.73-54.05,11.54c-16.52,5.46-32.54,13.89-43.91,27.36-6.65,7.89-11.53,17-16.21,26.15-4.83,9.45-9.42,19.02-13.76,28.7-8.68,19.34-16.42,39.1-23.15,59.21-.85,2.53-1.68,5.07-2.49,7.62-.99,3.07,3.84,4.39,4.82,1.33,6.42-20,13.8-39.69,22.18-58.95,4.17-9.58,8.58-19.07,13.22-28.43s9.07-18.45,14.92-26.85c10.03-14.39,25-23.81,41.27-29.77,17.07-6.26,35.06-9.02,52.9-12.1,18.98-3.28,38.19-7.1,55.47-15.96,2.11-1.08,4.18-2.24,6.21-3.47,2.75-1.66.24-5.99-2.52-4.32h0Z"/>
  <path class="cls-7" d="M386.52,669.35c-1.31,19.9-2.63,39.87-1.48,59.81,1.02,17.77,4.02,35.52,10.54,52.15,6.02,15.38,14.87,29.82,27.1,41.05,6.76,6.21,14.47,11.26,22.32,15.97,8.57,5.14,17.22,10.14,25.84,15.2,17.61,10.34,35.22,20.69,52.83,31.03,2.15,1.26,4.3,2.52,6.44,3.78,2.78,1.63,5.3-2.69,2.52-4.32-17.33-10.18-34.65-20.35-51.98-30.53-8.73-5.13-17.47-10.26-26.2-15.39-7.87-4.62-15.87-9.21-23.05-14.88-12.78-10.08-22.32-23.49-28.93-38.29-6.96-15.59-10.54-32.54-11.99-49.5-1.67-19.57-.7-39.25.55-58.81.16-2.43.32-4.86.48-7.29.09-1.35-1.21-2.5-2.5-2.5-1.43,0-2.41,1.15-2.5,2.5h0Z"/>
  <path class="cls-7" d="M251.15,911.09c-19.38,1.16-37.48,11.63-48.75,27.35-3.16,4.41-5.68,9.23-7.58,14.31-.47,1.26.53,2.74,1.75,3.08,1.4.39,2.6-.48,3.08-1.75,6.15-16.43,20.35-29.54,36.91-35.11,4.73-1.59,9.62-2.58,14.6-2.88,3.2-.19,3.22-5.19,0-5h0Z"/>
  <path class="cls-7" d="M501.59,935.03l-50.13,9.36c-16.73,3.12-33.46,6.24-50.19,9.38-16.11,3.02-32.22,6.12-48.12,10.11-15.86,3.97-31.42,8.94-46.54,15.18s-29.79,13.41-44.41,20.72c-1.85.92-3.69,1.85-5.54,2.77-2.88,1.44-.35,5.76,2.52,4.32,14.48-7.26,28.98-14.52,43.86-20.93,14.96-6.44,30.34-11.7,46.09-15.86,15.77-4.17,31.78-7.38,47.8-10.41,16.57-3.14,33.15-6.2,49.73-9.3l49.88-9.32c2.12-.4,4.24-.79,6.36-1.19,1.33-.25,2.08-1.85,1.75-3.08-.38-1.39-1.74-1.99-3.08-1.75h0Z"/>
  <path class="cls-7" d="M246.29,1011.7c-8.51,14-13.05,30.35-13.05,46.73,0,4.73.42,9.44,1.15,14.11.21,1.33,1.88,2.07,3.08,1.75,1.42-.39,1.96-1.74,1.75-3.08-2.4-15.25-.36-31.08,5.46-45.35,1.65-4.03,3.67-7.91,5.93-11.63,1.68-2.76-2.65-5.27-4.32-2.52h0Z"/>
  <path class="cls-7" d="M251.7,1011.61c10.41-2.79,20.81-5.58,31.22-8.37,3.1-.83,1.79-5.66-1.33-4.82-10.41,2.79-20.81,5.58-31.22,8.37-3.1.83-1.79,5.66,1.33,4.82h0Z"/>
  <path class="cls-7" d="M278.26,998.01c18.48,18.61,36.16,38,52.98,58.11,4.76,5.7,9.45,11.45,14.08,17.26.84,1.06,2.66.88,3.54,0,1.04-1.04.84-2.48,0-3.54-16.33-20.52-33.53-40.34-51.56-59.38-5.1-5.39-10.27-10.72-15.5-15.99-2.27-2.29-5.81,1.25-3.54,3.54h0Z"/>
  <path class="cls-7" d="M716.57,1103.14c-11.48-2.13-21.1,4.53-29.74,11.21-4.37,3.38-8.67,6.9-13.44,9.72-5.16,3.05-10.91,5-16.86,5.79-12.75,1.68-25.68-1.27-37.95-4.49-12.86-3.37-25.56-7.3-38.77-9.1-26.46-3.61-53.15-.97-79.7-.21-25.57.73-52.11-.29-75.57-11.6-11.44-5.51-21.84-13.01-33.53-18.02-5.85-2.51-11.79-4.17-18.1-5-4.63-.61-9.81-.98-13.89-3.28-1.88-1.06-3.13-2.39-4.03-4.42-.55-1.23-2.35-1.52-3.42-.9-1.27.74-1.45,2.18-.9,3.42,4.63,10.44,18.96,9.03,28.16,11.27,12.41,3.02,23.18,10.27,34.16,16.48,11.38,6.44,23.35,11.21,36.18,13.84,12.83,2.63,25.97,3.41,39.04,3.41,26.67,0,53.34-3.19,80.01-1.2,6.5.48,12.97,1.29,19.36,2.56,6.54,1.3,12.99,3.05,19.41,4.81,12.82,3.51,25.82,7.3,39.19,7.84,6.3.25,12.72-.31,18.78-2.1s11.13-4.61,16.06-8.14c4.59-3.29,8.9-6.96,13.5-10.23,4.17-2.96,8.65-5.71,13.72-6.75,2.26-.46,4.67-.49,6.98-.07,1.33.25,2.7-.37,3.08-1.75.33-1.22-.41-2.83-1.75-3.08h0Z"/>
  <path class="cls-7" d="M664.76,1138.86c27.38,6.45,54.3,14.82,80.51,25.06,7.31,2.86,14.55,5.86,21.74,9,1.24.54,2.68.36,3.42-.9.62-1.06.35-2.88-.9-3.42-25.97-11.37-52.71-20.95-80.02-28.56-7.76-2.16-15.57-4.16-23.42-6.01-3.13-.74-4.46,4.08-1.33,4.82h0Z"/>
  <path class="cls-7" d="M824.05,1080.1c22.22-.45,44.41,3.16,65.36,10.61,5.89,2.09,11.65,4.49,17.28,7.19,1.22.58,2.7.34,3.42-.9.64-1.09.33-2.84-.9-3.42-20.73-9.91-43.14-15.98-66.04-17.89-6.36-.53-12.75-.72-19.13-.59-3.21.07-3.22,5.07,0,5h0Z"/>
  <path class="cls-2" d="M752.42,970.26c58.5,26.78,110,75.54,152.07,124.23,14.71,2.48,29.11-5.98,40.08-16.1,10.97-10.12,20.22-22.32,32.86-30.24,10.89-6.82,23.59-10.02,36.05-13.12,26.16-6.5,52.64-13.05,79.6-13.14"/>
  <path class="cls-2" d="M1110.57,1105.74c-2.12-28.79-17.4-80.65,2.53-104.71-24.04-15.04-48.82-29.1-73.25-43.56-25.14-14.88-50.86-29.98-79.44-35.98"/>
  <path class="cls-2" d="M920.39,1178.93c18.99,4.65,39.96.43,55.68-11.19,8.09-5.98,14.72-13.69,22.34-20.26,23.12-19.92,55.71-28.33,85.58-22.09"/>
  <path class="cls-2" d="M886.26,1154.13c15.26,4.38,22.86-23.88,38.73-23.42,8.26.24,13.81,8.27,20.86,12.58,14.93,9.12,34.45.41,47.79-10.91,13.34-11.32,25.41-25.79,42.41-29.93,22.92-5.57,48.16,9.58,69.95.56"/>
  <path class="cls-2" d="M1087.28,1127.3h18.58"/>
  <path class="cls-2" d="M347.36,1178.18c72.89,10.3,146.78,10.51,220.39,10.71,76.15.2,152.3.4,228.44.6"/>
  <path class="cls-2" d="M977.06,1168.64c-9.93,11.58-23.65,19.86-38.53,23.23,10.79,1.05,9.49-11.85,19.98-14.59-9.24-3.48-20.6-.06-26.39,7.93,8.06-.15,38.36-11.91,44.94-16.57Z"/>
  <path class="cls-2" d="M802.33,1199.71c-20.35-.74-37.43-2.31-57.97-.99,17.25-1.09,34.61-.49,51.75,1.8-.79-6.35-8.7-10.63-14.44-7.81,8.02-1.48,16.42-.83,24.11,1.88"/>
  <line class="cls-3" x1="235.74" y1="340.06" x2="998.42" y2="1347.21"/>
</svg>