<?xml version="1.0" encoding="UTF-8"?>
<svg id="Layer_1" data-name="Layer 1" xmlns="http://www.w3.org/2000/svg" viewBox="0 0 1277.52 1290.68">
  <defs>
    <style>
      .cls-1 {
        fill: #a97c50;
      }

      .cls-1, .cls-2, .cls-3, .cls-4, .cls-5, .cls-6, .cls-7, .cls-8, .cls-9, .cls-10, .cls-11 {
        stroke: #231f20;
        stroke-miterlimit: 10;
      }

      .cls-2 {
        fill: #c2b59b;
      }

      .cls-3 {
        fill: #fff;
      }

      .cls-4 {
        fill: #231f20;
      }

      .cls-5 {
        fill: #b6d5f0;
      }

      .cls-6 {
        fill: #f1f2f2;
      }

      .cls-7 {
        fill: #c49a6c;
      }

      .cls-8 {
        fill: #6cb0e1;
      }

      .cls-9 {
        fill: #ed1c24;
      }

      .cls-10 {
        fill: #fcf8c4;
        stroke-width: 5px;
      }

      .cls-11 {
        fill: #ddb386;
      }
    </style>
  </defs>
  <ellipse class="cls-9" cx="638.76" cy="645.34" rx="638.26" ry="644.84"/>
  <path class="cls-6" d="M638.76,49.64C311.87,49.64,46.88,315.07,46.88,642.49s264.99,592.85,591.88,592.85,591.88-265.43,591.88-592.85S965.65,49.64,638.76,49.64ZM1009.48,800.65c-4.6,0-4.59-7.14,0-7.14s4.59,7.14,0,7.14Z"/>
  <rect class="cls-5" x="590.37" y="539.15" width="530.04" height="351.73" rx="8.13" ry="8.13"/>
  <polygon class="cls-8" points="1120.41 540.09 590.37 540.09 625.15 471.23 1083.97 471.23 1120.41 540.09"/>
  <rect class="cls-4" x="612.92" y="582.28" width="390.36" height="265.46" rx="40.65" ry="40.65"/>
  <rect class="cls-2" x="1024.09" y="578.89" width="81.16" height="63.6" rx="28.54" ry="28.54"/>
  <path class="cls-2" d="M1058.1,661.99h17.79c16.66,0,30.19,13.53,30.19,30.19v32.86c0,19.23-15.61,34.84-34.84,34.84h-13.14c-19.23,0-34.84-15.61-34.84-34.84v-28.21c0-19.23,15.61-34.84,34.84-34.84Z"/>
  <polygon class="cls-3" points="530.32 841.14 347.91 843.43 321.01 587.7 552.36 586.59 530.32 841.14"/>
  <path class="cls-9" d="M369.01,843.78l-13.21-.34c-5.25,0-7.73-2.16-7.73-7.42l-26.75-245.41c0-5.26,17.78-12.77,23.02-12.77l16.35,2.68c5.25,0,10.56,1.93,10.56,7.19l1.66,243.34c0,5.26,1.34,12.74-3.91,12.74Z"/>
  <path class="cls-3" d="M408.02,840.84c-.06,1,4.19,1.82,5.2,1.82h-3.47c-5.25,0-36.7,3.29-36.7-1.95l-1.79-253.01c0-5.16,21.1-9.72,26.78-9.86.18,0,.35.02.52.08,1.85.58,13.27,4.19,15,4.74.15.05.3.07.46.07,4.5.12,1.61,3.81,3.13,5.22.33.31.48.75.46,1.2-.57,15.54-3.02,232.38-3.37,241.89,0,.22.18,8.65.09,8.85-2,4.33-6.13-1.75-6.3.95Z"/>
  <path class="cls-9" d="M435.3,842.1l-14.08.55c-4.75-1.36-6.93,0-6.93-5.26l-2.48-248.72c0-5.26,18.54-9.44,23.79-9.44h0c-1.24,2.23,15.96,3.06,25.95,4.89l-6.92,244.71c-.55,11.06,1.65,14.09-19.32,13.27Z"/>
  <path class="cls-6" d="M480.58,842.98l-13.79.17c-5.25,0-14.73-.24-14.73-5.5l9.75-251.06c0-5.26,12.97-8.14,18.22-8.14h0c5.25,0,29.26,3.43,29.26,8.69l-12.15,237.81c-.55,11.06,4.41,18.84-16.57,18.03Z"/>
  <path class="cls-9" d="M526.96,841.54l-13.25.36c-5.25,0-18.66,1.23-18.66-3.92l13.69-251.37c0-5.15,12.97-7.97,18.22-7.97h0c5.25,0,29.26,3.36,29.26,8.51l-19.32,237.99c-.55,10.83-1.1,14.69-9.94,16.4Z"/>
  <path class="cls-10" d="M430,504.26l-1.78-1.31-1.83,1.32c-8.43,6.07-19.7-2.19-16.45-12.05l.72-2.17-3.32-2.44c-7.91-5.81-3.77-18.35,6.05-18.31l4.1.02.02-.06c3.47-10.52,18.38-10.46,21.75.1l.02.06,4.1.02c9.81.04,13.84,12.62,5.88,18.36l-3.34,2.41.68,2.14c3.16,9.91-8.2,18.08-16.58,11.92Z"/>
  <path class="cls-10" d="M521.18,572.74l-3.98.83-.03.26c-1.21,10.95-15.73,13.95-21.18,4.38l-.12-.22-3.72.77c-9.7,2.01-16.31-9.56-9.65-16.9l2.57-2.83-1.56-2.74c-5.01-8.79,4.16-18.85,13.38-14.68l2.84,1.29.82-.9c7.21-7.93,20.35-2,19.17,8.65l-.14,1.23,3.71,1.68c8.95,4.05,7.5,17.19-2.12,19.19Z"/>
  <path class="cls-10" d="M426.49,579.07l-1.78-1.31-1.83,1.32c-8.43,6.07-19.7-2.19-16.45-12.05l.72-2.17-3.32-2.44c-7.91-5.81-3.77-18.35,6.05-18.31l4.1.02.02-.06c3.47-10.52,18.38-10.46,21.75.1l.02.06,4.1.02c9.81.04,13.84,12.62,5.88,18.36l-3.34,2.41.68,2.14c3.16,9.91-8.2,18.08-16.58,11.92Z"/>
  <path class="cls-10" d="M498,516.23l-1.78-1.31-1.83,1.32c-8.43,6.07-19.7-2.19-16.45-12.05l.72-2.17-3.32-2.44c-7.91-5.81-3.77-18.35,6.05-18.31l4.1.02.02-.06c3.47-10.52,18.38-10.46,21.75.1l.02.06,4.1.02c9.81.04,13.84,12.62,5.88,18.36l-3.34,2.41.68,2.14c3.16,9.91-8.2,18.08-16.58,11.92Z"/>
  <path class="cls-10" d="M402.88,528.42l-1.78-1.31-1.83,1.32c-8.43,6.07-19.7-2.19-16.45-12.05l.72-2.17-3.32-2.44c-7.91-5.81-3.77-18.35,6.05-18.31l4.1.02.02-.06c3.47-10.52,18.38-10.46,21.75.1l.02.06,4.1.02c9.81.04,13.84,12.62,5.88,18.36l-3.34,2.41.68,2.14c3.16,9.91-8.2,18.08-16.58,11.92Z"/>
  <path class="cls-10" d="M399.73,556.6l-1.78-1.31-1.83,1.32c-8.43,6.07-19.7-2.19-16.45-12.05l.72-2.17-3.32-2.44c-7.91-5.81-3.77-18.35,6.05-18.31l4.1.02.02-.06c3.47-10.52,18.38-10.46,21.75.1l.02.06,4.1.02c9.81.04,13.84,12.62,5.88,18.36l-3.34,2.41.68,2.14c3.16,9.91-8.2,18.08-16.58,11.92Z"/>
  <path class="cls-10" d="M360.45,543.65l-1.78-1.31-1.83,1.32c-8.43,6.07-19.7-2.19-16.45-12.05l.72-2.17-3.32-2.44c-7.91-5.81-3.77-18.35,6.05-18.31l4.1.02.02-.06c3.47-10.52,18.38-10.46,21.75.1l.02.06,4.1.02c9.81.04,13.84,12.62,5.88,18.36l-3.34,2.41.68,2.14c3.16,9.91-8.2,18.08-16.58,11.92Z"/>
  <path class="cls-10" d="M360.46,582.22l-1.78-1.31-1.83,1.32c-8.43,6.07-19.7-2.19-16.45-12.05l.72-2.17-3.32-2.44c-7.91-5.81-3.77-18.35,6.05-18.31l4.1.02.02-.06c3.47-10.52,18.38-10.46,21.75.1l.02.06,4.1.02c9.81.04,13.84,12.62,5.88,18.36l-3.34,2.41.68,2.14c3.16,9.91-8.2,18.08-16.58,11.92Z"/>
  <path class="cls-10" d="M338.42,580.52l-3.93-2.88-3.85,2.77c-7.82,5.64-18.28-2.05-15.24-11.19l1.48-4.46-3.88-2.84c-7.76-5.68-3.73-17.97,5.89-17.95h2.72c1.3,0,2.46-.83,2.87-2.06l.85-2.55c3.04-9.13,15.99-9.05,18.9.13l1.44,4.53h4.71c9.63.03,13.61,12.37,5.79,18l-3.89,2.81,1.49,4.68c2.91,9.16-7.59,16.7-15.34,11.02Z"/>
  <path class="cls-10" d="M390.98,579.07l-1.78-1.31-1.83,1.32c-8.43,6.07-19.7-2.19-16.45-12.05l.72-2.17-3.32-2.44c-7.91-5.81-3.77-18.35,6.05-18.31l4.1.02.02-.06c3.47-10.52,18.38-10.46,21.75.1l.02.06,4.1.02c9.81.04,13.84,12.62,5.88,18.36l-3.34,2.41.68,2.14c3.16,9.91-8.2,18.08-16.58,11.92Z"/>
  <path class="cls-10" d="M471.39,514.13l-1.78-1.31-1.83,1.32c-8.43,6.07-19.7-2.19-16.45-12.05l.72-2.17-3.32-2.44c-7.91-5.81-3.77-18.35,6.05-18.31l4.1.02.02-.06c3.47-10.52,18.38-10.46,21.75.1l.02.06,4.1.02c9.81.04,13.84,12.62,5.88,18.36l-3.34,2.41.68,2.14c3.16,9.91-8.2,18.08-16.58,11.92Z"/>
  <path class="cls-10" d="M441.91,541.11l-1.78-1.31-1.83,1.32c-8.43,6.07-19.7-2.19-16.45-12.05l.72-2.17-3.32-2.44c-7.91-5.81-3.77-18.35,6.05-18.31l4.1.02.02-.06c3.47-10.52,18.38-10.46,21.75.1l.02.06,4.1.02c9.81.04,13.84,12.62,5.88,18.36l-3.34,2.41.68,2.14c3.16,9.91-8.2,18.08-16.58,11.92Z"/>
  <path class="cls-10" d="M465.27,577.8l-1.78-1.31-1.83,1.32c-8.43,6.07-19.7-2.19-16.45-12.05l.72-2.17-3.32-2.44c-7.91-5.81-3.77-18.35,6.05-18.31l4.1.02.02-.06c3.47-10.52,18.38-10.46,21.75.1l.02.06,4.1.02c9.81.04,13.84,12.62,5.88,18.36l-3.34,2.41.68,2.14c3.16,9.91-8.2,18.08-16.58,11.92Z"/>
  <path class="cls-10" d="M487.16,551.01l-1.78-1.31-1.83,1.32c-8.43,6.07-19.7-2.19-16.45-12.05l.72-2.17-3.32-2.44c-7.91-5.81-3.77-18.35,6.05-18.31l4.1.02.02-.06c3.47-10.52,18.38-10.46,21.75.1l.02.06,4.1.02c9.81.04,13.84,12.62,5.88,18.36l-3.34,2.41.68,2.14c3.16,9.91-8.2,18.08-16.58,11.92Z"/>
  <path class="cls-10" d="M520.62,546.43l-1.75-1.28-1.76,1.27c-8.45,6.09-19.75-2.21-16.49-12.11l.68-2.06-1.75-1.28c-8.4-6.17-4.01-19.5,6.41-19.45h2.17s.68-2.05.68-2.05c3.26-9.91,17.28-9.84,20.45.09l.66,2.07h2.17c10.41.06,14.68,13.43,6.23,19.52l-1.76,1.27-.98,2.13c3.17,9.94-6.56,18.07-14.96,11.9Z"/>
  <path class="cls-10" d="M540.57,584.49l-1.78-1.31-1.83,1.32c-8.43,6.07-19.7-2.19-16.45-12.05l.72-2.17-3.32-2.44c-7.91-5.81-3.77-18.35,6.05-18.31l4.1.02.02-.06c3.47-10.52,18.38-10.46,21.75.1l.02.06,4.1.02c9.81.04,13.84,12.62,5.88,18.36l-3.34,2.41.68,2.14c3.16,9.91-8.2,18.08-16.58,11.92Z"/>
  <rect class="cls-2" x="1023.27" y="782.94" width="82.82" height="60.83" rx="25.55" ry="25.55"/>
  <path class="cls-11" d="M265.06,750.36l-160.8,132.84c-1.15.92-3.08-1.01.42,6.92l72.61,121.21c4.24,7.05-4.58,6.04.84-.14l157.7-179.82c3.97-4.53,4.03-11.29.13-15.89l-53.94-63.61c-4.29-5.06-11.85-5.74-16.97-1.51Z"/>
  <polygon class="cls-11" points="269.35 752.98 343.13 826.15 373.29 650.03 306.54 642.49 269.35 752.98"/>
  <path class="cls-11" d="M315.13,683.67l-11.44-30.56c-4.11-10.98,7.23-24,26.06-29.95l107.55-33.95c14.92-4.71,10.2,3.51,19.81,9.57l3.31,12.17c-3.37,11.81-30.96,31.06-34.41,37.98-3.03,6.09-7.87,11.1-13.51,14.88l-35.2,23.63c-21.64,14.52-56.11,12.44-62.18-3.76Z"/>
  <polygon class="cls-4" points="203.15 801.49 66.28 801.49 66.28 806.58 196.99 806.58 203.15 801.49"/>
  <polygon class="cls-4" points="1210.81 800.48 1120.41 800.48 1120.41 806.25 1209.25 806.25 1210.81 800.48"/>
  <rect class="cls-4" x="538.87" y="801.49" width="51.49" height="5.09"/>
  <path class="cls-7" d="M585.76,615.72v8.82c0,8.21-6.64,14.87-14.84,14.87h-11.13c-8.2,0-7.44,3.57-7.44-4.64l2.35-25.39c0-8.21-3.11-8.52,5.09-8.52h11.13c8.2,0,14.84,6.66,14.84,14.87Z"/>
  <path class="cls-7" d="M573.93,680.28h-13.81c21.61-8.79,1.57,13.46-9.92-12.52l1.02-15.72c0-7.19,1.73-11.63,8.91-11.63h13.81c7.18,0,13,5.83,13,13.02v13.83c0,7.19-5.82,13.02-13,13.02Z"/>
  <path class="cls-7" d="M565.51,721.08h-5.56c-8.13,0-13.42-.53-13.42-8.67l2.07-19.83c0-8.14,3.22-10.7,11.34-10.7h5.56c8.13,0,14.72,6.6,14.72,14.74v9.72c0,8.14-6.59,14.74-14.72,14.74Z"/>
  <path class="cls-7" d="M559.24,759.1h-10.82c-5.42,0-4.68-6.6-4.68-14.74v-8.54c0-8.14,4.39-14.74,9.81-14.74h5.68c5.42,0,9.81,6.6,9.81,14.74v8.54c0,8.14-4.39,14.74-9.81,14.74Z"/>
  <path class="cls-1" d="M450.35,617.01l-8.75,4.45c-3.86,1.97-8.59.42-10.55-3.45l-5.33-10.51c-1.96-3.87-.42-8.6,3.44-10.57l8.75-4.45c3.86-1.97,8.59-.42,10.55,3.45l5.33,10.51c1.96,3.87.42,8.6-3.44,10.57Z"/>
  <polygon class="cls-9" points="1128.13 1028.87 1098.11 1069.88 578.92 701.47 586.51 645.34 1128.13 1028.87"/>
  <polygon class="cls-9" points="364.45 490.56 326.25 519.17 94.61 351.21 102.89 306.19 364.45 490.56"/>
  <polygon class="cls-9" points="580.18 692.17 570.5 681.33 582.18 677.33 580.18 692.17"/>
  <polygon class="cls-9" points="548.82 686.52 550.54 668.5 564.11 681.52 548.82 686.52"/>
  <rect class="cls-9" x="563.11" y="680.56" width="9.42" height="1.31"/>
  <polygon class="cls-9" points="589.94 647.77 586.64 648.16 580.99 642.49 580.09 641.96 589.94 647.77"/>
  <polygon class="cls-9" points="334.39 525.02 323.76 517.21 335.83 511.89 334.39 525.02"/>
  <polygon class="cls-9" points="340.58 507.56 351.11 497.99 347.19 506.61 340.58 507.56"/>
  <polygon class="cls-9" points="378.1 497.99 353.3 498.5 361.85 488.35 378.1 497.99"/>
  <polygon class="cls-9" points="371.26 494.25 364.45 498.59 371.26 506.61 375.68 508.05 378.1 496.71 371.26 494.25"/>
  <polygon class="cls-11" points="164.65 988.11 159.83 990.89 114.37 912.02 119.19 909.24 164.65 988.11"/>
  <polygon class="cls-11" points="108.3 896.16 115.26 912.34 122.89 908.29 108.3 896.16"/>
  <polygon class="cls-11" points="175.57 1008.46 168.12 985.84 160.64 990.16 175.57 1008.46"/>
</svg>