<?xml version="1.0" encoding="UTF-8"?>
<svg id="Layer_1" data-name="Layer 1" xmlns="http://www.w3.org/2000/svg" viewBox="0 0 1150.44 1402.22">
  <defs>
    <style>
      .cls-1 {
        fill: #231f20;
      }

      .cls-2 {
        fill: #fff;
      }

      .cls-3 {
        fill: #f7941d;
      }

      .cls-4, .cls-5 {
        fill: none;
      }

      .cls-6 {
        fill: #be1e2d;
      }

      .cls-5 {
        stroke: #231f20;
        stroke-miterlimit: 10;
      }
    </style>
  </defs>
  <path class="cls-2" d="M623.9,87.88l488.47,996.2c21.51,43.87-10.42,95.1-59.29,95.1H76.15c-48.86,0-80.8-51.23-59.29-95.1L505.33,87.88c24.16-49.28,94.41-49.28,118.57,0Z"/>
  <g>
    <path class="cls-1" d="M1027.94,979.42c-42.09-4.8-81.02,33.41-86.95,85.35-5.93,51.94,23.38,97.94,65.47,102.75,42.09,4.8,81.02-33.41,86.95-85.35,5.93-51.94-23.38-97.94-65.47-102.75"/>
    <path class="cls-5" d="M1027.94,979.42c-42.09-4.8-81.02,33.41-86.95,85.35-5.93,51.94,23.38,97.94,65.47,102.75,42.09,4.8,81.02-33.41,86.95-85.35,5.93-51.94-23.38-97.94-65.47-102.75Z"/>
    <rect class="cls-1" x="88.92" y="919.91" width="879.41" height="24.91" transform="translate(-411.2 417.12) rotate(-31.72)"/>
    <rect class="cls-5" x="88.92" y="919.91" width="879.41" height="24.91" transform="translate(-411.2 417.12) rotate(-31.72)"/>
    <rect class="cls-1" x="909.07" y="691.96" width="90.03" height="412.07" transform="translate(-322.31 602.22) rotate(-30.22)"/>
    <rect class="cls-5" x="909.07" y="691.96" width="90.03" height="412.07" transform="translate(-322.31 602.22) rotate(-30.22)"/>
    <rect class="cls-1" x="860.8" y="731.41" width="95.22" height="176.33" transform="translate(-277.09 517.09) rotate(-27.74)"/>
    <rect class="cls-5" x="860.8" y="731.41" width="95.22" height="176.33" transform="translate(-277.09 517.09) rotate(-27.74)"/>
    <path class="cls-3" d="M580.13,455.74c28.08-.11,50.93,22.57,51.04,50.65.11,28.08-22.57,50.93-50.65,51.04-28.08.11-50.93-22.57-51.04-50.65-.11-28.08,22.57-50.93,50.65-51.04"/>
    <path class="cls-3" d="M443.46,525.16c10.71-.04,19.31-22.18,19.21-49.45-.1-27.27-8.87-49.34-19.58-49.3s-19.31,22.18-19.21,49.45,8.87,49.34,19.58,49.3"/>
    <rect class="cls-3" x="469.06" y="516.41" width="41.38" height="82.73" transform="translate(-246.27 461.59) rotate(-41.27)"/>
    <rect class="cls-3" x="443.26" y="475.71" width="39.12" height="82.17" transform="translate(-187.37 274.86) rotate(-27.74)"/>
    <rect class="cls-3" x="602.58" y="521.9" width="104.03" height="50.76" transform="translate(-130.91 880.42) rotate(-62.88)"/>
    <path class="cls-3" d="M462.39,542.22c13.75-.05,24.85-11.24,24.8-24.99-.05-13.75-11.24-24.85-24.99-24.8-13.75.05-24.85,11.24-24.8,24.99.05,13.75,11.24,24.85,24.99,24.8"/>
    <rect class="cls-3" x="646.06" y="445.51" width="52.36" height="65.03" transform="translate(-1.82 2.57) rotate(-.22)"/>
    <path class="cls-3" d="M672.29,491.59c14.46-.06,26.08-25.19,25.97-56.13-.12-30.95-11.93-55.99-26.39-55.93-14.46.06-26.08,25.19-25.96,56.13.12,30.95,11.93,55.99,26.39,55.93"/>
    <rect class="cls-3" x="451.3" y="637.46" width="204.54" height="103.73" transform="translate(-312.32 867.79) rotate(-62.88)"/>
    <path class="cls-3" d="M434.65,907.37c15.59,8.92,19.82,30.86,9.43,49.01-10.38,18.14-31.44,25.62-47.03,16.69-15.59-8.92-19.82-30.86-9.43-49.01,10.38-18.14,31.44-25.62,47.03-16.69"/>
    <rect class="cls-2" x="528.84" y="987.86" width="2.48" height="2.48" transform="translate(-3.77 2.03) rotate(-.22)"/>
    <rect class="cls-5" x="528.84" y="987.86" width="2.48" height="2.48" transform="translate(-3.77 2.03) rotate(-.22)"/>
    <rect class="cls-3" x="377.41" y="845.08" width="104.63" height="63.18" transform="translate(-512.56 1132.21) rotate(-79.06)"/>
    <rect class="cls-3" x="433.08" y="756.57" width="110.31" height="71.51" transform="translate(-267.91 249.75) rotate(-22.7)"/>
    <path class="cls-3" d="M444.28,842.98c21.64-.08,39.12-14.85,39.06-32.98s-17.67-32.77-39.31-32.68c-21.64.08-39.12,14.85-39.06,32.98s17.67,32.77,39.31,32.68"/>
    <path class="cls-3" d="M360.74,703.35c16.59,3.92,24.29,31.41,17.2,61.4-7.08,30-26.27,51.14-42.86,47.22-16.59-3.92-24.29-31.41-17.2-61.4,7.08-30,26.27-51.14,42.86-47.22"/>
    <path class="cls-2" d="M368,736.16c-2.19,0-3.96,1.79-3.95,3.98s1.79,3.96,3.98,3.95,3.96-1.79,3.95-3.98-1.79-3.96-3.98-3.95"/>
    <circle class="cls-5" cx="368.02" cy="740.13" r="3.97" transform="translate(-116.37 70.35) rotate(-9.44)"/>
    <rect class="cls-3" x="301.75" y="680.81" width="120.61" height="48.83" transform="translate(-425.86 792.5) rotate(-69.14)"/>
    <rect class="cls-3" x="443.29" y="456.21" width="26.45" height="50.85" transform="translate(-150.49 213.44) rotate(-22.7)"/>
    <rect class="cls-3" x="488.35" y="506.25" width="22.84" height="76.43" transform="translate(-234.99 464.9) rotate(-41.27)"/>
    <rect class="cls-3" x="379.71" y="629.65" width="72.21" height="115.75" transform="translate(-387.44 706.93) rotate(-60.22)"/>
    <rect class="cls-2" x="371.86" y="705.93" width="8.82" height="5" transform="translate(-2.7 1.44) rotate(-.22)"/>
    <rect class="cls-5" x="371.86" y="705.93" width="8.82" height="5" transform="translate(-2.7 1.44) rotate(-.22)"/>
    <rect class="cls-3" x="318.09" y="714.21" width="91.89" height="43.93" transform="translate(-453.51 814.29) rotate(-69.15)"/>
    <rect class="cls-1" x="174.33" y="1147.01" width="852.01" height="21.16" transform="translate(-4.42 2.3) rotate(-.22)"/>
    <rect class="cls-5" x="174.33" y="1147.01" width="852.01" height="21.16" transform="translate(-4.42 2.3) rotate(-.22)"/>
    <rect class="cls-1" x="789.31" y="939.6" width="179.86" height="220.79" transform="translate(-4 3.37) rotate(-.22)"/>
    <rect class="cls-5" x="789.31" y="939.6" width="179.86" height="220.79" transform="translate(-4 3.37) rotate(-.22)"/>
    <rect class="cls-1" x="806.26" y="755.67" width="123.43" height="233.38" transform="translate(-3.33 3.32) rotate(-.22)"/>
    <rect class="cls-5" x="806.26" y="755.67" width="123.43" height="233.38" transform="translate(-3.33 3.32) rotate(-.22)"/>
    <path class="cls-1" d="M511.65,1091.25c-146.62.56-265.42,13.57-265.36,29.06s118.96,27.59,265.58,27.03c146.62-.56,265.42-13.57,265.36-29.06s-118.96-27.59-265.58-27.03"/>
    <path class="cls-5" d="M511.65,1091.25c-146.62.56-265.42,13.57-265.36,29.06s118.96,27.59,265.58,27.03c146.62-.56,265.42-13.57,265.36-29.06s-118.96-27.59-265.58-27.03Z"/>
    <rect class="cls-1" x="612" y="898.96" width="177.04" height="258.24" transform="translate(-3.92 2.68) rotate(-.22)"/>
    <rect class="cls-5" x="612" y="898.96" width="177.04" height="258.24" transform="translate(-3.92 2.68) rotate(-.22)"/>
    <rect class="cls-1" x="204.72" y="944.16" width="657.71" height="47" transform="translate(-414.52 400.04) rotate(-30.22)"/>
    <rect class="cls-5" x="204.72" y="944.16" width="657.71" height="47" transform="translate(-414.52 400.04) rotate(-30.22)"/>
    <path class="cls-1" d="M246.43,1158.77c25.32-.1,45.8-10.83,45.75-23.98s-20.62-23.73-45.94-23.63-45.8,10.83-45.75,23.98,20.62,23.73,45.94,23.63"/>
    <path class="cls-5" d="M246.43,1158.77c25.32-.1,45.8-10.83,45.75-23.98s-20.62-23.73-45.94-23.63-45.8,10.83-45.75,23.98,20.62,23.73,45.94,23.63Z"/>
    <rect class="cls-1" x="339.77" y="988.02" width="298.87" height="113.56" transform="translate(-365.25 269.67) rotate(-22.7)"/>
    <rect class="cls-5" x="339.77" y="988.02" width="298.87" height="113.56" transform="translate(-365.25 269.67) rotate(-22.7)"/>
    <rect class="cls-1" x="684.57" y="830.92" width="135.9" height="135.9" transform="translate(-3.43 2.88) rotate(-.22)"/>
    <rect class="cls-5" x="684.57" y="830.92" width="135.9" height="135.9" transform="translate(-3.43 2.88) rotate(-.22)"/>
    <rect class="cls-1" x="480.8" y="1044.54" width="152.51" height="49.65" transform="translate(-4.08 2.14) rotate(-.22)"/>
    <rect class="cls-5" x="480.8" y="1044.54" width="152.51" height="49.65" transform="translate(-4.08 2.14) rotate(-.22)"/>
    <rect class="cls-1" x="273.05" y="1134.16" width="368.53" height="34.55" transform="translate(-4.39 1.75) rotate(-.22)"/>
    <rect class="cls-5" x="273.05" y="1134.16" width="368.53" height="34.55" transform="translate(-4.39 1.75) rotate(-.22)"/>
    <rect class="cls-1" x="612.77" y="775.21" width="319.35" height="39.81" transform="translate(-295.22 496.83) rotate(-30.22)"/>
    <rect class="cls-5" x="612.77" y="775.21" width="319.35" height="39.81" transform="translate(-295.22 496.83) rotate(-30.22)"/>
    <path class="cls-1" d="M546.99,479.35c-3.19.01-5.76,5.26-5.73,11.72s2.63,11.69,5.82,11.68,5.76-5.26,5.73-11.72-2.63-11.69-5.82-11.68"/>
    <path class="cls-5" d="M546.99,479.35c-3.19.01-5.76,5.26-5.73,11.72s2.63,11.69,5.82,11.68,5.76-5.26,5.73-11.72-2.63-11.69-5.82-11.68Z"/>
    <path class="cls-1" d="M582.74,481.15c5.93-.02,10.75,4.76,10.77,10.69s-4.76,10.75-10.69,10.77-10.75-4.76-10.77-10.69,4.76-10.75,10.69-10.77"/>
    <path class="cls-5" d="M582.74,481.15c5.93-.02,10.75,4.76,10.77,10.69s-4.76,10.75-10.69,10.77-10.75-4.76-10.77-10.69,4.76-10.75,10.69-10.77Z"/>
    <rect class="cls-6" x="100.39" y="1171.87" width="908.1" height="33.5" transform="translate(-4.54 2.13) rotate(-.22)"/>
    <rect class="cls-5" x="100.39" y="1171.87" width="908.1" height="33.5" transform="translate(-4.54 2.13) rotate(-.22)"/>
    <path class="cls-6" d="M1116.13,1049.49L621.89,60.48l-29.97,14.98,506.51,1013.56,22.37-11.18c-1.88-9.39-3.26-18.87-4.66-28.34"/>
    <path class="cls-5" d="M1116.13,1049.49L621.89,60.48l-29.97,14.98,506.51,1013.56,22.37-11.18c-1.88-9.39-3.26-18.87-4.66-28.34Z"/>
    <path class="cls-6" d="M930.53,1090.04c.24,62.9,43.07,113.73,95.65,113.53,52.59-.2,95.02-51.35,94.78-114.26-.02-5.34-.35-10.58-.97-15.72-.79-4.28-1.5-8.57-2.17-12.87-10.8-49.02-48.19-85.11-92.51-84.94-52.59.2-95.02,51.35-94.78,114.26"/>
    <path class="cls-1" d="M959.56,939.29c-60.58.23-109.49,52.22-109.25,116.11.24,63.9,49.55,115.51,110.13,115.27,60.58-.23,109.49-52.22,109.25-116.11-.24-63.9-49.55-115.51-110.13-115.27"/>
    <ellipse class="cls-5" cx="960" cy="1054.99" rx="109.69" ry="115.69" transform="translate(-4.02 3.67) rotate(-.22)"/>
    <path class="cls-6" d="M474.69,106.38c.03,6.63.68,13.08,1.9,19.29,1.82-3.93,4.2-7.48,6.97-10.63,4.5-9.88,9.04-19.72,14.58-28.91,8.2-13.62,18.84-26.74,33.23-31.15.03,0,.06-.02.09-.03.83-1.41,2.21-2.43,3.65-2.42,2.43.02,4.84.3,7.22.77,3.77-.02,7.53.53,11.01,1.74.92.32,1.82.72,2.7,1.16,5.38.39,10.55,1.78,15,4.79,2.18-.32,4.52.07,6.79,1.42,2.78,1.66,5.54,3.79,7.92,4.75,4.7,1.9,8.26,6.46,8.29,12.41,0,1.66-.32,3.37-.91,4.98,3.27,3.33,6.39,6.83,9.32,10.48,4.74.25,9.43,3.84,10.69,9.41.7,3.13,1.31,6.29,1.87,9.45,4.61,8.82,7.84,18.5,8.12,28.64,4.37-11.22,6.79-23.65,6.74-36.75-.19-49.25-35.08-89.04-77.92-88.88s-77.43,40.22-77.24,89.47"/>
    <rect class="cls-6" x="606.39" y="38.83" width="28.21" height="115.32" transform="translate(22.31 287.55) rotate(-26.55)"/>
    <rect class="cls-6" x="-258.21" y="538.22" width="1044.99" height="28.21" transform="translate(-348.01 554.69) rotate(-64.65)"/>
    <path class="cls-6" d="M6.81,1088.57c.25,65.66,42.18,118.73,93.65,118.54,26.9-.1,51.08-14.74,68-38.06-10.02,1.21-20.02,1.93-29.82.88-1.99.06-3.98.1-5.97.12-13.45.12-28.38-.11-40.92-5.34-1.93-.81-3.8-1.72-5.6-2.72-11.19-2.32-21.71-7.12-30.49-15.35-11.39-10.67-16.37-25.47-17.92-40.62-.39-3.79-.2-7.52.46-11.15-2.6-3.68-4.15-8.28-4.16-12.7,0-2.33.03-4.64.28-6.95.73-6.74,1.58-10.27,4.38-16.45,1.23-2.71,3.4-4.91,5.92-6.64.43-1.68.93-3.35,1.53-4.99,1.26-3.48,2.83-6.77,4.69-9.79,5.47-22.3,14.33-44,25.3-64.13-40.07,13.42-69.52,60.03-69.31,115.36"/>
    <polygon class="cls-6" points="100.45 1207.1 100.43 1202.17 100.42 1197.24 100.43 1202.17 100.45 1207.1"/>
    <polygon class="cls-5" points="100.45 1207.1 100.43 1202.17 100.42 1197.24 100.43 1202.17 100.45 1207.1"/>
    <path class="cls-1" d="M563.55,516.41c4.75-.02,8.62,6.19,8.65,13.87s-3.8,13.92-8.55,13.94-8.62-6.19-8.65-13.87,3.8-13.92,8.55-13.94"/>
    <path class="cls-5" d="M563.55,516.41c4.75-.02,8.62,6.19,8.65,13.87s-3.8,13.92-8.55,13.94-8.62-6.19-8.65-13.87,3.8-13.92,8.55-13.94Z"/>
    <rect class="cls-3" x="355.59" y="632.59" width="56.87" height="56.87" transform="translate(-374.98 752.31) rotate(-66.7)"/>
    <path class="cls-1" d="M393.61,978.89c-13.33,2.5-27.5.18-39.44-6.21-3.38-1.81-6.59-3.92-9.55-6.35-.9-.74-2.18-.87-3.06.01-.76.77-.9,2.31.01,3.06,11.4,9.37,25.89,14.63,40.65,14.79,4.21.05,8.41-.35,12.55-1.13,1.15-.22,1.79-1.61,1.5-2.67-.34-1.21-1.51-1.72-2.67-1.5"/>
    <path class="cls-1" d="M327.04,830.45c-13.32-2.38-26.04-7.95-36.71-16.3-.92-.72-2.17-.89-3.06.01-.75.75-.91,2.33.01,3.06,11.26,8.82,24.53,14.89,38.63,17.41,1.15.21,2.33-.32,2.66-1.52.28-1.05-.37-2.45-1.52-2.66"/>
    <path class="cls-1" d="M385.3,994.09c-18.77,1.07-37.66-3.84-53.62-13.77-4.46-2.77-8.66-5.93-12.56-9.45-2.06-1.86-5.12,1.2-3.05,3.07,14.65,13.21,33.26,21.51,52.8,23.93,5.45.67,10.95.85,16.43.54,2.77-.16,2.77-4.48-.02-4.33"/>
    <path class="cls-1" d="M314.22,850.5l24.69-.09c2.78-.01,2.77-4.34-.02-4.33l-24.69.09c-2.78.01-2.77,4.34.02,4.33"/>
    <rect class="cls-6" x="9.17" y="1054.33" width="59.73" height="11.16" transform="translate(-983.95 779.84) rotate(-72.58)"/>
    <rect class="cls-4" x="14.24" y="2.16" width="1133.57" height="1379.32" transform="translate(-2.64 2.22) rotate(-.22)"/>
    <rect class="cls-4" x="2.63" y="20.74" width="1133.57" height="1379.32" transform="translate(-2.71 2.18) rotate(-.22)"/>
  </g>
</svg>