<?xml version="1.0" encoding="UTF-8"?>
<svg id="Layer_1" data-name="Layer 1" xmlns="http://www.w3.org/2000/svg" viewBox="0 0 1536 2048">
  <defs>
    <style>
      .cls-1, .cls-2, .cls-3, .cls-4, .cls-5, .cls-6, .cls-7, .cls-8, .cls-9, .cls-10, .cls-11, .cls-12, .cls-13, .cls-14, .cls-15, .cls-16, .cls-17 {
        stroke-miterlimit: 10;
      }

      .cls-1, .cls-2, .cls-3, .cls-4, .cls-5, .cls-7, .cls-8, .cls-9, .cls-10, .cls-11, .cls-12, .cls-13, .cls-15, .cls-16 {
        stroke: #231f20;
      }

      .cls-1, .cls-3, .cls-5, .cls-15 {
        stroke-linecap: round;
      }

      .cls-1, .cls-14 {
        fill: none;
      }

      .cls-2 {
        fill: #00aeef;
      }

      .cls-3 {
        fill: #8b5e3c;
      }

      .cls-4 {
        fill: #a97c50;
      }

      .cls-5, .cls-10 {
        fill: #231f20;
      }

      .cls-6 {
        stroke: #fff;
      }

      .cls-6, .cls-8, .cls-17 {
        fill: #fff;
      }

      .cls-7 {
        fill: #92278f;
      }

      .cls-18 {
        fill: #ed1c24;
      }

      .cls-9 {
        fill: #7f3f98;
      }

      .cls-11 {
        fill: #39b54a;
      }

      .cls-12 {
        fill: #ffde17;
      }

      .cls-13 {
        fill: #fbb040;
      }

      .cls-14, .cls-17 {
        stroke: #ed1c24;
        stroke-width: 102px;
      }

      .cls-15 {
        fill: #c49a6c;
      }

      .cls-16 {
        fill: #f26522;
      }
    </style>
  </defs>
  <polygon class="cls-17" points="999.71 1628.16 475.03 1623.91 107.06 1253.54 111.35 734.01 485.39 369.65 1010.07 373.89 1378.04 744.26 1373.75 1263.8 999.71 1628.16"/>
  <rect class="cls-18" x="671.74" y="733.25" width="151.87" height="157.54"/>
  <rect class="cls-8" x="390.99" y="408.82" width="2.47" height="24.48"/>
  <path class="cls-11" d="M645.49,969.7l166.69-26.3,103.79,10.2-110.32,45.3-136.07-19.41c-10.81-7.41-36.12-4.66-24.1-9.79Z"/>
  <polygon class="cls-14" points="1001.76 1628.16 477.07 1623.91 109.1 1253.54 113.39 734.01 487.43 369.65 1012.11 373.89 1380.08 744.26 1375.79 1263.8 1001.76 1628.16"/>
  <polygon class="cls-8" points="634.92 1009.66 805.65 1041.34 805.65 998.9 637.32 972.79 634.92 1009.66"/>
  <polygon class="cls-11" points="915.97 953.61 805.65 998.9 805.65 1041.34 915.97 989.11 915.97 953.61"/>
  <polygon class="cls-2" points="915.97 1036.7 816.06 1084.28 816.06 1038.28 915.97 989.11 915.97 1036.7"/>
  <polygon class="cls-8" points="634.93 1050.9 816.06 1084.28 816.06 1038.28 634.92 1011.14 634.93 1050.9"/>
  <polygon class="cls-12" points="915.97 1063.38 816.06 1109.9 816.06 1084.28 915.97 1036.7 915.97 1063.38"/>
  <polygon class="cls-8" points="634.92 1080.35 816.06 1109.9 816.06 1084.28 634.93 1050.9 634.92 1080.35"/>
  <polygon class="cls-16" points="816.06 1165.4 915.97 1109.9 915.97 1063.38 816.06 1109.9 816.06 1165.4"/>
  <polygon class="cls-8" points="634.92 1131.12 816.06 1165.4 816.06 1109.9 634.92 1080.35 634.92 1131.12"/>
  <polygon class="cls-9" points="634.92 1132.34 612.63 1129.29 634.92 1109.9 634.92 1132.34"/>
  <polygon class="cls-4" points="1233.97 1312.53 215.61 1277.62 165.84 1133.51 1318.03 1169.95 1233.97 1312.53"/>
  <polygon class="cls-4" points="218.62 1278.03 171.16 1225.66 173.67 1147.71 221.33 1233.72 218.62 1278.03"/>
  <polygon class="cls-4" points="218.62 1278.03 1236.88 1321.14 1230.2 1271.31 221.38 1233.76 218.62 1278.03"/>
  <polygon class="cls-4" points="1314.28 1246.03 1228.76 1320.86 1230.2 1271.31 1318.03 1170.05 1314.28 1246.03"/>
  <polygon class="cls-3" points="259.3 1321.14 266.11 1280.04 218.62 1278.03 259.3 1321.14"/>
  <polygon class="cls-3" points="1229.96 1321.28 1182.12 1319.19 1179.88 1371.09 1229.96 1321.28"/>
  <polygon class="cls-7" points="896.17 1156.32 785.8 1209.05 788.09 1158.83 895.25 1116.39 896.17 1156.32"/>
  <polygon class="cls-8" points="609.42 1171.11 785.8 1209.05 788.09 1158.83 612.63 1129.29 609.42 1171.11"/>
  <path class="cls-10" d="M560.75,1209.54l-226.45-9.08-.62-42.8c-.37-25.85,21.09-46.79,47.19-46.03l147.74,4.31c17.9.52,32.15,15.05,32.15,32.78v60.81Z"/>
  <polygon class="cls-6" points="473.45 1178.28 451.55 1134.96 463.61 1125.11 491.03 1176.73 473.45 1178.28"/>
  <polygon class="cls-6" points="468.75 1178.28 451.55 1142.87 438.9 1151.37 451.55 1178.28 468.75 1178.28"/>
  <polygon class="cls-6" points="447.21 1178.28 425.64 1178.28 423.23 1171.06 438.9 1161.81 447.21 1178.28"/>
  <path class="cls-18" d="M823.48,819.3l-151.72,9.55c6.92,24.47-34.05-21.88-33.49-41.18l-9.57-117.62c-.37-17.59,13.93-32.05,31.7-32.05h163.08c17.51,0,31.71,14.06,31.71,31.4v118.5c-27.88,49.34-40.07,61.09-31.71,31.4Z"/>
  <rect class="cls-18" x="634.92" y="492.07" width="40.38" height="188.58" rx="17.29" ry="17.29"/>
  <path class="cls-18" d="M769.42,731.7h0c-60.15,9.69-158.82,14.7-24.71-24.47v-199.32c0-13.51,11.06-24.47,24.71-24.47h0c13.65,0,24.71,10.95,24.71,24.47v199.32c0,13.51-11.06,24.47-24.71,24.47Z"/>
  <rect class="cls-18" x="686.8" y="488.37" width="47.01" height="245.27" rx="20.13" ry="20.13"/>
  <rect class="cls-18" x="805.65" y="483.44" width="46.71" height="245.12" rx="20" ry="20"/>
  <path class="cls-18" d="M879.25,782.59l-67.79,64.33c-12.83,5.96,35.77-68.78,41.68-81.53l40.53-87.49c2.25-4.86,6.93-8.17,12.3-8.7h0c11.39-1.13,19.91,10.13,15.61,20.64l-34.7,84.78c-1.44,3.52-4.17,6.36-7.63,7.98Z"/>
  <rect class="cls-18" x="1147.94" y="925.49" width="1.21" height="0"/>
  <polygon class="cls-18" points="894.04 699.32 837.99 807.34 847.03 649.79 874.15 716.63 894.04 699.32"/>
  <polygon class="cls-15" points="1110.65 1230.11 1149.14 1214.51 1149.14 1214.51 1107.56 1203.17 1110.65 1230.11"/>
  <path class="cls-8" d="M967.59,1245.75l19.98-.8c7.62-.31,13.22-7.2,11.88-14.63h0c-1.1-6.11-6.57-10.49-12.83-10.27l-19.99.69c-7.13.25-12.62,6.3-12.12,13.34v.12c.49,6.72,6.28,11.84,13.07,11.56Z"/>
  <polygon class="cls-13" points="976.66 1221.06 977.53 1246.16 1110.65 1230.11 1107.56 1203.17 976.66 1221.06"/>
  <polygon class="cls-5" points="1147.34 1216.11 1141.29 1217.69 1138.8 1211.69 1149.14 1214.51 1147.34 1216.11"/>
  <line class="cls-1" x1="977.07" y1="1228.05" x2="1107.56" y2="1211.69"/>
  <line class="cls-1" x1="977.23" y1="1237.66" x2="1107.56" y2="1221.69"/>
</svg>