<?xml version="1.0" encoding="UTF-8"?>
<svg id="Layer_1" data-name="Layer 1" xmlns="http://www.w3.org/2000/svg" viewBox="0 0 1276.59 1276.59">
  <defs>
    <style>
      .cls-1 {
        fill: #fff;
      }

      .cls-1, .cls-2, .cls-3, .cls-4 {
        stroke: #231f20;
        stroke-miterlimit: 10;
      }

      .cls-2 {
        fill: #594a42;
      }

      .cls-5 {
        fill: #e6e7e8;
      }

      .cls-3 {
        fill: #9b8579;
      }

      .cls-4 {
        fill: #ed1c24;
      }
    </style>
  </defs>
  <circle class="cls-1" cx="638.3" cy="638.3" r="637.8"/>
  <circle class="cls-4" cx="638.3" cy="638.3" r="637.8"/>
  <ellipse class="cls-1" cx="638.3" cy="638.3" rx="537" ry="539.48"/>
  <polygon class="cls-4" points="614.73 863.88 446.46 156.64 806.5 162.65 614.73 863.88"/>
  <ellipse class="cls-4" cx="613.85" cy="1052.36" rx="76.83" ry="77.66"/>
  <polygon class="cls-3" points="297.67 763.91 220.2 841.38 218.8 857.71 305.13 771.38 297.67 763.91"/>
  <polygon class="cls-3" points="275.02 645.02 179.94 727.06 177.63 744.46 282.63 653.85 275.02 645.02"/>
  <polygon class="cls-3" points="501.96 863.88 465.73 891.67 458.52 909.24 507.78 871.46 501.96 863.88"/>
  <polygon class="cls-2" points="624.63 914.18 530.5 992.58 551.51 994.21 634.04 925.48 624.63 914.18"/>
  <polygon class="cls-2" points="305.7 771.69 218.8 858.59 243.58 863.88 320.74 786.72 305.7 771.69"/>
  <polygon class="cls-2" points="282.7 652.92 177.63 744.46 206.04 742.56 294.01 665.91 282.7 652.92"/>
  <path class="cls-5" d="M320.74,702.58c-2.73-29.14-122.21-31.07-160.1-57.05-22.73-15.58,9.85,109.08,9.85,136.63s122.1-55.97,144.76-43.96c24.35,12.91,8.07-8.18,5.49-35.62Z"/>
  <path class="cls-5" d="M697.22,832.18c-33.92,12.37-100.82,4.86-96.01-7.58,7.33-18.95,3.55,5.97,3.55,39.27s80.11,73.65,116.7,73.65c7.76,0,7.04-116.76-24.25-105.35Z"/>
  <polygon class="cls-2" points="533.48 850.95 458.52 907.17 482.08 909.24 542.96 863.58 533.48 850.95"/>
  <polygon class="cls-3" points="609.79 909.18 531.5 975.18 533.4 992.69 619.2 920.35 609.79 909.18"/>
  <polygon class="cls-3" points="634.04 925.48 294.01 776.54 274.04 638.3 605 810.81 634.04 925.48"/>
  <polygon class="cls-2" points="750.4 599.51 725.62 599.51 725.62 731.69 750.4 711.86 750.4 599.51"/>
  <polygon class="cls-2" points="902.41 526.8 887.54 526.8 887.54 617.68 902.41 599.51 902.41 526.8"/>
  <polygon class="cls-2" points="1032.95 472.28 1013.12 472.28 1013.12 582.98 1032.95 568.16 1032.95 472.28"/>
  <polygon class="cls-3" points="725.62 599.51 705.79 599.51 705.79 713.52 725.62 731.69 725.62 599.51"/>
  <polygon class="cls-3" points="887.54 526.8 871.02 526.8 871.02 606.31 887.54 617.68 887.54 526.8"/>
  <polygon class="cls-3" points="1013.12 472.28 998.25 472.28 998.25 568.16 1013.12 582.98 1013.12 472.28"/>
  <rect class="cls-3" x="601.22" y="526.8" width="25.26" height="56.18"/>
  <rect class="cls-2" x="615.86" y="522.67" width="21.23" height="99.14"/>
  <path class="cls-5" d="M1048.03,430.5c7-4.68-39.31-109.48-49.76-78.82-14.56,42.71-103.29,51.64-110.72,71.24-22.17,58.45-6.41,34.7,72.67,15.92,31.52-7.49,51.19,16.17,87.82-8.34Z"/>
  <path class="cls-5" d="M977.68,437.19c-12.01-11.6,14.31-61.38,42.87-48.34,48.04,21.94,63.32-80.38,84.54-48.89,9.97,14.79-15.46,83.61-36.07,92.16-27.33,11.33-78.52,17.46-91.34,5.07Z"/>
  <path class="cls-5" d="M690.68,561.27c0,13.23-29.35,143.92-64.2,144.95-36.09,1.06-93.87-102.55-89.46-119.59,3.31-12.81,23.89-18.44,64.2-31.73,44.47-14.67,89.46-6.85,89.46,6.38Z"/>
  <polygon class="cls-3" points="909.02 388.01 601.22 526.8 725.62 617.68 1032.95 472.28 909.02 388.01"/>
  <path class="cls-5" d="M568.65,612.48c0-17.97-5.95-46.95-32.1-29.35-37.99,25.56-77.71,1.23-77.71,19.2,0,17.97,26.65,42.69,56.24,42.69,29.59,0,53.57-14.57,53.57-32.54Z"/>
  <path class="cls-5" d="M601.22,655.76c0-17.97-15.48-41.43-41.64-23.83-37.99,25.56-77.71,5.86-77.71,23.83,0,17.97,44.8,27.12,74.38,27.12,29.59,0,44.96-9.15,44.96-27.12Z"/>
  <path class="cls-5" d="M648.72,679.09c0-17.97-27.03-38.06-46.78-13.48-26.58,33.09-83.58,15.12-83.58,33.09,0,17.97,32.52,28.81,62.11,28.81,29.59,0,68.25-30.44,68.25-48.41Z"/>
  <path class="cls-5" d="M1010.24,417.11c-15.3,6.69-46.64-25.7-24.18-47.64,23.42-22.87,18.6-78.85,33.96-69.79,17.49,10.31,26.06,34.07,18.25,62.61-7.8,28.54-11.7,47.67-28.03,54.82Z"/>
  <path class="cls-5" d="M1003.01,426.36c-15.86-.18-24.45-52.74,7.32-51.74,33.62,1.06,41.54-69.57,52.57-58.56,11.03,11.01,24.34,59.74,2.27,81.85-22.07,22.11-45.22,28.64-62.16,28.45Z"/>
  <path class="cls-5" d="M187.92,780.38c9.95-14.97,19.16-63.66-8.59-48.69-34.61,18.67-77.01-29.15-86.96-14.18-9.95,14.97,11.14,41.99,35.78,58.37,24.64,16.37,49.82,19.47,59.76,4.5Z"/>
  <path class="cls-5" d="M205.35,734.41c13.08-12.32,7.21-35.68-24.22-33.2-42.31,3.34-68.31-50.47-81.39-38.15s3.47,37.69,23.76,59.23c20.29,21.54,68.77,24.45,81.85,12.13Z"/>
  <path class="cls-5" d="M213.33,701.24c13.89-11.4,27.18-33.33-5.71-38.83-41.86-6.99-78.23-60.92-92.12-49.53-13.89,11.4-1.65,43.41,17.12,66.29,18.76,22.87,66.82,33.46,80.71,22.06Z"/>
  <path class="cls-5" d="M639.2,883.88c-14.87-4.34-6.45-53.91,20.13-37.8,35.46,21.5,57.96-51.99,65.89-38.62s14.52,57.41-11.13,72.63c-25.65,15.22-59.01,8.42-74.89,3.79Z"/>
  <path class="cls-5" d="M683.1,923.42c-13.98-1.58-16.86-71.51-.31-48.75,25.02,34.4,59.87-58.35,67.61-47.79,7.73,10.56,14.33,57.03-9.22,74.27-23.55,17.25-43.14,23.95-58.07,22.26Z"/>
  <path class="cls-5" d="M679.4,925.48c-10.85-7.42,18.48-35.57,44.02-29.53,27.03,6.39,56.68-46.23,62.05-36,5.36,10.24,1.32,56.02-23.91,69.24-25.24,13.22-54.57,15.16-82.16-3.72Z"/>
</svg>