<?xml version="1.0" encoding="UTF-8"?>
<svg id="Layer_1" data-name="Layer 1" xmlns="http://www.w3.org/2000/svg" viewBox="0 0 1600 1381.18">
  <defs>
    <style>
      .cls-1 {
        fill: #f1f2f2;
      }

      .cls-2 {
        fill: #231f20;
      }

      .cls-3 {
        fill: #ed1c24;
      }

      .cls-4 {
        fill: #39b54a;
      }

      .cls-5 {
        fill: #58595b;
      }

      .cls-6 {
        fill: #006838;
      }
    </style>
  </defs>
  <path class="cls-3" d="M1428.57,1277.31l-1193.56-2.64c-29.05-.06-47.9-30.65-34.9-56.63L798.87,21.61c14.45-28.88,55.69-28.8,70.03.12l594.8,1199.06c12.92,26.04-6.07,56.57-35.13,56.51Z"/>
  <path class="cls-1" d="M1339.03,1235.47l-1007.34-11.83c-40-.47-65.7-42.65-47.78-78.41L779.62,155.97c19.88-39.68,76.44-39.9,96.63-.38l511.63,1001.09c18.54,36.28-8.11,79.27-48.86,78.79Z"/>
  <path class="cls-2" d="M793.51,1148.96h-50.09c-74.85,0-135.53-60.68-135.53-135.53l-19.76-60.66c-145.41-145.49,13.9-141.34,19.76-141.34l232.21,104.64c5.86,0,10.61,4.75,10.61,10.61v165.08c0,31.59-25.61,57.2-57.2,57.2Z"/>
  <ellipse class="cls-2" cx="569.92" cy="904.77" rx="33.18" ry="63.53" transform="translate(-376.03 406.18) rotate(-30)"/>
  <rect class="cls-2" x="711.46" y="528.21" width="106.9" height="198" rx="53.13" ry="53.13" transform="translate(535 -334.88) rotate(37.21)"/>
  <rect class="cls-2" x="736.67" y="539.65" width="106.9" height="198" rx="53.45" ry="53.45" transform="translate(631.66 -364.87) rotate(42.08)"/>
  <rect class="cls-2" x="661.53" y="659.12" width="114.35" height="164.47" transform="translate(149.69 -120.25) rotate(10.67)"/>
  <polygon class="cls-2" points="806.94 904.77 742 934.42 565.25 800.22 718.7 758.3 806.94 904.77"/>
  <rect class="cls-2" x="777.34" y="808.46" width="84.71" height="134.38" rx="42.35" ry="42.35" transform="translate(547.64 -292.53) rotate(30)"/>
  <path class="cls-2" d="M617.76,820.08c0,14.51-18.01,26.28-40.24,26.28s-50.44,14.51-50.44,0,28.22-52.56,50.44-52.56,40.24,11.77,40.24,26.28Z"/>
  <path class="cls-1" d="M630.53,1049.94c19.29,92.13-29.97,127.15-91.41,140.01-61.43,12.86-111.77-1.3-131.06-93.44-19.29-92.13,14.87-177.25,76.31-190.11,61.43-12.86,126.87,51.4,146.16,143.53Z"/>
  <ellipse class="cls-1" cx="611.35" cy="723.55" rx="58.94" ry="70.59"/>
  <path class="cls-1" d="M684.85,669.34c-13.69,37.44-14.12,81.68-24.73,77.8s-27.41-54.43-13.72-91.86c13.69-37.44,53.92-72.04,64.54-68.16s-12.4,44.78-26.09,82.22Z"/>
  <ellipse class="cls-1" cx="790.12" cy="777.64" rx="64.41" ry="36.71" transform="translate(-175.12 1322.91) rotate(-74.01)"/>
  <ellipse class="cls-2" cx="818.69" cy="569.3" rx="24" ry="33.18" transform="translate(24.21 1171.93) rotate(-72)"/>
  <path class="cls-2" d="M856.45,965.59c-13.23,70.22,3.67,154.4-11.66,151.51-15.32-2.89-57.07-91.75-43.84-161.97,13.23-70.22,36.38-124.81,51.7-121.92,15.32,2.89,17.02,62.15,3.79,132.37Z"/>
  <ellipse class="cls-1" cx="890.77" cy="875.65" rx="25.41" ry="55.24"/>
  <path class="cls-4" d="M1089.29,886.42c-16.77,5.33,0-84.59-86.29-107.18-73.54-19.25-165.01,77.12-137.65-1.6,5.78-16.62,61.63-62.11,137.65-62.11s180.87,140.83,86.29,170.89Z"/>
  <rect class="cls-4" x="1073.21" y="846.36" width="53.65" height="225.88"/>
  <rect class="cls-4" x="1073.21" y="941.12" width="53.65" height="225.88"/>
  <polygon class="cls-4" points="924.78 766.72 874.15 811.95 835.14 795.64 911.69 738.28 924.78 766.72"/>
  <ellipse class="cls-5" cx="1026.47" cy="921.71" rx="21.88" ry="16.94"/>
  <ellipse class="cls-5" cx="1026.47" cy="893.48" rx="7.06" ry="19.76"/>
  <path class="cls-5" d="M1020.09,895.59c3.67,10.16,5.18,22.14,4.53,30.35-.72,9.03-10.44-5.95-20.03-37.12-3.54-11.51,1.82-15.12,6.69-15.12s4.72,10.57,8.81,21.88Z"/>
  <path class="cls-6" d="M1020.23,625.17c.33,21.8.62,29.44-1.63,29.04s-8.83-9.17-10.58-31.19c-1.82-22.99,24.74-50.77,26.99-50.38s-15.13,29.53-14.78,52.53Z"/>
  <path class="cls-6" d="M1014.09,650.1c-9.18-20.95-11.09-26.77-10.32-28.45,11.36-24.7,11.91,6.53,22.5,27.33,11.05,21.71-2.22,55.49-4.46,55.7s1.97-32.47-7.72-54.57Z"/>
  <path class="cls-6" d="M1071.53,655.73c4.4,20.53,6.1,27.69,3.93,27.69s-9.96-7.19-15.72-27.69c-6.01-21.41,13.55-52.07,15.72-52.07s-8.57,30.41-3.93,52.07Z"/>
  <path class="cls-6" d="M1087.91,730.55c-2.05.57-4.25-30.99-17.43-50.25-12.49-18.26-15.37-23.44-14.96-25.15,5.96-25.22,12.33,4.19,26.1,22.06,14.38,18.66,8.34,52.77,6.29,53.34"/>
  <ellipse class="cls-5" cx="1179.76" cy="1005.46" rx="21.88" ry="16.94"/>
  <ellipse class="cls-5" cx="1179.76" cy="977.23" rx="7.06" ry="19.76"/>
  <path class="cls-5" d="M1173.38,979.35c3.67,10.16,5.18,22.14,4.53,30.35-.72,9.03-10.44-5.95-20.03-37.12-3.54-11.51,1.82-15.12,6.69-15.12s4.72,10.57,8.81,21.88Z"/>
  <ellipse class="cls-2" cx="581.06" cy="797.63" rx="16.01" ry="6.14" transform="translate(-104.1 87.42) rotate(-7.9)"/>
  <ellipse class="cls-1" cx="571.94" cy="1103.06" rx="69.52" ry="112.57" transform="translate(-213.91 140.61) rotate(-11.83)"/>
  <path class="cls-1" d="M865.41,1117.74c0,6.11-4.11,11.06-9.18,11.06s-15.47,2.86-15.47-3.24,24.64-48.4,29.71-48.4-5.06,34.48-5.06,40.58Z"/>
  <polygon class="cls-2" points="654.28 804.2 634.13 791.52 666.58 754.6 680.13 763.12 654.28 804.2"/>
  <ellipse class="cls-1" cx="798.4" cy="767.48" rx="64.41" ry="36.71" transform="translate(-159.35 1323.51) rotate(-74.01)"/>
  <path class="cls-2" d="M554.41,864.12c0,14.68-9.11,49.02-17.56,49.02s-13.03-34.33-13.03-49.02,6.85-36.06,15.29-36.06,15.29,21.37,15.29,36.06Z"/>
  <path class="cls-1" d="M534.31,907.48c5.45,6.95,29.56,20.28,25.58,23.41s-34.56-5.12-40.01-12.08-4.56-35.38-.58-38.51,9.56,20.23,15.02,27.18Z"/>
  <path class="cls-1" d="M653.06,1124.54c0,9.79-11.25,4.93-17.46,4.93s-11.24-7.94-11.24-17.73,5.03-17.73,11.24-17.73,17.46,20.74,17.46,30.53Z"/>
  <path class="cls-1" d="M624.97,1102.05c-4.48-7.77-17.01-12.73-12.74-15.2s23.74-1.51,28.22,6.26,4.65,16.06.37,18.53-11.38-1.82-15.86-9.59Z"/>
  <path class="cls-1" d="M813.79,711.53c-5.49,6.08-24.34,9.85-27.33,7.15s11.02-10.85,16.5-16.93,27.84-30.27,30.83-27.57-14.52,31.27-20,37.35Z"/>
  <ellipse class="cls-1" cx="702.82" cy="611.3" rx="20.24" ry="6.64" transform="translate(-158.56 965.78) rotate(-63.38)"/>
  <path class="cls-1" d="M889.37,839.82c0,10.17-4.21,18.42-9.41,18.42s-9.41-8.25-9.41-18.42-19.42-23.05-14.22-23.05,33.05,12.87,33.05,23.05Z"/>
</svg>